<svg xmlns="http://www.w3.org/2000/svg" xmlns:xlink="http://www.w3.org/1999/xlink" width="1080" zoomAndPan="magnify" viewBox="0 0 810 809.999993" height="1080" preserveAspectRatio="xMidYMid meet" version="1.0"><defs><clipPath id="0e81c56b5e"><path d="M 0 158.960938 L 810 158.960938 L 810 650.960938 L 0 650.960938 Z M 0 158.960938 " clip-rule="nonzero"/></clipPath></defs><g clip-path="url(#0e81c56b5e)"><path fill="#212121" d="M 523.082031 158.960938 L 368.824219 357.246094 L 242.246094 520.082031 L 112.753906 356.113281 L 112.753906 651.03125 L 0.257812 651.03125 L 0.257812 158.960938 L 104.171875 158.960938 L 241.433594 340.898438 L 368.660156 169.808594 L 376.753906 158.960938 Z M 791.128906 302.859375 C 778.828125 272.753906 761.671875 246.53125 740.140625 225.164062 C 718.613281 203.800781 694.011719 187.289062 666.65625 175.957031 C 644.804688 167.054688 621.980469 161.550781 598.511719 159.773438 L 513.855469 268.546875 L 579.085938 268.546875 C 603.367188 268.546875 623.4375 274.210938 640.757812 286.027344 C 658.722656 298.167969 672.320312 314.191406 682.195312 334.75 C 692.230469 355.789062 697.410156 379.421875 697.410156 404.996094 C 697.410156 430.734375 692.390625 453.558594 682.195312 474.761719 C 672.160156 495.320312 658.722656 511.34375 640.59375 523.808594 C 623.4375 535.785156 603.367188 541.449219 579.085938 541.449219 L 480.671875 541.449219 L 480.671875 311.277344 L 368.5 455.5 L 368.5 651.03125 L 580.867188 651.03125 C 610.324219 651.03125 639.136719 645.367188 666.492188 634.035156 C 693.6875 622.707031 718.453125 606.195312 739.980469 584.667969 C 761.507812 563.140625 778.503906 537.078125 790.96875 506.972656 C 803.269531 476.867188 809.582031 442.550781 809.582031 404.835938 C 809.742188 367.445312 803.429688 333.128906 791.128906 302.859375 Z M 791.128906 302.859375 " fill-opacity="1" fill-rule="nonzero"/></g></svg>
