<svg xmlns="http://www.w3.org/2000/svg" xmlns:xlink="http://www.w3.org/1999/xlink" width="1000" zoomAndPan="magnify" viewBox="0 0 750 749.999995" height="1000" preserveAspectRatio="xMidYMid meet" version="1.0"><defs><clipPath id="7c01a2f0ea"><path d="M 0 112.5 L 750 112.5 L 750 635.519531 L 0 635.519531 Z M 0 112.5 " clip-rule="nonzero"/></clipPath><clipPath id="25a45f3855"><path d="M 0 112.5 L 750 112.5 L 750 635.519531 L 0 635.519531 Z M 0 112.5 " clip-rule="nonzero"/></clipPath></defs><g clip-path="url(#7c01a2f0ea)"><path fill="#f6e9da" d="M 749.15625 529.792969 C 744.257812 468.503906 743.601562 420.929688 736.253906 359.636719 C 731.347656 310.605469 750.003906 236.679688 705.765625 188.015625 C 696.507812 177.828125 683.90625 172.730469 669.855469 170.613281 C 672.796875 166.933594 668.929688 160.121094 668.125 157.507812 C 667.128906 154.253906 664.375 149.507812 656.875 148.757812 C 649.375 148.007812 560.378906 152.132812 548.5 153.128906 C 536.628906 154.132812 535.628906 166.628906 537 174.257812 C 537.644531 177.820312 541.011719 179.84375 544.421875 180.996094 C 540.128906 181.390625 535.832031 181.777344 531.550781 182.132812 C 521.886719 172.417969 516.046875 165.925781 510.28125 152.058594 C 502.371094 133.089844 500.195312 119.695312 474.859375 116.585938 C 452.320312 113.808594 430.679688 111.46875 408.15625 112.964844 C 372.855469 115.488281 360.246094 120.527344 342.597656 152.039062 C 335.511719 164.578125 329.355469 174.726562 321.597656 181.613281 C 317.582031 185.179688 303.917969 189.605469 298.105469 189.664062 C 292.289062 189.722656 288.925781 189.757812 288.925781 189.757812 C 222.660156 188.679688 179.699219 185.554688 179.699219 185.554688 C 138.023438 148.792969 44.847656 151.242188 3.171875 188.015625 C 3.171875 236.679688 -1.78125 330.160156 0.691406 376.929688 C 4.980469 436.078125 6.949219 492.648438 6.457031 549.09375 C 8.175781 610.558594 17.332031 623.308594 80.601562 633.964844 C 122.101562 638.589844 179.699219 634.242188 209.125 602.367188 C 209.125 602.367188 353.777344 604.808594 419.976562 609.726562 C 498.433594 617.074219 567.738281 613.148438 646.1875 608.25 C 714.835938 603.351562 756.519531 608.25 749.15625 529.792969 " fill-opacity="1" fill-rule="nonzero"/></g><path fill="#8c5243" d="M 563.484375 314.949219 C 534.085938 293.507812 481.421875 284.65625 445.933594 284.074219 C 380.089844 282.996094 319.59375 303.476562 281.320312 359.191406 C 234.09375 427.949219 251.441406 540.203125 320.097656 589.410156 C 338.542969 602.640625 363.121094 610.945312 384.929688 615.695312 C 433.667969 626.308594 482.335938 619.617188 529.316406 604.246094 C 550.832031 597.210938 573.152344 588.996094 590.101562 573.191406 C 670.863281 497.90625 641.828125 372.046875 563.484375 314.949219 " fill-opacity="1" fill-rule="nonzero"/><path fill="#eeaa94" d="M 186.566406 246.773438 C 201.949219 359.46875 188.441406 471.832031 196.59375 584.507812 C 196.828125 587.757812 201.378906 587.753906 201.632812 584.507812 C 210.109375 473.191406 208.925781 355.472656 193.351562 244.898438 C 192.71875 240.410156 185.964844 242.339844 186.566406 246.773438 " fill-opacity="1" fill-rule="nonzero"/><path fill="#eeaa94" d="M 585.65625 569.449219 C 569.21875 584.757812 547.59375 592.722656 526.746094 599.542969 C 481.222656 614.4375 434.066406 620.917969 386.839844 610.632812 C 365.707031 606.027344 341.894531 597.984375 324.015625 585.164062 C 257.488281 537.484375 240.679688 428.710938 286.441406 362.085938 C 323.53125 308.097656 382.152344 288.253906 445.949219 289.300781 C 480.34375 289.863281 531.367188 298.441406 559.855469 319.214844 C 635.769531 374.542969 663.90625 496.492188 585.65625 569.449219 Z M 529.007812 274.816406 C 493.785156 265.148438 455.769531 261.253906 419.25 265.535156 C 379.96875 270.125 342.410156 284.15625 311.929688 310.59375 C 244.921875 368.683594 221.875 475.726562 272.589844 555.402344 C 286.253906 576.867188 303.507812 593.179688 323.015625 605.203125 C 367.105469 632.371094 422.765625 637.492188 474.820312 629.816406 C 494.511719 626.917969 517.886719 621.566406 539.804688 613.421875 C 558.847656 606.351562 576.796875 597.175781 590.289062 585.648438 C 687.597656 502.585938 656.332031 309.785156 529.007812 274.816406 " fill-opacity="1" fill-rule="nonzero"/><path fill="#eeaa94" d="M 454.421875 452.476562 C 453.140625 463.242188 435.128906 464.042969 428.53125 458.417969 C 421.480469 452.402344 423.75 438.445312 432.964844 435.910156 C 435.519531 435.210938 438.273438 434.925781 440.917969 435.242188 C 443.765625 435.570312 446.476562 436.585938 448.691406 438.496094 C 452.484375 441.796875 455.03125 447.367188 454.421875 452.476562 Z M 463.703125 401.476562 C 454.164062 398.851562 443.863281 397.804688 433.984375 398.964844 C 423.351562 400.195312 413.191406 403.996094 404.929688 411.164062 C 390.742188 423.460938 381.210938 444.289062 383.496094 463.375 C 388.300781 503.652344 455.648438 506.660156 480.292969 485.617188 C 506.628906 463.136719 498.167969 410.941406 463.703125 401.476562 " fill-opacity="1" fill-rule="nonzero"/><path fill="#eeaa94" d="M 570.753906 546.800781 C 538.628906 582.648438 490.585938 590.171875 455.945312 590.171875 C 439.152344 590.171875 421.75 588.457031 404.230469 585.0625 C 391.679688 582.644531 378.140625 577.980469 366.105469 571.945312 C 340.023438 558.835938 319.570312 537.28125 305.320312 507.859375 C 290.53125 477.386719 291.761719 452.5 298.863281 419.804688 C 302.207031 404.449219 306.613281 391.453125 312.355469 380.082031 C 333.808594 337.578125 375.269531 314.167969 429.105469 314.167969 C 463.535156 314.167969 501.152344 324.28125 532.3125 341.917969 C 569.144531 362.765625 595.140625 399.675781 601.855469 440.625 C 608.242188 479.59375 597.199219 517.300781 570.753906 546.800781 Z M 535.207031 336.792969 C 503.195312 318.667969 464.523438 308.273438 429.105469 308.273438 C 372.929688 308.273438 329.601562 332.832031 307.101562 377.425781 C 301.128906 389.25 296.554688 402.703125 293.109375 418.554688 C 285.730469 452.507812 284.496094 478.421875 300.015625 510.421875 C 314.847656 541.03125 336.199219 563.488281 363.460938 577.195312 C 375.964844 583.46875 390.046875 588.296875 403.117188 590.824219 C 421.007812 594.285156 438.777344 596.003906 455.945312 596.003906 C 455.953125 596.003906 455.953125 596.003906 455.953125 596.003906 C 491.792969 596.003906 541.570312 588.167969 575.136719 550.710938 C 602.800781 519.851562 614.347656 480.433594 607.664062 439.679688 C 600.667969 396.972656 573.578125 358.507812 535.207031 336.792969 " fill-opacity="1" fill-rule="nonzero"/><path fill="#eeaa94" d="M 541.105469 162.945312 C 542.496094 162.691406 543.34375 162.738281 544.585938 163.453125 C 545.625 164.058594 545.980469 165.445312 545.371094 166.484375 C 544.644531 167.726562 543.90625 168.207031 542.554688 168.664062 C 541.667969 168.957031 540.507812 168.640625 539.886719 167.953125 C 539.859375 167.925781 539.835938 167.894531 539.800781 167.859375 C 538.445312 166.367188 538.785156 163.355469 541.105469 162.945312 Z M 545.160156 156.527344 C 545.472656 156.597656 545.78125 156.675781 546.09375 156.746094 C 548.441406 157.324219 548.441406 160.910156 546.09375 161.484375 C 545.78125 161.5625 545.472656 161.632812 545.160156 161.714844 C 540.832031 162.773438 540.832031 155.460938 545.160156 156.527344 Z M 545.359375 175.464844 C 544.269531 175.980469 543.703125 176.140625 542.484375 176.015625 C 538.914062 175.652344 539.707031 170.410156 543.132812 171.222656 C 544.324219 171.503906 544.863281 171.785156 545.71875 172.640625 C 546.484375 173.410156 546.410156 174.957031 545.359375 175.464844 Z M 553.65625 173.210938 C 555.574219 173.003906 559.914062 172.910156 559.914062 175.875 C 559.914062 178.847656 555.574219 178.753906 553.65625 178.546875 C 550.21875 178.179688 550.21875 173.578125 553.65625 173.210938 Z M 552.996094 163.976562 C 553.277344 163.898438 553.550781 163.824219 553.839844 163.742188 C 554.660156 163.507812 555.574219 163.757812 556.171875 164.363281 C 556.304688 164.484375 556.441406 164.621094 556.570312 164.753906 C 557.320312 165.488281 557.195312 166.535156 556.570312 167.285156 C 556.042969 167.929688 555.667969 168.148438 554.898438 168.480469 C 551.558594 169.917969 549.632812 164.9375 552.996094 163.976562 Z M 558.589844 156.703125 C 559.582031 156.902344 560.121094 157.144531 560.800781 157.882812 C 561.46875 158.601562 561.46875 159.632812 560.800781 160.355469 C 560.121094 161.09375 559.582031 161.339844 558.589844 161.53125 C 554.546875 162.335938 554.546875 155.902344 558.589844 156.703125 Z M 569.886719 163.179688 C 570.09375 163.21875 570.296875 163.261719 570.507812 163.300781 C 573.210938 163.8125 573.210938 168.230469 570.507812 168.738281 C 570.296875 168.78125 570.09375 168.820312 569.886719 168.863281 C 565.136719 169.765625 565.136719 162.277344 569.886719 163.179688 Z M 572.332031 157.253906 C 573.363281 157.40625 573.648438 157.5 574.476562 158.117188 C 575.460938 158.855469 575.460938 160.050781 574.476562 160.789062 C 573.648438 161.402344 573.363281 161.496094 572.332031 161.648438 C 568.65625 162.183594 568.65625 156.722656 572.332031 157.253906 Z M 582.644531 175.066406 C 584.160156 174.523438 585.421875 174.347656 586.832031 175.21875 C 588.09375 176.003906 588.027344 177.722656 586.832031 178.519531 C 585.695312 179.273438 584.558594 179.246094 583.230469 179.410156 C 580.605469 179.71875 580.453125 175.851562 582.644531 175.066406 Z M 584.546875 164.496094 C 586.035156 164.410156 587.191406 164.15625 588.613281 164.707031 C 589.855469 165.199219 590.230469 166.511719 589.363281 167.554688 C 588.070312 169.113281 586.5 169.402344 584.546875 169.519531 C 581.320312 169.710938 581.335938 164.695312 584.546875 164.496094 Z M 586.1875 157.179688 C 586.464844 157.195312 586.738281 157.21875 587.019531 157.238281 C 590.285156 157.472656 590.285156 162.089844 587.019531 162.324219 C 586.738281 162.339844 586.464844 162.363281 586.1875 162.382812 C 582.835938 162.617188 582.835938 156.945312 586.1875 157.179688 Z M 599.335938 155.578125 C 600.445312 155.613281 601.113281 155.71875 602.019531 156.363281 C 603.328125 157.300781 603.328125 158.964844 602.019531 159.898438 C 601.113281 160.546875 600.445312 160.652344 599.335938 160.683594 C 596.039062 160.792969 596.039062 155.480469 599.335938 155.578125 Z M 605.074219 166.742188 C 603.976562 168.300781 603.167969 168.585938 601.304688 168.828125 C 597.785156 169.277344 597.597656 163.042969 601.304688 163.214844 C 602.484375 163.265625 603.257812 163.453125 604.328125 163.910156 C 605.3125 164.328125 605.660156 165.902344 605.074219 166.742188 Z M 607.152344 176.140625 C 605.636719 178.019531 602.8125 177.65625 600.648438 177.617188 C 597.144531 177.550781 597.144531 172.25 600.648438 172.183594 C 602.8125 172.148438 605.636719 171.785156 607.152344 173.667969 C 607.796875 174.476562 607.796875 175.324219 607.152344 176.140625 Z M 615.765625 171.480469 C 617.253906 171.359375 618.332031 171.253906 619.597656 172.109375 C 620.191406 172.507812 620.652344 173.292969 620.378906 174.035156 C 619.570312 176.234375 617.976562 176.738281 615.765625 177 C 612.269531 177.40625 612.210938 171.769531 615.765625 171.480469 Z M 615.753906 162.269531 C 616.9375 162.101562 617.71875 162.046875 618.882812 162.300781 C 620.066406 162.558594 620.5 163.988281 619.96875 164.976562 C 619.222656 166.355469 618.609375 166.746094 617.097656 167.144531 C 613.867188 168.023438 612.609375 162.722656 615.753906 162.269531 Z M 617.324219 155.410156 C 618.410156 155.761719 619.210938 155.8125 620.167969 156.46875 C 621.140625 157.148438 621.175781 158.472656 620.167969 159.136719 C 618.832031 160.015625 617.710938 159.984375 616.1875 159.539062 C 613.539062 158.753906 614.699219 154.554688 617.324219 155.410156 Z M 629.546875 170.316406 C 630.238281 169.933594 630.855469 169.683594 631.617188 169.472656 C 632.636719 169.171875 634.054688 169.625 634.515625 170.644531 C 634.609375 170.847656 634.703125 171.046875 634.78125 171.253906 C 635.167969 172.34375 634.515625 173.585938 633.597656 174.160156 C 633.167969 174.453125 632.710938 174.691406 632.21875 174.886719 C 629.179688 176.269531 626.507812 171.980469 629.546875 170.316406 Z M 630.890625 161.707031 C 632.382812 161.589844 633.492188 161.296875 634.945312 161.820312 C 636.132812 162.257812 636.507812 163.582031 635.664062 164.554688 C 634.359375 166.054688 632.800781 166.324219 630.890625 166.402344 C 627.835938 166.511719 627.914062 161.949219 630.890625 161.707031 Z M 631.292969 154.707031 C 632.148438 154.542969 632.769531 154.414062 633.609375 154.660156 C 634.335938 154.863281 634.699219 155.457031 634.761719 156.164062 C 634.773438 156.316406 634.792969 156.464844 634.804688 156.617188 C 634.890625 157.578125 634.082031 158.414062 633.234375 158.679688 C 632.96875 158.761719 632.710938 158.84375 632.453125 158.925781 C 629.742188 159.773438 628.539062 155.261719 631.292969 154.707031 Z M 643.242188 152.039062 C 643.339844 152 643.445312 151.945312 643.535156 151.910156 C 645.234375 151.183594 647.746094 151.976562 647.589844 154.238281 C 647.582031 154.332031 647.578125 154.425781 647.570312 154.523438 C 647.414062 156.640625 645.222656 158.167969 643.242188 157.007812 C 641.554688 156.019531 641.191406 152.917969 643.242188 152.039062 Z M 649.722656 159.582031 C 651.109375 160.390625 651.109375 162.457031 649.722656 163.273438 C 649.011719 163.683594 648.527344 163.839844 647.699219 163.976562 C 643.429688 164.667969 643.429688 158.179688 647.699219 158.878906 C 648.527344 159.007812 649.011719 159.164062 649.722656 159.582031 Z M 652.339844 171.46875 C 650.835938 172.3125 649.386719 172.777344 647.652344 172.78125 C 644.371094 172.78125 644.542969 168.160156 647.652344 167.808594 C 648.855469 167.679688 650.054688 167.609375 651.269531 167.519531 C 653.414062 167.367188 654.097656 170.472656 652.339844 171.46875 Z M 654.222656 150.714844 C 654.445312 150.703125 654.660156 150.6875 654.882812 150.675781 C 657.726562 150.492188 657.726562 155.269531 654.882812 155.082031 C 654.660156 155.074219 654.445312 155.050781 654.222656 155.046875 C 651.445312 154.863281 651.445312 150.898438 654.222656 150.714844 Z M 660.753906 157.886719 C 662.238281 157.324219 665.332031 156.394531 665.964844 158.691406 C 666.648438 161.179688 664.09375 162.394531 662.15625 162.984375 C 658.84375 163.992188 657.613281 159.058594 660.753906 157.886719 Z M 668.710938 167.65625 C 667.851562 168.851562 666.917969 169.148438 665.839844 170.082031 C 663.425781 172.148438 659.917969 168.703125 662.324219 166.558594 C 663.90625 165.152344 665.417969 164.121094 667.550781 164.8125 C 668.648438 165.175781 669.472656 166.59375 668.710938 167.65625 Z M 572.417969 178.050781 C 571.300781 178.90625 568.5 178.875 568.5 178.875 C 567 178.875 567 175.511719 568.5 175.511719 C 570 175.511719 571.070312 175.488281 572.195312 176.339844 C 572.824219 176.824219 573.046875 177.570312 572.417969 178.050781 Z M 540.859375 181.3125 C 543.105469 182.554688 545.71875 183.351562 548.441406 183.816406 C 584.839844 189.992188 663.199219 177.40625 669.222656 174.304688 C 670.746094 173.527344 671.652344 172.359375 672.132812 171 C 673.195312 168.019531 672.214844 164.097656 671.25 161.25 C 669.695312 156.675781 667.945312 148.203125 662.078125 147.375 C 654.132812 146.273438 640.066406 147.035156 632.007812 146.996094 C 615.292969 146.902344 603.585938 147.773438 586.886719 148.546875 C 579.097656 148.898438 571.347656 149.703125 563.570312 150.195312 C 556.804688 150.617188 549.445312 149.808594 543.164062 152.835938 C 542.898438 152.960938 542.636719 153.09375 542.371094 153.234375 C 535.796875 156.804688 533.160156 164.847656 534.222656 172.015625 C 534.878906 176.46875 537.425781 179.414062 540.859375 181.3125 " fill-opacity="1" fill-rule="nonzero"/><path fill="#eeaa94" d="M 39.996094 240.523438 C 40.132812 237.667969 44.273438 237.679688 44.414062 240.523438 C 44.589844 243.980469 45.140625 248.238281 43.371094 251.367188 C 42.890625 252.210938 41.621094 252.199219 41.140625 251.367188 C 39.335938 248.261719 39.851562 243.980469 39.996094 240.523438 Z M 48.089844 240.054688 C 48.304688 237.769531 51.402344 237.785156 51.632812 240.054688 C 52.042969 244.050781 53.558594 249.992188 51.167969 253.542969 C 50.535156 254.480469 49.292969 254.46875 48.660156 253.542969 C 46.242188 250.015625 47.714844 244.042969 48.089844 240.054688 Z M 56.085938 246.386719 C 56.113281 243.328125 56.097656 240.316406 56.578125 237.292969 C 56.929688 235.097656 60.605469 235.113281 60.972656 237.289062 C 61.546875 240.703125 61.496094 244.15625 61.558594 247.617188 C 61.617188 250.535156 61.640625 253.132812 60.464844 255.839844 C 59.925781 257.058594 57.785156 257.046875 57.238281 255.839844 C 55.871094 252.773438 56.050781 249.675781 56.085938 246.386719 Z M 67.101562 237.84375 C 67.265625 234.316406 72.296875 234.363281 72.53125 237.84375 C 72.75 240.980469 72.972656 244.113281 73.089844 247.253906 C 73.175781 249.585938 73.09375 251.988281 71.707031 253.945312 C 70.957031 254.988281 69.679688 254.960938 68.921875 253.945312 C 67.246094 251.695312 67.269531 248.765625 67.160156 246.078125 C 67.042969 243.316406 66.976562 240.605469 67.101562 237.84375 Z M 82.347656 235.449219 C 82.914062 238.828125 83.332031 242.214844 83.589844 245.636719 C 83.828125 248.730469 84.128906 251.671875 82.570312 254.46875 C 81.871094 255.710938 80.019531 255.667969 79.3125 254.46875 C 77.71875 251.75 77.859375 248.703125 77.765625 245.636719 C 77.671875 242.449219 77.546875 239.28125 77.601562 236.097656 C 77.648438 233.457031 81.882812 232.683594 82.347656 235.449219 Z M 93.320312 237.539062 C 94.535156 240.691406 95.167969 243.785156 95.59375 247.121094 C 95.910156 249.480469 96.414062 252.476562 94.535156 254.28125 C 93.976562 254.808594 93.058594 254.988281 92.378906 254.554688 C 90.246094 253.171875 90.085938 250.496094 89.863281 248.140625 C 89.578125 245.027344 89.300781 241.871094 88.832031 238.789062 C 88.398438 235.828125 92.230469 234.714844 93.320312 237.539062 Z M 104.636719 237.3125 C 105.410156 240.292969 105.820312 243.269531 106.066406 246.339844 C 106.257812 248.785156 106.617188 251.460938 104.523438 253.183594 C 103.78125 253.804688 102.871094 254.011719 101.988281 253.511719 C 99.332031 252.046875 99.375 249.042969 99.222656 246.339844 C 99.0625 243.597656 98.992188 240.84375 98.671875 238.121094 C 98.265625 234.65625 103.796875 234.070312 104.636719 237.3125 Z M 110.359375 243.324219 C 110.371094 240.324219 110.476562 237.339844 111.015625 234.382812 C 111.484375 231.804688 115.675781 231.832031 116.171875 234.382812 C 116.8125 237.714844 116.898438 241.109375 116.917969 244.5 C 116.929688 246.972656 116.976562 249.980469 114.976562 251.703125 C 114.15625 252.417969 113.160156 252.40625 112.347656 251.703125 C 110.0625 249.761719 110.34375 246.082031 110.359375 243.324219 Z M 121.03125 235.03125 C 121.277344 231.46875 126.269531 231.488281 126.550781 235.03125 C 126.925781 239.753906 127.644531 246.03125 125.324219 250.347656 C 124.722656 251.460938 122.980469 251.449219 122.382812 250.347656 C 120.027344 246.054688 120.703125 239.753906 121.03125 235.03125 Z M 132.296875 235.40625 C 132.574219 233.28125 136.054688 232.261719 136.457031 234.84375 C 137.15625 239.363281 138.492188 245.589844 136.300781 249.820312 C 135.75 250.898438 134.085938 250.851562 133.515625 249.820312 C 131.34375 245.882812 131.734375 239.730469 132.296875 235.40625 Z M 145.933594 234.230469 C 147.003906 237.898438 150.144531 243.292969 147.050781 246.667969 C 146.460938 247.320312 145.445312 247.230469 144.84375 246.667969 C 143.347656 245.304688 142.980469 243.199219 142.429688 241.3125 C 141.882812 239.425781 141.238281 237.5625 140.746094 235.664062 C 139.867188 232.296875 144.964844 230.90625 145.933594 234.230469 Z M 48.402344 259.289062 C 79.582031 264.421875 146.589844 253.347656 151.726562 250.675781 C 155.886719 248.519531 154.632812 243.035156 153.414062 239.492188 C 152.066406 235.589844 150.53125 228.328125 145.511719 227.660156 C 138.707031 226.734375 126.671875 227.449219 119.78125 227.445312 C 105.472656 227.4375 95.453125 228.230469 81.164062 228.957031 C 74.5 229.296875 67.875 230.011719 61.214844 230.457031 C 55.433594 230.84375 49.121094 230.191406 43.757812 232.792969 C 43.542969 232.898438 43.3125 233.015625 43.089844 233.132812 C 37.476562 236.222656 35.257812 243.113281 36.1875 249.242188 C 37.144531 255.539062 42.511719 258.316406 48.402344 259.289062 " fill-opacity="1" fill-rule="nonzero"/><path fill="#eeaa94" d="M 51.980469 185.050781 C 64.675781 194.304688 78.636719 194.621094 93.585938 193.308594 C 106.921875 192.136719 122.195312 190.988281 134.277344 184.757812 C 142.125 180.722656 138.28125 172.734375 130.804688 171.761719 C 129.144531 171.539062 128.746094 173.714844 129.585938 174.703125 C 131.207031 176.636719 134.648438 178.171875 131.554688 180.105469 C 128.722656 181.863281 125.109375 182.601562 121.914062 183.417969 C 113.453125 185.597656 104.648438 186.59375 95.976562 187.453125 C 89.722656 188.074219 83.402344 188.609375 77.113281 188.503906 C 72.707031 188.445312 68.472656 187.207031 64.339844 185.824219 C 60.339844 184.484375 56.300781 182.152344 53.003906 179.542969 C 45.347656 173.515625 57.515625 168.59375 61.808594 167.15625 C 63.390625 166.625 62.734375 164.414062 61.128906 164.691406 C 49.324219 166.710938 38.632812 175.335938 51.980469 185.050781 " fill-opacity="1" fill-rule="nonzero"/><path fill="#eeaa94" d="M 173.695312 259.617188 C 143.40625 281.878906 98.472656 273.550781 63.121094 273.546875 C 42.632812 273.539062 11.574219 273.65625 3.375 296.660156 C 2.84375 298.167969 5.328125 299.222656 5.960938 297.746094 C 18.46875 268.59375 76.855469 279.292969 101.886719 279.960938 C 124.785156 280.578125 160.09375 283.007812 176.660156 263.46875 C 178.339844 261.488281 176.078125 257.867188 173.695312 259.617188 " fill-opacity="1" fill-rule="nonzero"/><path fill="#eeaa94" d="M 709.457031 256.792969 C 660.902344 263.058594 613.40625 267.558594 564.480469 269.785156 C 561.855469 269.90625 561.847656 273.757812 564.480469 273.855469 C 612.550781 275.636719 663.410156 274.171875 710.097656 261.539062 C 712.65625 260.847656 712.21875 256.4375 709.457031 256.792969 " fill-opacity="1" fill-rule="nonzero"/><path fill="#eeaa94" d="M 352.46875 256.792969 C 303.90625 263.058594 256.410156 267.558594 207.492188 269.785156 C 204.867188 269.90625 204.859375 273.757812 207.492188 273.855469 C 255.5625 275.636719 306.421875 274.179688 353.113281 261.539062 C 355.664062 260.847656 355.230469 256.4375 352.46875 256.792969 " fill-opacity="1" fill-rule="nonzero"/><path fill="#eeaa94" d="M 667.09375 206.566406 C 666 206.949219 664.476562 206.890625 664.011719 206.238281 C 663.574219 205.625 663.789062 204.152344 664.46875 203.730469 C 665.53125 203.070312 667.527344 203.800781 668.125 204.804688 C 668.605469 205.640625 667.992188 206.25 667.09375 206.566406 Z M 663.039062 196.988281 C 661.164062 197.796875 653.851562 203.457031 659.957031 210.304688 C 661.792969 212.367188 664.738281 213.09375 667.375 213.078125 C 669.484375 213.066406 672.121094 213.183594 674.03125 212.144531 C 677.753906 210.117188 677.582031 204.9375 676.394531 201.476562 C 676.101562 200.613281 675.507812 199.894531 674.753906 199.289062 C 673.113281 197.984375 670.722656 197.210938 669.023438 196.8125 C 667.242188 196.390625 664.773438 196.253906 663.039062 196.988281 " fill-opacity="1" fill-rule="nonzero"/><path fill="#eeaa94" d="M 325.445312 188.285156 C 341.6875 177.585938 353.25 163.320312 373.125 158.046875 C 392.089844 153.023438 413.289062 155.320312 432.65625 155.320312 C 469.527344 155.320312 493.292969 157.722656 517.703125 187.285156 C 519.644531 189.632812 522.789062 186.632812 521.660156 184.230469 C 507.679688 154.484375 478.324219 149.601562 448.441406 148.910156 C 425.816406 148.382812 402.597656 147.59375 380.226562 151.285156 C 354.554688 155.515625 344.285156 172.253906 324.496094 186.679688 C 323.546875 187.371094 324.421875 188.960938 325.445312 188.285156 " fill-opacity="1" fill-rule="nonzero"/><path fill="#eeaa94" d="M 481.75 226.582031 C 440.476562 221.0625 400.070312 231.246094 363.296875 249.429688 C 362.15625 249.992188 362.976562 251.988281 364.175781 251.507812 C 425.980469 226.660156 497.019531 222.152344 551.40625 263.996094 C 553.492188 265.59375 555.953125 262.59375 554.8125 260.597656 C 541.011719 236.472656 506.992188 229.953125 481.75 226.582031 " fill-opacity="1" fill-rule="nonzero"/><path fill="#eeaa94" d="M 697.527344 514.65625 C 691.207031 509.804688 677.441406 511.019531 670.792969 513.726562 C 668.273438 514.75 667.863281 518.378906 670.792969 519.246094 C 676.632812 520.980469 682.339844 519.945312 688.386719 520.152344 C 698.582031 520.492188 697.363281 535.5625 697.96875 543.011719 C 698.601562 550.957031 703.710938 576.9375 695.882812 581.917969 C 691.03125 584.992188 677.113281 588.179688 674.371094 580.722656 C 672.304688 575.101562 672.457031 568 671.800781 562.113281 C 670.335938 548.683594 668.957031 535.242188 667.242188 521.847656 C 666.8125 518.5 661.632812 518.304688 661.855469 521.839844 C 663.167969 542.136719 663.589844 562.617188 667.234375 582.679688 C 669.855469 597.175781 694.230469 593.589844 702.222656 586.808594 C 706.511719 583.175781 706.539062 578.601562 706.792969 573.246094 C 707.390625 560.839844 706.292969 548.238281 705.234375 535.886719 C 704.523438 527.601562 704.519531 520.019531 697.527344 514.65625 " fill-opacity="1" fill-rule="nonzero"/><g clip-path="url(#25a45f3855)"><path fill="#f6e9da" d="M 749.15625 529.792969 C 744.257812 468.503906 743.601562 420.929688 736.253906 359.636719 C 731.347656 310.605469 750.003906 236.679688 705.765625 188.015625 C 696.507812 177.828125 683.90625 172.730469 669.855469 170.613281 C 672.796875 166.933594 668.929688 160.121094 668.125 157.507812 C 667.128906 154.253906 664.375 149.507812 656.875 148.757812 C 649.375 148.007812 560.378906 152.132812 548.5 153.128906 C 536.628906 154.132812 535.628906 166.628906 537 174.257812 C 537.644531 177.820312 541.011719 179.84375 544.421875 180.996094 C 540.128906 181.390625 535.832031 181.777344 531.550781 182.132812 C 521.886719 172.417969 516.046875 165.925781 510.28125 152.058594 C 502.371094 133.089844 500.195312 119.695312 474.859375 116.585938 C 452.320312 113.808594 430.679688 111.46875 408.15625 112.964844 C 372.855469 115.488281 360.246094 120.527344 342.597656 152.039062 C 335.511719 164.578125 329.355469 174.726562 321.597656 181.613281 C 317.582031 185.179688 303.917969 189.605469 298.105469 189.664062 C 292.289062 189.722656 288.925781 189.757812 288.925781 189.757812 C 222.660156 188.679688 179.699219 185.554688 179.699219 185.554688 C 138.023438 148.792969 44.847656 151.242188 3.171875 188.015625 C 3.171875 236.679688 -1.78125 330.160156 0.691406 376.929688 C 4.980469 436.078125 6.949219 492.648438 6.457031 549.09375 C 8.175781 610.558594 17.332031 623.308594 80.601562 633.964844 C 122.101562 638.589844 179.699219 634.242188 209.125 602.367188 C 209.125 602.367188 353.777344 604.808594 419.976562 609.726562 C 498.433594 617.074219 567.738281 613.148438 646.1875 608.25 C 714.835938 603.351562 756.519531 608.25 749.15625 529.792969 " fill-opacity="1" fill-rule="nonzero"/></g><path fill="#8c5243" d="M 563.484375 314.949219 C 534.085938 293.507812 481.421875 284.65625 445.933594 284.074219 C 380.089844 282.996094 319.59375 303.476562 281.320312 359.191406 C 234.09375 427.949219 251.441406 540.203125 320.097656 589.410156 C 338.542969 602.640625 363.121094 610.945312 384.929688 615.695312 C 433.667969 626.308594 482.335938 619.617188 529.316406 604.246094 C 550.832031 597.210938 573.152344 588.996094 590.101562 573.191406 C 670.863281 497.90625 641.828125 372.046875 563.484375 314.949219 " fill-opacity="1" fill-rule="nonzero"/><path fill="#eeaa94" d="M 186.566406 246.773438 C 201.949219 359.46875 188.441406 471.832031 196.59375 584.507812 C 196.828125 587.757812 201.378906 587.753906 201.632812 584.507812 C 210.109375 473.191406 208.925781 355.472656 193.351562 244.898438 C 192.71875 240.410156 185.964844 242.339844 186.566406 246.773438 " fill-opacity="1" fill-rule="nonzero"/><path fill="#eeaa94" d="M 585.65625 569.449219 C 569.21875 584.757812 547.59375 592.722656 526.746094 599.542969 C 481.222656 614.4375 434.066406 620.917969 386.839844 610.632812 C 365.707031 606.027344 341.894531 597.984375 324.015625 585.164062 C 257.488281 537.484375 240.679688 428.710938 286.441406 362.085938 C 323.53125 308.097656 382.152344 288.253906 445.949219 289.300781 C 480.34375 289.863281 531.367188 298.441406 559.855469 319.214844 C 635.769531 374.542969 663.90625 496.492188 585.65625 569.449219 Z M 529.007812 274.816406 C 493.785156 265.148438 455.769531 261.253906 419.25 265.535156 C 379.96875 270.125 342.410156 284.15625 311.929688 310.59375 C 244.921875 368.683594 221.875 475.726562 272.589844 555.402344 C 286.253906 576.867188 303.507812 593.179688 323.015625 605.203125 C 367.105469 632.371094 422.765625 637.492188 474.820312 629.816406 C 494.511719 626.917969 517.886719 621.566406 539.804688 613.421875 C 558.847656 606.351562 576.796875 597.175781 590.289062 585.648438 C 687.597656 502.585938 656.332031 309.785156 529.007812 274.816406 " fill-opacity="1" fill-rule="nonzero"/><path fill="#eeaa94" d="M 454.421875 452.476562 C 453.140625 463.242188 435.128906 464.042969 428.53125 458.417969 C 421.480469 452.402344 423.75 438.445312 432.964844 435.910156 C 435.519531 435.210938 438.273438 434.925781 440.917969 435.242188 C 443.765625 435.570312 446.476562 436.585938 448.691406 438.496094 C 452.484375 441.796875 455.03125 447.367188 454.421875 452.476562 Z M 463.703125 401.476562 C 454.164062 398.851562 443.863281 397.804688 433.984375 398.964844 C 423.351562 400.195312 413.191406 403.996094 404.929688 411.164062 C 390.742188 423.460938 381.210938 444.289062 383.496094 463.375 C 388.300781 503.652344 455.648438 506.660156 480.292969 485.617188 C 506.628906 463.136719 498.167969 410.941406 463.703125 401.476562 " fill-opacity="1" fill-rule="nonzero"/><path fill="#eeaa94" d="M 570.753906 546.800781 C 538.628906 582.648438 490.585938 590.171875 455.945312 590.171875 C 439.152344 590.171875 421.75 588.457031 404.230469 585.0625 C 391.679688 582.644531 378.140625 577.980469 366.105469 571.945312 C 340.023438 558.835938 319.570312 537.28125 305.320312 507.859375 C 290.53125 477.386719 291.761719 452.5 298.863281 419.804688 C 302.207031 404.449219 306.613281 391.453125 312.355469 380.082031 C 333.808594 337.578125 375.269531 314.167969 429.105469 314.167969 C 463.535156 314.167969 501.152344 324.28125 532.3125 341.917969 C 569.144531 362.765625 595.140625 399.675781 601.855469 440.625 C 608.242188 479.59375 597.199219 517.300781 570.753906 546.800781 Z M 535.207031 336.792969 C 503.195312 318.667969 464.523438 308.273438 429.105469 308.273438 C 372.929688 308.273438 329.601562 332.832031 307.101562 377.425781 C 301.128906 389.25 296.554688 402.703125 293.109375 418.554688 C 285.730469 452.507812 284.496094 478.421875 300.015625 510.421875 C 314.847656 541.03125 336.199219 563.488281 363.460938 577.195312 C 375.964844 583.46875 390.046875 588.296875 403.117188 590.824219 C 421.007812 594.285156 438.777344 596.003906 455.945312 596.003906 C 455.953125 596.003906 455.953125 596.003906 455.953125 596.003906 C 491.792969 596.003906 541.570312 588.167969 575.136719 550.710938 C 602.800781 519.851562 614.347656 480.433594 607.664062 439.679688 C 600.667969 396.972656 573.578125 358.507812 535.207031 336.792969 " fill-opacity="1" fill-rule="nonzero"/><path fill="#eeaa94" d="M 541.105469 162.945312 C 542.496094 162.691406 543.34375 162.738281 544.585938 163.453125 C 545.625 164.058594 545.980469 165.445312 545.371094 166.484375 C 544.644531 167.726562 543.90625 168.207031 542.554688 168.664062 C 541.667969 168.957031 540.507812 168.640625 539.886719 167.953125 C 539.859375 167.925781 539.835938 167.894531 539.800781 167.859375 C 538.445312 166.367188 538.785156 163.355469 541.105469 162.945312 Z M 545.160156 156.527344 C 545.472656 156.597656 545.78125 156.675781 546.09375 156.746094 C 548.441406 157.324219 548.441406 160.910156 546.09375 161.484375 C 545.78125 161.5625 545.472656 161.632812 545.160156 161.714844 C 540.832031 162.773438 540.832031 155.460938 545.160156 156.527344 Z M 545.359375 175.464844 C 544.269531 175.980469 543.703125 176.140625 542.484375 176.015625 C 538.914062 175.652344 539.707031 170.410156 543.132812 171.222656 C 544.324219 171.503906 544.863281 171.785156 545.71875 172.640625 C 546.484375 173.410156 546.410156 174.957031 545.359375 175.464844 Z M 553.65625 173.210938 C 555.574219 173.003906 559.914062 172.910156 559.914062 175.875 C 559.914062 178.847656 555.574219 178.753906 553.65625 178.546875 C 550.21875 178.179688 550.21875 173.578125 553.65625 173.210938 Z M 552.996094 163.976562 C 553.277344 163.898438 553.550781 163.824219 553.839844 163.742188 C 554.660156 163.507812 555.574219 163.757812 556.171875 164.363281 C 556.304688 164.484375 556.441406 164.621094 556.570312 164.753906 C 557.320312 165.488281 557.195312 166.535156 556.570312 167.285156 C 556.042969 167.929688 555.667969 168.148438 554.898438 168.480469 C 551.558594 169.917969 549.632812 164.9375 552.996094 163.976562 Z M 558.589844 156.703125 C 559.582031 156.902344 560.121094 157.144531 560.800781 157.882812 C 561.46875 158.601562 561.46875 159.632812 560.800781 160.355469 C 560.121094 161.09375 559.582031 161.339844 558.589844 161.53125 C 554.546875 162.335938 554.546875 155.902344 558.589844 156.703125 Z M 569.886719 163.179688 C 570.09375 163.21875 570.296875 163.261719 570.507812 163.300781 C 573.210938 163.8125 573.210938 168.230469 570.507812 168.738281 C 570.296875 168.78125 570.09375 168.820312 569.886719 168.863281 C 565.136719 169.765625 565.136719 162.277344 569.886719 163.179688 Z M 572.332031 157.253906 C 573.363281 157.40625 573.648438 157.5 574.476562 158.117188 C 575.460938 158.855469 575.460938 160.050781 574.476562 160.789062 C 573.648438 161.402344 573.363281 161.496094 572.332031 161.648438 C 568.65625 162.183594 568.65625 156.722656 572.332031 157.253906 Z M 582.644531 175.066406 C 584.160156 174.523438 585.421875 174.347656 586.832031 175.21875 C 588.09375 176.003906 588.027344 177.722656 586.832031 178.519531 C 585.695312 179.273438 584.558594 179.246094 583.230469 179.410156 C 580.605469 179.71875 580.453125 175.851562 582.644531 175.066406 Z M 584.546875 164.496094 C 586.035156 164.410156 587.191406 164.15625 588.613281 164.707031 C 589.855469 165.199219 590.230469 166.511719 589.363281 167.554688 C 588.070312 169.113281 586.5 169.402344 584.546875 169.519531 C 581.320312 169.710938 581.335938 164.695312 584.546875 164.496094 Z M 586.1875 157.179688 C 586.464844 157.195312 586.738281 157.21875 587.019531 157.238281 C 590.285156 157.472656 590.285156 162.089844 587.019531 162.324219 C 586.738281 162.339844 586.464844 162.363281 586.1875 162.382812 C 582.835938 162.617188 582.835938 156.945312 586.1875 157.179688 Z M 599.335938 155.578125 C 600.445312 155.613281 601.113281 155.71875 602.019531 156.363281 C 603.328125 157.300781 603.328125 158.964844 602.019531 159.898438 C 601.113281 160.546875 600.445312 160.652344 599.335938 160.683594 C 596.039062 160.792969 596.039062 155.480469 599.335938 155.578125 Z M 605.074219 166.742188 C 603.976562 168.300781 603.167969 168.585938 601.304688 168.828125 C 597.785156 169.277344 597.597656 163.042969 601.304688 163.214844 C 602.484375 163.265625 603.257812 163.453125 604.328125 163.910156 C 605.3125 164.328125 605.660156 165.902344 605.074219 166.742188 Z M 607.152344 176.140625 C 605.636719 178.019531 602.8125 177.65625 600.648438 177.617188 C 597.144531 177.550781 597.144531 172.25 600.648438 172.183594 C 602.8125 172.148438 605.636719 171.785156 607.152344 173.667969 C 607.796875 174.476562 607.796875 175.324219 607.152344 176.140625 Z M 615.765625 171.480469 C 617.253906 171.359375 618.332031 171.253906 619.597656 172.109375 C 620.191406 172.507812 620.652344 173.292969 620.378906 174.035156 C 619.570312 176.234375 617.976562 176.738281 615.765625 177 C 612.269531 177.40625 612.210938 171.769531 615.765625 171.480469 Z M 615.753906 162.269531 C 616.9375 162.101562 617.71875 162.046875 618.882812 162.300781 C 620.066406 162.558594 620.5 163.988281 619.96875 164.976562 C 619.222656 166.355469 618.609375 166.746094 617.097656 167.144531 C 613.867188 168.023438 612.609375 162.722656 615.753906 162.269531 Z M 617.324219 155.410156 C 618.410156 155.761719 619.210938 155.8125 620.167969 156.46875 C 621.140625 157.148438 621.175781 158.472656 620.167969 159.136719 C 618.832031 160.015625 617.710938 159.984375 616.1875 159.539062 C 613.539062 158.753906 614.699219 154.554688 617.324219 155.410156 Z M 629.546875 170.316406 C 630.238281 169.933594 630.855469 169.683594 631.617188 169.472656 C 632.636719 169.171875 634.054688 169.625 634.515625 170.644531 C 634.609375 170.847656 634.703125 171.046875 634.78125 171.253906 C 635.167969 172.34375 634.515625 173.585938 633.597656 174.160156 C 633.167969 174.453125 632.710938 174.691406 632.21875 174.886719 C 629.179688 176.269531 626.507812 171.980469 629.546875 170.316406 Z M 630.890625 161.707031 C 632.382812 161.589844 633.492188 161.296875 634.945312 161.820312 C 636.132812 162.257812 636.507812 163.582031 635.664062 164.554688 C 634.359375 166.054688 632.800781 166.324219 630.890625 166.402344 C 627.835938 166.511719 627.914062 161.949219 630.890625 161.707031 Z M 631.292969 154.707031 C 632.148438 154.542969 632.769531 154.414062 633.609375 154.660156 C 634.335938 154.863281 634.699219 155.457031 634.761719 156.164062 C 634.773438 156.316406 634.792969 156.464844 634.804688 156.617188 C 634.890625 157.578125 634.082031 158.414062 633.234375 158.679688 C 632.96875 158.761719 632.710938 158.84375 632.453125 158.925781 C 629.742188 159.773438 628.539062 155.261719 631.292969 154.707031 Z M 643.242188 152.039062 C 643.339844 152 643.445312 151.945312 643.535156 151.910156 C 645.234375 151.183594 647.746094 151.976562 647.589844 154.238281 C 647.582031 154.332031 647.578125 154.425781 647.570312 154.523438 C 647.414062 156.640625 645.222656 158.167969 643.242188 157.007812 C 641.554688 156.019531 641.191406 152.917969 643.242188 152.039062 Z M 649.722656 159.582031 C 651.109375 160.390625 651.109375 162.457031 649.722656 163.273438 C 649.011719 163.683594 648.527344 163.839844 647.699219 163.976562 C 643.429688 164.667969 643.429688 158.179688 647.699219 158.878906 C 648.527344 159.007812 649.011719 159.164062 649.722656 159.582031 Z M 652.339844 171.46875 C 650.835938 172.3125 649.386719 172.777344 647.652344 172.78125 C 644.371094 172.78125 644.542969 168.160156 647.652344 167.808594 C 648.855469 167.679688 650.054688 167.609375 651.269531 167.519531 C 653.414062 167.367188 654.097656 170.472656 652.339844 171.46875 Z M 654.222656 150.714844 C 654.445312 150.703125 654.660156 150.6875 654.882812 150.675781 C 657.726562 150.492188 657.726562 155.269531 654.882812 155.082031 C 654.660156 155.074219 654.445312 155.050781 654.222656 155.046875 C 651.445312 154.863281 651.445312 150.898438 654.222656 150.714844 Z M 660.753906 157.886719 C 662.238281 157.324219 665.332031 156.394531 665.964844 158.691406 C 666.648438 161.179688 664.09375 162.394531 662.15625 162.984375 C 658.84375 163.992188 657.613281 159.058594 660.753906 157.886719 Z M 668.710938 167.65625 C 667.851562 168.851562 666.917969 169.148438 665.839844 170.082031 C 663.425781 172.148438 659.917969 168.703125 662.324219 166.558594 C 663.90625 165.152344 665.417969 164.121094 667.550781 164.8125 C 668.648438 165.175781 669.472656 166.59375 668.710938 167.65625 Z M 572.417969 178.050781 C 571.300781 178.90625 568.5 178.875 568.5 178.875 C 567 178.875 567 175.511719 568.5 175.511719 C 570 175.511719 571.070312 175.488281 572.195312 176.339844 C 572.824219 176.824219 573.046875 177.570312 572.417969 178.050781 Z M 540.859375 181.3125 C 543.105469 182.554688 545.71875 183.351562 548.441406 183.816406 C 584.839844 189.992188 663.199219 177.40625 669.222656 174.304688 C 670.746094 173.527344 671.652344 172.359375 672.132812 171 C 673.195312 168.019531 672.214844 164.097656 671.25 161.25 C 669.695312 156.675781 667.945312 148.203125 662.078125 147.375 C 654.132812 146.273438 640.066406 147.035156 632.007812 146.996094 C 615.292969 146.902344 603.585938 147.773438 586.886719 148.546875 C 579.097656 148.898438 571.347656 149.703125 563.570312 150.195312 C 556.804688 150.617188 549.445312 149.808594 543.164062 152.835938 C 542.898438 152.960938 542.636719 153.09375 542.371094 153.234375 C 535.796875 156.804688 533.160156 164.847656 534.222656 172.015625 C 534.878906 176.46875 537.425781 179.414062 540.859375 181.3125 " fill-opacity="1" fill-rule="nonzero"/><path fill="#eeaa94" d="M 39.996094 240.523438 C 40.132812 237.667969 44.273438 237.679688 44.414062 240.523438 C 44.589844 243.980469 45.140625 248.238281 43.371094 251.367188 C 42.890625 252.210938 41.621094 252.199219 41.140625 251.367188 C 39.335938 248.261719 39.851562 243.980469 39.996094 240.523438 Z M 48.089844 240.054688 C 48.304688 237.769531 51.402344 237.785156 51.632812 240.054688 C 52.042969 244.050781 53.558594 249.992188 51.167969 253.542969 C 50.535156 254.480469 49.292969 254.46875 48.660156 253.542969 C 46.242188 250.015625 47.714844 244.042969 48.089844 240.054688 Z M 56.085938 246.386719 C 56.113281 243.328125 56.097656 240.316406 56.578125 237.292969 C 56.929688 235.097656 60.605469 235.113281 60.972656 237.289062 C 61.546875 240.703125 61.496094 244.15625 61.558594 247.617188 C 61.617188 250.535156 61.640625 253.132812 60.464844 255.839844 C 59.925781 257.058594 57.785156 257.046875 57.238281 255.839844 C 55.871094 252.773438 56.050781 249.675781 56.085938 246.386719 Z M 67.101562 237.84375 C 67.265625 234.316406 72.296875 234.363281 72.53125 237.84375 C 72.75 240.980469 72.972656 244.113281 73.089844 247.253906 C 73.175781 249.585938 73.09375 251.988281 71.707031 253.945312 C 70.957031 254.988281 69.679688 254.960938 68.921875 253.945312 C 67.246094 251.695312 67.269531 248.765625 67.160156 246.078125 C 67.042969 243.316406 66.976562 240.605469 67.101562 237.84375 Z M 82.347656 235.449219 C 82.914062 238.828125 83.332031 242.214844 83.589844 245.636719 C 83.828125 248.730469 84.128906 251.671875 82.570312 254.46875 C 81.871094 255.710938 80.019531 255.667969 79.3125 254.46875 C 77.71875 251.75 77.859375 248.703125 77.765625 245.636719 C 77.671875 242.449219 77.546875 239.28125 77.601562 236.097656 C 77.648438 233.457031 81.882812 232.683594 82.347656 235.449219 Z M 93.320312 237.539062 C 94.535156 240.691406 95.167969 243.785156 95.59375 247.121094 C 95.910156 249.480469 96.414062 252.476562 94.535156 254.28125 C 93.976562 254.808594 93.058594 254.988281 92.378906 254.554688 C 90.246094 253.171875 90.085938 250.496094 89.863281 248.140625 C 89.578125 245.027344 89.300781 241.871094 88.832031 238.789062 C 88.398438 235.828125 92.230469 234.714844 93.320312 237.539062 Z M 104.636719 237.3125 C 105.410156 240.292969 105.820312 243.269531 106.066406 246.339844 C 106.257812 248.785156 106.617188 251.460938 104.523438 253.183594 C 103.78125 253.804688 102.871094 254.011719 101.988281 253.511719 C 99.332031 252.046875 99.375 249.042969 99.222656 246.339844 C 99.0625 243.597656 98.992188 240.84375 98.671875 238.121094 C 98.265625 234.65625 103.796875 234.070312 104.636719 237.3125 Z M 110.359375 243.324219 C 110.371094 240.324219 110.476562 237.339844 111.015625 234.382812 C 111.484375 231.804688 115.675781 231.832031 116.171875 234.382812 C 116.8125 237.714844 116.898438 241.109375 116.917969 244.5 C 116.929688 246.972656 116.976562 249.980469 114.976562 251.703125 C 114.15625 252.417969 113.160156 252.40625 112.347656 251.703125 C 110.0625 249.761719 110.34375 246.082031 110.359375 243.324219 Z M 121.03125 235.03125 C 121.277344 231.46875 126.269531 231.488281 126.550781 235.03125 C 126.925781 239.753906 127.644531 246.03125 125.324219 250.347656 C 124.722656 251.460938 122.980469 251.449219 122.382812 250.347656 C 120.027344 246.054688 120.703125 239.753906 121.03125 235.03125 Z M 132.296875 235.40625 C 132.574219 233.28125 136.054688 232.261719 136.457031 234.84375 C 137.15625 239.363281 138.492188 245.589844 136.300781 249.820312 C 135.75 250.898438 134.085938 250.851562 133.515625 249.820312 C 131.34375 245.882812 131.734375 239.730469 132.296875 235.40625 Z M 145.933594 234.230469 C 147.003906 237.898438 150.144531 243.292969 147.050781 246.667969 C 146.460938 247.320312 145.445312 247.230469 144.84375 246.667969 C 143.347656 245.304688 142.980469 243.199219 142.429688 241.3125 C 141.882812 239.425781 141.238281 237.5625 140.746094 235.664062 C 139.867188 232.296875 144.964844 230.90625 145.933594 234.230469 Z M 48.402344 259.289062 C 79.582031 264.421875 146.589844 253.347656 151.726562 250.675781 C 155.886719 248.519531 154.632812 243.035156 153.414062 239.492188 C 152.066406 235.589844 150.53125 228.328125 145.511719 227.660156 C 138.707031 226.734375 126.671875 227.449219 119.78125 227.445312 C 105.472656 227.4375 95.453125 228.230469 81.164062 228.957031 C 74.5 229.296875 67.875 230.011719 61.214844 230.457031 C 55.433594 230.84375 49.121094 230.191406 43.757812 232.792969 C 43.542969 232.898438 43.3125 233.015625 43.089844 233.132812 C 37.476562 236.222656 35.257812 243.113281 36.1875 249.242188 C 37.144531 255.539062 42.511719 258.316406 48.402344 259.289062 " fill-opacity="1" fill-rule="nonzero"/><path fill="#eeaa94" d="M 51.980469 185.050781 C 64.675781 194.304688 78.636719 194.621094 93.585938 193.308594 C 106.921875 192.136719 122.195312 190.988281 134.277344 184.757812 C 142.125 180.722656 138.28125 172.734375 130.804688 171.761719 C 129.144531 171.539062 128.746094 173.714844 129.585938 174.703125 C 131.207031 176.636719 134.648438 178.171875 131.554688 180.105469 C 128.722656 181.863281 125.109375 182.601562 121.914062 183.417969 C 113.453125 185.597656 104.648438 186.59375 95.976562 187.453125 C 89.722656 188.074219 83.402344 188.609375 77.113281 188.503906 C 72.707031 188.445312 68.472656 187.207031 64.339844 185.824219 C 60.339844 184.484375 56.300781 182.152344 53.003906 179.542969 C 45.347656 173.515625 57.515625 168.59375 61.808594 167.15625 C 63.390625 166.625 62.734375 164.414062 61.128906 164.691406 C 49.324219 166.710938 38.632812 175.335938 51.980469 185.050781 " fill-opacity="1" fill-rule="nonzero"/><path fill="#eeaa94" d="M 173.695312 259.617188 C 143.40625 281.878906 98.472656 273.550781 63.121094 273.546875 C 42.632812 273.539062 11.574219 273.65625 3.375 296.660156 C 2.84375 298.167969 5.328125 299.222656 5.960938 297.746094 C 18.46875 268.59375 76.855469 279.292969 101.886719 279.960938 C 124.785156 280.578125 160.09375 283.007812 176.660156 263.46875 C 178.339844 261.488281 176.078125 257.867188 173.695312 259.617188 " fill-opacity="1" fill-rule="nonzero"/><path fill="#eeaa94" d="M 709.457031 256.792969 C 660.902344 263.058594 613.40625 267.558594 564.480469 269.785156 C 561.855469 269.90625 561.847656 273.757812 564.480469 273.855469 C 612.550781 275.636719 663.410156 274.171875 710.097656 261.539062 C 712.65625 260.847656 712.21875 256.4375 709.457031 256.792969 " fill-opacity="1" fill-rule="nonzero"/><path fill="#eeaa94" d="M 352.46875 256.792969 C 303.90625 263.058594 256.410156 267.558594 207.492188 269.785156 C 204.867188 269.90625 204.859375 273.757812 207.492188 273.855469 C 255.5625 275.636719 306.421875 274.179688 353.113281 261.539062 C 355.664062 260.847656 355.230469 256.4375 352.46875 256.792969 " fill-opacity="1" fill-rule="nonzero"/><path fill="#eeaa94" d="M 667.09375 206.566406 C 666 206.949219 664.476562 206.890625 664.011719 206.238281 C 663.574219 205.625 663.789062 204.152344 664.46875 203.730469 C 665.53125 203.070312 667.527344 203.800781 668.125 204.804688 C 668.605469 205.640625 667.992188 206.25 667.09375 206.566406 Z M 663.039062 196.988281 C 661.164062 197.796875 653.851562 203.457031 659.957031 210.304688 C 661.792969 212.367188 664.738281 213.09375 667.375 213.078125 C 669.484375 213.066406 672.121094 213.183594 674.03125 212.144531 C 677.753906 210.117188 677.582031 204.9375 676.394531 201.476562 C 676.101562 200.613281 675.507812 199.894531 674.753906 199.289062 C 673.113281 197.984375 670.722656 197.210938 669.023438 196.8125 C 667.242188 196.390625 664.773438 196.253906 663.039062 196.988281 " fill-opacity="1" fill-rule="nonzero"/><path fill="#eeaa94" d="M 325.445312 188.285156 C 341.6875 177.585938 353.25 163.320312 373.125 158.046875 C 392.089844 153.023438 413.289062 155.320312 432.65625 155.320312 C 469.527344 155.320312 493.292969 157.722656 517.703125 187.285156 C 519.644531 189.632812 522.789062 186.632812 521.660156 184.230469 C 507.679688 154.484375 478.324219 149.601562 448.441406 148.910156 C 425.816406 148.382812 402.597656 147.59375 380.226562 151.285156 C 354.554688 155.515625 344.285156 172.253906 324.496094 186.679688 C 323.546875 187.371094 324.421875 188.960938 325.445312 188.285156 " fill-opacity="1" fill-rule="nonzero"/><path fill="#eeaa94" d="M 481.75 226.582031 C 440.476562 221.0625 400.070312 231.246094 363.296875 249.429688 C 362.15625 249.992188 362.976562 251.988281 364.175781 251.507812 C 425.980469 226.660156 497.019531 222.152344 551.40625 263.996094 C 553.492188 265.59375 555.953125 262.59375 554.8125 260.597656 C 541.011719 236.472656 506.992188 229.953125 481.75 226.582031 " fill-opacity="1" fill-rule="nonzero"/><path fill="#eeaa94" d="M 697.527344 514.65625 C 691.207031 509.804688 677.441406 511.019531 670.792969 513.726562 C 668.273438 514.75 667.863281 518.378906 670.792969 519.246094 C 676.632812 520.980469 682.339844 519.945312 688.386719 520.152344 C 698.582031 520.492188 697.363281 535.5625 697.96875 543.011719 C 698.601562 550.957031 703.710938 576.9375 695.882812 581.917969 C 691.03125 584.992188 677.113281 588.179688 674.371094 580.722656 C 672.304688 575.101562 672.457031 568 671.800781 562.113281 C 670.335938 548.683594 668.957031 535.242188 667.242188 521.847656 C 666.8125 518.5 661.632812 518.304688 661.855469 521.839844 C 663.167969 542.136719 663.589844 562.617188 667.234375 582.679688 C 669.855469 597.175781 694.230469 593.589844 702.222656 586.808594 C 706.511719 583.175781 706.539062 578.601562 706.792969 573.246094 C 707.390625 560.839844 706.292969 548.238281 705.234375 535.886719 C 704.523438 527.601562 704.519531 520.019531 697.527344 514.65625 " fill-opacity="1" fill-rule="nonzero"/></svg>