<svg xmlns="http://www.w3.org/2000/svg" xmlns:xlink="http://www.w3.org/1999/xlink" width="1000" zoomAndPan="magnify" viewBox="0 0 750 749.999995" height="1000" preserveAspectRatio="xMidYMid meet" version="1.0"><defs><clipPath id="d9fa3b7607"><path d="M 120.859375 102 L 629.359375 102 L 629.359375 750 L 120.859375 750 Z M 120.859375 102 " clip-rule="nonzero"/></clipPath><clipPath id="3721a2e67f"><path d="M 211 299 L 582 299 L 582 492 L 211 492 Z M 211 299 " clip-rule="nonzero"/></clipPath><clipPath id="699dc66331"><path d="M 621.605469 660.777344 L 502.265625 390.410156 L 375.109375 102.484375 L 248.015625 390.410156 L 128.613281 660.777344 L 120.859375 678.335938 C 120.859375 717.816406 234.6875 749.851562 375.109375 749.851562 C 515.53125 749.851562 629.359375 717.816406 629.359375 678.335938 Z M 621.605469 660.777344 " clip-rule="nonzero"/></clipPath><clipPath id="b71f6cab80"><path d="M 276 171 L 629.359375 171 L 629.359375 365 L 276 365 Z M 276 171 " clip-rule="nonzero"/></clipPath><clipPath id="96c365105b"><path d="M 621.605469 660.777344 L 502.265625 390.410156 L 375.109375 102.484375 L 248.015625 390.410156 L 128.613281 660.777344 L 120.859375 678.335938 C 120.859375 717.816406 234.6875 749.851562 375.109375 749.851562 C 515.53125 749.851562 629.359375 717.816406 629.359375 678.335938 Z M 621.605469 660.777344 " clip-rule="nonzero"/></clipPath><clipPath id="d6a5e073b7"><path d="M 129 399 L 629.359375 399 L 629.359375 649 L 129 649 Z M 129 399 " clip-rule="nonzero"/></clipPath><clipPath id="35585801c2"><path d="M 621.605469 660.777344 L 502.265625 390.410156 L 375.109375 102.484375 L 248.015625 390.410156 L 128.613281 660.777344 L 120.859375 678.335938 C 120.859375 717.816406 234.6875 749.851562 375.109375 749.851562 C 515.53125 749.851562 629.359375 717.816406 629.359375 678.335938 Z M 621.605469 660.777344 " clip-rule="nonzero"/></clipPath><clipPath id="f6d6952413"><path d="M 120.859375 539 L 574 539 L 574 750 L 120.859375 750 Z M 120.859375 539 " clip-rule="nonzero"/></clipPath><clipPath id="ba48d753d2"><path d="M 621.605469 660.777344 L 502.265625 390.410156 L 375.109375 102.484375 L 248.015625 390.410156 L 128.613281 660.777344 L 120.859375 678.335938 C 120.859375 717.816406 234.6875 749.851562 375.109375 749.851562 C 515.53125 749.851562 629.359375 717.816406 629.359375 678.335938 Z M 621.605469 660.777344 " clip-rule="nonzero"/></clipPath><clipPath id="70b26fd57f"><path d="M 120.859375 102 L 629.359375 102 L 629.359375 750 L 120.859375 750 Z M 120.859375 102 " clip-rule="nonzero"/></clipPath><clipPath id="7f9e7000bb"><path d="M 211 299 L 582 299 L 582 492 L 211 492 Z M 211 299 " clip-rule="nonzero"/></clipPath><clipPath id="d8a87c4b72"><path d="M 621.605469 660.777344 L 502.265625 390.410156 L 375.109375 102.484375 L 248.015625 390.410156 L 128.613281 660.777344 L 120.859375 678.335938 C 120.859375 717.816406 234.6875 749.851562 375.109375 749.851562 C 515.53125 749.851562 629.359375 717.816406 629.359375 678.335938 Z M 621.605469 660.777344 " clip-rule="nonzero"/></clipPath><clipPath id="ac13745eeb"><path d="M 276 171 L 629.359375 171 L 629.359375 365 L 276 365 Z M 276 171 " clip-rule="nonzero"/></clipPath><clipPath id="0a62683c0e"><path d="M 621.605469 660.777344 L 502.265625 390.410156 L 375.109375 102.484375 L 248.015625 390.410156 L 128.613281 660.777344 L 120.859375 678.335938 C 120.859375 717.816406 234.6875 749.851562 375.109375 749.851562 C 515.53125 749.851562 629.359375 717.816406 629.359375 678.335938 Z M 621.605469 660.777344 " clip-rule="nonzero"/></clipPath><clipPath id="d74ea7e1dd"><path d="M 129 399 L 629.359375 399 L 629.359375 649 L 129 649 Z M 129 399 " clip-rule="nonzero"/></clipPath><clipPath id="7447f3d78a"><path d="M 621.605469 660.777344 L 502.265625 390.410156 L 375.109375 102.484375 L 248.015625 390.410156 L 128.613281 660.777344 L 120.859375 678.335938 C 120.859375 717.816406 234.6875 749.851562 375.109375 749.851562 C 515.53125 749.851562 629.359375 717.816406 629.359375 678.335938 Z M 621.605469 660.777344 " clip-rule="nonzero"/></clipPath><clipPath id="1ab4671750"><path d="M 120.859375 539 L 574 539 L 574 750 L 120.859375 750 Z M 120.859375 539 " clip-rule="nonzero"/></clipPath><clipPath id="75854ab11d"><path d="M 621.605469 660.777344 L 502.265625 390.410156 L 375.109375 102.484375 L 248.015625 390.410156 L 128.613281 660.777344 L 120.859375 678.335938 C 120.859375 717.816406 234.6875 749.851562 375.109375 749.851562 C 515.53125 749.851562 629.359375 717.816406 629.359375 678.335938 Z M 621.605469 660.777344 " clip-rule="nonzero"/></clipPath></defs><g clip-path="url(#d9fa3b7607)"><path fill="#d15b4d" d="M 621.605469 660.777344 L 502.265625 390.410156 L 375.109375 102.484375 L 248.015625 390.410156 L 128.613281 660.777344 L 120.859375 678.335938 C 120.859375 717.816406 234.6875 749.851562 375.109375 749.851562 C 515.53125 749.851562 629.359375 717.816406 629.359375 678.335938 Z M 621.605469 660.777344 " fill-opacity="1" fill-rule="nonzero"/></g><g clip-path="url(#3721a2e67f)"><g clip-path="url(#699dc66331)"><path fill="#f1bd5b" d="M 568.539062 491.835938 C 508.808594 491.835938 453.800781 484.265625 404.855469 469.308594 C 361.964844 456.230469 323.617188 437.398438 290.84375 413.480469 C 234.386719 372.246094 213.605469 330.222656 211.425781 325.558594 L 267.703125 299.277344 L 267.582031 299.035156 C 267.765625 299.398438 284.605469 333.066406 330.765625 365.765625 C 392.617188 409.484375 479.0625 431.585938 580.714844 429.710938 L 581.867188 491.714844 C 577.382812 491.835938 572.960938 491.835938 568.539062 491.835938 Z M 568.539062 491.835938 " fill-opacity="1" fill-rule="nonzero"/></g></g><g clip-path="url(#b71f6cab80)"><g clip-path="url(#96c365105b)"><path fill="#f1bd5b" d="M 633.238281 364.191406 C 573.507812 364.191406 518.5 356.621094 469.554688 341.664062 C 426.722656 328.585938 388.316406 309.753906 355.542969 285.835938 C 299.082031 244.601562 278.304688 202.578125 276.125 197.914062 L 332.402344 171.632812 L 332.28125 171.390625 C 332.460938 171.753906 349.304688 205.421875 395.464844 238.121094 C 457.253906 281.78125 543.703125 303.882812 645.351562 302.003906 L 646.503906 364.070312 C 642.082031 364.128906 637.597656 364.191406 633.238281 364.191406 Z M 633.238281 364.191406 " fill-opacity="1" fill-rule="nonzero"/></g></g><g clip-path="url(#d6a5e073b7)"><g clip-path="url(#35585801c2)"><path fill="#f1bd5b" d="M 611.792969 648.667969 C 530.496094 648.667969 455.742188 638.371094 389.285156 618.085938 C 331.371094 600.40625 279.578125 575.035156 235.355469 542.761719 C 158.480469 486.6875 130.613281 428.316406 129.460938 425.894531 L 185.742188 399.613281 L 185.679688 399.433594 C 185.921875 399.917969 209.730469 448.238281 275.335938 495.046875 C 362.875 557.476562 485.121094 589.082031 628.816406 586.417969 L 629.964844 648.484375 C 623.847656 648.605469 617.789062 648.667969 611.792969 648.667969 Z M 611.792969 648.667969 " fill-opacity="1" fill-rule="nonzero"/></g></g><g clip-path="url(#f6d6952413)"><g clip-path="url(#ba48d753d2)"><path fill="#f1bd5b" d="M 555.089844 788.238281 C 473.792969 788.238281 399.039062 777.945312 332.582031 757.660156 C 274.671875 739.980469 222.875 714.609375 178.652344 682.332031 C 101.777344 626.261719 73.910156 567.890625 72.761719 565.46875 L 129.039062 539.1875 L 128.976562 539.007812 C 129.21875 539.492188 153.027344 587.8125 218.632812 634.617188 C 306.171875 697.046875 428.417969 728.71875 572.113281 725.992188 L 573.265625 788.058594 C 567.207031 788.179688 561.148438 788.238281 555.089844 788.238281 Z M 555.089844 788.238281 " fill-opacity="1" fill-rule="nonzero"/></g></g><path fill="#f1bd5b" d="M 383.226562 103.9375 C 370.386719 105.632812 357.359375 106.238281 344.578125 106.175781 C 341.488281 106.175781 341.609375 106.175781 338.21875 105.996094 C 335.492188 105.875 332.703125 105.691406 329.980469 105.449219 C 324.828125 105.027344 319.742188 104.300781 314.773438 103.269531 C 307.140625 101.695312 298.113281 98.425781 293.390625 93.339844 C 287.753906 87.285156 287.9375 79.59375 291.148438 71.964844 C 291.390625 71.421875 291.632812 70.9375 291.875 70.390625 C 291.996094 70.210938 292.90625 68.636719 292.054688 69.96875 C 292.601562 69.121094 293.207031 68.332031 293.875 67.546875 C 292.421875 69.179688 293.449219 68.03125 293.8125 67.667969 C 295.085938 66.453125 291.996094 69 293.449219 67.910156 C 294.054688 67.484375 295.628906 66.636719 292.785156 68.273438 C 294.964844 67.058594 290.90625 69 292.480469 68.332031 C 293.085938 68.089844 294.78125 67.667969 291.933594 68.453125 C 292.359375 68.332031 292.84375 68.210938 293.269531 68.152344 C 294.964844 67.789062 291.328125 68.394531 293.027344 68.210938 C 293.511719 68.152344 293.996094 68.152344 294.480469 68.089844 C 294.964844 68.089844 295.449219 68.089844 295.992188 68.089844 C 294.117188 68.089844 295.871094 68.089844 296.238281 68.152344 C 297.507812 68.210938 298.71875 68.453125 299.992188 68.636719 C 304.839844 69.484375 308.835938 71.117188 313.621094 73.238281 C 319.015625 75.660156 324.042969 78.566406 328.886719 81.652344 C 339.003906 87.949219 348.335938 95.15625 357.238281 102.605469 C 361.660156 106.359375 365.839844 110.054688 370.023438 114.109375 C 372.6875 116.714844 377.777344 114.957031 380.988281 113.324219 C 382.863281 112.355469 389.890625 107.691406 387.347656 105.207031 C 372.019531 90.433594 354.816406 76.324219 335.1875 65.789062 C 326.101562 60.882812 315.863281 56.644531 304.535156 56.644531 C 291.875 56.644531 279.941406 64.515625 274.609375 74.449219 C 270.308594 82.5 269.398438 92.492188 274.1875 99.941406 C 278.730469 106.902344 287.390625 110.660156 295.933594 113.140625 C 314.652344 118.652344 336.460938 118.289062 356.574219 117.015625 C 362.449219 116.652344 368.324219 116.167969 374.203125 115.382812 C 378.804688 114.777344 383.652344 112.597656 386.4375 109.082031 C 388.679688 106.359375 387.347656 103.453125 383.226562 103.9375 Z M 383.226562 103.9375 " fill-opacity="1" fill-rule="nonzero"/><path fill="#f1bd5b" d="M 377.777344 102.121094 C 368.6875 92.855469 360.390625 82.863281 352.816406 72.691406 C 346.699219 64.457031 341.003906 55.859375 336.765625 46.835938 C 333.492188 39.933594 330.34375 31.578125 332.097656 24.1875 C 332.460938 22.675781 333.070312 21.28125 333.917969 19.949219 C 334.097656 19.648438 334.339844 19.285156 334.582031 18.980469 C 333.976562 19.828125 334.765625 18.800781 334.886719 18.679688 C 335.25 18.253906 337.550781 16.5 336.15625 17.46875 C 336.644531 17.105469 339.367188 15.710938 337.1875 16.800781 C 337.671875 16.558594 338.15625 16.378906 338.640625 16.195312 C 336.277344 17.164062 337.976562 16.4375 338.519531 16.257812 C 340.398438 15.652344 336.097656 16.863281 338.035156 16.378906 C 339.914062 15.953125 335.492188 16.742188 337.371094 16.5 C 339.125 16.257812 335.066406 16.621094 336.824219 16.558594 C 338.21875 16.5 334.824219 16.4375 336.945312 16.621094 C 338.460938 16.742188 335.492188 16.316406 336.945312 16.621094 C 337.371094 16.679688 337.734375 16.800781 338.15625 16.921875 C 338.582031 17.042969 338.945312 17.164062 339.308594 17.285156 C 338.21875 16.863281 339.429688 17.347656 339.609375 17.46875 C 341.308594 18.253906 342.699219 19.40625 344.035156 20.617188 C 346.941406 23.28125 348.820312 26.792969 350.394531 30.183594 C 354.695312 39.386719 356.511719 49.441406 357.84375 59.25 C 359.238281 69.605469 359.785156 80.019531 359.84375 90.433594 C 359.90625 96.003906 359.785156 101.574219 359.421875 107.085938 C 359.238281 110.234375 378.078125 107.992188 378.382812 102.785156 C 379.472656 83.710938 378.867188 64.273438 375.230469 45.382812 C 373.535156 36.480469 371.113281 27.15625 365.597656 19.34375 C 360.085938 11.535156 352.152344 8.566406 341.488281 9.535156 C 330.949219 10.503906 318.347656 15.347656 314.167969 24.128906 C 310.835938 31.152344 313.078125 39.570312 315.742188 46.472656 C 322.589844 64.214844 335.671875 80.320312 348.578125 95.277344 C 352.210938 99.515625 355.96875 103.695312 359.90625 107.75 C 363.238281 111.203125 381.289062 105.753906 377.777344 102.121094 Z M 377.777344 102.121094 " fill-opacity="1" fill-rule="nonzero"/><path fill="#f1bd5b" d="M 378.683594 110.960938 C 389.105469 103.210938 400.371094 96.1875 411.941406 89.769531 C 421.453125 84.5 430.359375 80.078125 440.476562 76.628906 C 442.777344 75.839844 445.078125 75.113281 447.441406 74.507812 C 445.5625 74.992188 448.957031 74.207031 449.5 74.085938 C 450.226562 73.902344 454.46875 73.238281 451.621094 73.660156 C 452.652344 73.539062 453.742188 73.417969 454.832031 73.359375 C 456.832031 73.238281 452.347656 73.417969 454.347656 73.417969 C 454.832031 73.417969 455.378906 73.417969 455.863281 73.417969 C 450.835938 73.359375 459.253906 73.902344 454.773438 73.296875 C 455.257812 73.359375 455.679688 73.417969 456.164062 73.539062 C 457.558594 73.78125 454.285156 72.996094 456.347656 73.601562 C 456.769531 73.722656 457.195312 73.84375 457.617188 74.023438 C 459.074219 74.507812 456.285156 73.480469 457.679688 74.085938 C 458.46875 74.449219 459.253906 74.871094 459.980469 75.296875 C 460.101562 75.355469 460.527344 75.660156 461.375 76.386719 C 462.164062 77.113281 462.890625 77.839844 463.496094 78.6875 C 465.917969 81.652344 467.25 85.226562 467.007812 88.675781 C 466.765625 91.464844 464.28125 94.429688 462.40625 95.761719 C 458.40625 98.667969 455.921875 99.457031 450.957031 100.96875 C 450.347656 101.152344 449.742188 101.332031 449.136719 101.515625 C 448.894531 101.574219 446.835938 102.121094 448.53125 101.695312 C 447.199219 102 445.867188 102.300781 444.535156 102.605469 C 441.445312 103.269531 438.355469 103.816406 435.203125 104.300781 C 432.722656 104.664062 437.023438 104.058594 434.476562 104.421875 C 433.691406 104.542969 432.964844 104.601562 432.175781 104.722656 C 430.660156 104.90625 429.085938 105.085938 427.511719 105.269531 C 424.117188 105.632812 420.664062 105.933594 417.273438 106.175781 C 415.699219 106.296875 414.121094 106.359375 412.488281 106.480469 C 411.699219 106.539062 410.914062 106.539062 410.125 106.601562 C 412.609375 106.480469 409.941406 106.601562 409.519531 106.601562 C 406.1875 106.722656 402.855469 106.84375 399.464844 106.902344 C 393.648438 107.023438 387.769531 107.023438 381.957031 106.902344 C 379.957031 106.84375 377.957031 106.84375 375.957031 106.78125 C 375.59375 106.78125 375.230469 106.78125 374.867188 106.722656 C 372.808594 106.660156 377.351562 106.84375 375.351562 106.722656 C 374.382812 106.660156 373.414062 106.660156 372.445312 106.601562 C 369.113281 106.417969 362.753906 106.117188 360.691406 108.839844 C 358.691406 111.445312 366.449219 112.535156 367.839844 112.597656 C 393.34375 113.867188 419.152344 113.445312 443.929688 109.808594 C 458.589844 107.691406 493.179688 101.636719 485.242188 82.5 C 476.761719 62.035156 445.199219 66.394531 428.054688 71.90625 C 407.945312 78.324219 389.890625 89.101562 373.109375 100.121094 C 369.171875 102.726562 365.296875 105.328125 361.601562 108.113281 C 358.570312 110.355469 362.996094 111.871094 365.476562 112.292969 C 369.171875 112.777344 375.714844 113.140625 378.683594 110.960938 Z M 378.683594 110.960938 " fill-opacity="1" fill-rule="nonzero"/><path fill="#f1bd5b" d="M 386.621094 105.691406 C 386.679688 95.339844 387.46875 84.921875 388.621094 74.570312 C 390.617188 56.707031 393.40625 37.933594 401.824219 21.28125 C 403.460938 18.074219 405.703125 14.5625 407.640625 12.441406 C 408.730469 11.230469 409.882812 10.140625 411.214844 9.171875 C 412.304688 8.324219 410.0625 9.960938 411.214844 9.171875 C 411.519531 8.929688 411.882812 8.75 412.183594 8.566406 C 412.667969 8.265625 414.003906 7.660156 411.761719 8.75 C 412.183594 8.507812 412.667969 8.324219 413.152344 8.144531 C 410.429688 9.234375 411.699219 8.6875 412.425781 8.445312 C 409.214844 9.414062 410.609375 8.929688 411.398438 8.75 C 408.125 9.476562 409.519531 9.050781 410.367188 8.992188 C 407.398438 9.355469 408.851562 9.113281 409.578125 9.113281 C 411.09375 9.050781 407.582031 9.050781 409.09375 9.113281 C 409.519531 9.113281 409.941406 9.171875 410.304688 9.234375 C 411.820312 9.414062 408.851562 8.929688 410.304688 9.234375 C 411.035156 9.355469 411.761719 9.535156 412.425781 9.71875 C 415.273438 10.445312 418.425781 12.441406 420.058594 14.984375 C 424.300781 21.828125 421.332031 30.667969 418.667969 37.511719 C 414.546875 47.988281 408.308594 57.855469 401.765625 67.300781 C 391.890625 81.59375 380.683594 95.21875 368.507812 108.175781 C 365.839844 111.023438 370.808594 111.566406 373.171875 111.445312 C 377.046875 111.265625 383.226562 110.234375 385.832031 107.449219 C 401.039062 91.222656 415.09375 73.84375 426.601562 55.554688 C 432.296875 46.535156 437.628906 36.964844 440.050781 26.855469 C 441.746094 19.828125 441.988281 11.714844 435.324219 6.386719 C 427.449219 0.148438 414.0625 1.058594 404.855469 4.085938 C 395.769531 7.113281 389.589844 12.867188 385.167969 20.070312 C 375.472656 35.816406 372.6875 54.890625 370.445312 72.269531 C 368.871094 84.742188 367.78125 97.335938 367.71875 109.929688 C 367.597656 113.324219 386.558594 110.839844 386.621094 105.691406 Z M 386.621094 105.691406 " fill-opacity="1" fill-rule="nonzero"/><path fill="#f1bd5b" d="M 373.050781 111.808594 C 385.832031 113.6875 398.554688 116.59375 410.851562 120.164062 C 413.820312 121.011719 413.699219 121.011719 416.910156 122.042969 C 419.515625 122.890625 422.121094 123.796875 424.664062 124.765625 C 429.511719 126.582031 434.234375 128.640625 438.71875 131.003906 C 445.625 134.578125 453.4375 140.207031 456.589844 146.382812 C 460.34375 153.710938 458.101562 161.097656 452.894531 167.578125 C 452.53125 168 452.167969 168.425781 451.742188 168.847656 C 451.5625 169.03125 450.226562 170.300781 451.441406 169.210938 C 450.710938 169.878906 449.863281 170.484375 449.015625 171.027344 C 450.832031 169.816406 449.5625 170.664062 449.078125 170.90625 C 447.503906 171.695312 451.199219 170.121094 449.5 170.726562 C 448.773438 170.96875 447.078125 171.390625 450.226562 170.605469 C 447.804688 171.210938 452.226562 170.421875 450.53125 170.605469 C 449.863281 170.664062 448.167969 170.664062 451.078125 170.664062 C 450.589844 170.664062 450.167969 170.605469 449.683594 170.605469 C 447.925781 170.484375 451.621094 170.90625 449.925781 170.605469 C 449.441406 170.542969 448.957031 170.421875 448.472656 170.300781 C 447.988281 170.179688 447.503906 170.058594 447.015625 169.9375 C 448.835938 170.421875 447.136719 169.9375 446.773438 169.816406 C 445.5625 169.394531 444.414062 168.847656 443.320312 168.304688 C 438.898438 166.183594 435.445312 163.519531 431.449219 160.128906 C 426.964844 156.316406 422.90625 152.136719 419.03125 147.898438 C 411.035156 139.058594 404.007812 129.671875 397.464844 120.042969 C 394.191406 115.261719 391.222656 110.539062 388.253906 105.511719 C 386.378906 102.300781 380.988281 102.605469 377.535156 103.332031 C 375.472656 103.753906 367.417969 106.296875 369.234375 109.386719 C 379.957031 127.734375 392.679688 146.019531 408.730469 161.523438 C 416.183594 168.726562 424.84375 175.570312 435.75 178.660156 C 447.925781 182.109375 461.554688 177.75 469.371094 169.636719 C 475.730469 163.035156 479.304688 153.652344 476.699219 145.234375 C 474.277344 137.300781 466.886719 131.367188 459.375 126.582031 C 442.898438 116.167969 421.757812 110.660156 402.066406 106.359375 C 396.3125 105.085938 390.496094 103.996094 384.683594 103.148438 C 380.078125 102.484375 374.808594 103.269531 371.234375 105.875 C 368.445312 108.054688 368.929688 111.203125 373.050781 111.808594 Z M 373.050781 111.808594 " fill-opacity="1" fill-rule="nonzero"/><path fill="#f1bd5b" d="M 360.632812 101.816406 C 356.390625 109.75 351.546875 117.378906 346.515625 124.828125 C 337.734375 137.726562 328.039062 150.984375 314.835938 160.371094 C 312.289062 162.1875 309.140625 163.945312 306.777344 164.792969 C 305.503906 165.277344 304.113281 165.640625 302.71875 165.882812 C 301.507812 166.0625 303.929688 165.761719 302.777344 165.882812 C 302.476562 165.941406 302.113281 165.941406 301.808594 165.941406 C 301.324219 165.941406 300.054688 165.941406 302.234375 166.003906 C 301.808594 166.003906 301.386719 165.941406 300.902344 165.882812 C 303.445312 166.125 302.234375 166.0625 301.628906 165.941406 C 304.476562 166.488281 303.203125 166.304688 302.535156 166.125 C 305.324219 166.910156 304.113281 166.609375 303.445312 166.367188 C 305.867188 167.273438 304.65625 166.910156 304.113281 166.609375 C 302.898438 166.003906 305.625 167.457031 304.476562 166.789062 C 304.171875 166.609375 303.871094 166.425781 303.566406 166.183594 C 302.476562 165.457031 304.597656 166.972656 303.566406 166.183594 C 303.082031 165.820312 302.597656 165.398438 302.113281 164.972656 C 300.234375 163.277344 298.597656 160.433594 298.417969 157.890625 C 297.933594 150.925781 303.808594 145.355469 308.65625 141.175781 C 316.046875 134.820312 324.828125 129.792969 333.734375 125.128906 C 347.0625 118.167969 361.238281 112.234375 375.777344 107.207031 C 378.988281 106.117188 375.414062 103.695312 373.476562 102.785156 C 370.445312 101.332031 365.296875 99.636719 362.144531 100.726562 C 343.910156 107.023438 326.101562 114.65625 309.867188 124.039062 C 301.808594 128.640625 293.875 133.851562 287.9375 140.570312 C 283.816406 145.292969 280.304688 151.410156 283.273438 158.132812 C 286.785156 166.125 297.449219 170.847656 305.746094 172.238281 C 313.925781 173.632812 321.011719 171.632812 327.3125 167.941406 C 341.125 159.828125 351 146.324219 359.722656 133.851562 C 366.023438 124.949219 371.898438 115.683594 377.046875 106.117188 C 378.261719 103.632812 362.691406 97.882812 360.632812 101.816406 Z M 360.632812 101.816406 " fill-opacity="1" fill-rule="nonzero"/><g clip-path="url(#70b26fd57f)"><path fill="#d15b4d" d="M 621.605469 660.777344 L 502.265625 390.410156 L 375.109375 102.484375 L 248.015625 390.410156 L 128.613281 660.777344 L 120.859375 678.335938 C 120.859375 717.816406 234.6875 749.851562 375.109375 749.851562 C 515.53125 749.851562 629.359375 717.816406 629.359375 678.335938 Z M 621.605469 660.777344 " fill-opacity="1" fill-rule="nonzero"/></g><g clip-path="url(#7f9e7000bb)"><g clip-path="url(#d8a87c4b72)"><path fill="#f1bd5b" d="M 568.539062 491.835938 C 508.808594 491.835938 453.800781 484.265625 404.855469 469.308594 C 361.964844 456.230469 323.617188 437.398438 290.84375 413.480469 C 234.386719 372.246094 213.605469 330.222656 211.425781 325.558594 L 267.703125 299.277344 L 267.582031 299.035156 C 267.765625 299.398438 284.605469 333.066406 330.765625 365.765625 C 392.617188 409.484375 479.0625 431.585938 580.714844 429.710938 L 581.867188 491.714844 C 577.382812 491.835938 572.960938 491.835938 568.539062 491.835938 Z M 568.539062 491.835938 " fill-opacity="1" fill-rule="nonzero"/></g></g><g clip-path="url(#ac13745eeb)"><g clip-path="url(#0a62683c0e)"><path fill="#f1bd5b" d="M 633.238281 364.191406 C 573.507812 364.191406 518.5 356.621094 469.554688 341.664062 C 426.722656 328.585938 388.316406 309.753906 355.542969 285.835938 C 299.082031 244.601562 278.304688 202.578125 276.125 197.914062 L 332.402344 171.632812 L 332.28125 171.390625 C 332.460938 171.753906 349.304688 205.421875 395.464844 238.121094 C 457.253906 281.78125 543.703125 303.882812 645.351562 302.003906 L 646.503906 364.070312 C 642.082031 364.128906 637.597656 364.191406 633.238281 364.191406 Z M 633.238281 364.191406 " fill-opacity="1" fill-rule="nonzero"/></g></g><g clip-path="url(#d74ea7e1dd)"><g clip-path="url(#7447f3d78a)"><path fill="#f1bd5b" d="M 611.792969 648.667969 C 530.496094 648.667969 455.742188 638.371094 389.285156 618.085938 C 331.371094 600.40625 279.578125 575.035156 235.355469 542.761719 C 158.480469 486.6875 130.613281 428.316406 129.460938 425.894531 L 185.742188 399.613281 L 185.679688 399.433594 C 185.921875 399.917969 209.730469 448.238281 275.335938 495.046875 C 362.875 557.476562 485.121094 589.082031 628.816406 586.417969 L 629.964844 648.484375 C 623.847656 648.605469 617.789062 648.667969 611.792969 648.667969 Z M 611.792969 648.667969 " fill-opacity="1" fill-rule="nonzero"/></g></g><g clip-path="url(#1ab4671750)"><g clip-path="url(#75854ab11d)"><path fill="#f1bd5b" d="M 555.089844 788.238281 C 473.792969 788.238281 399.039062 777.945312 332.582031 757.660156 C 274.671875 739.980469 222.875 714.609375 178.652344 682.332031 C 101.777344 626.261719 73.910156 567.890625 72.761719 565.46875 L 129.039062 539.1875 L 128.976562 539.007812 C 129.21875 539.492188 153.027344 587.8125 218.632812 634.617188 C 306.171875 697.046875 428.417969 728.71875 572.113281 725.992188 L 573.265625 788.058594 C 567.207031 788.179688 561.148438 788.238281 555.089844 788.238281 Z M 555.089844 788.238281 " fill-opacity="1" fill-rule="nonzero"/></g></g><path fill="#f1bd5b" d="M 383.226562 103.9375 C 370.386719 105.632812 357.359375 106.238281 344.578125 106.175781 C 341.488281 106.175781 341.609375 106.175781 338.21875 105.996094 C 335.492188 105.875 332.703125 105.691406 329.980469 105.449219 C 324.828125 105.027344 319.742188 104.300781 314.773438 103.269531 C 307.140625 101.695312 298.113281 98.425781 293.390625 93.339844 C 287.753906 87.285156 287.9375 79.59375 291.148438 71.964844 C 291.390625 71.421875 291.632812 70.9375 291.875 70.390625 C 291.996094 70.210938 292.90625 68.636719 292.054688 69.96875 C 292.601562 69.121094 293.207031 68.332031 293.875 67.546875 C 292.421875 69.179688 293.449219 68.03125 293.8125 67.667969 C 295.085938 66.453125 291.996094 69 293.449219 67.910156 C 294.054688 67.484375 295.628906 66.636719 292.785156 68.273438 C 294.964844 67.058594 290.90625 69 292.480469 68.332031 C 293.085938 68.089844 294.78125 67.667969 291.933594 68.453125 C 292.359375 68.332031 292.84375 68.210938 293.269531 68.152344 C 294.964844 67.789062 291.328125 68.394531 293.027344 68.210938 C 293.511719 68.152344 293.996094 68.152344 294.480469 68.089844 C 294.964844 68.089844 295.449219 68.089844 295.992188 68.089844 C 294.117188 68.089844 295.871094 68.089844 296.238281 68.152344 C 297.507812 68.210938 298.71875 68.453125 299.992188 68.636719 C 304.839844 69.484375 308.835938 71.117188 313.621094 73.238281 C 319.015625 75.660156 324.042969 78.566406 328.886719 81.652344 C 339.003906 87.949219 348.335938 95.15625 357.238281 102.605469 C 361.660156 106.359375 365.839844 110.054688 370.023438 114.109375 C 372.6875 116.714844 377.777344 114.957031 380.988281 113.324219 C 382.863281 112.355469 389.890625 107.691406 387.347656 105.207031 C 372.019531 90.433594 354.816406 76.324219 335.1875 65.789062 C 326.101562 60.882812 315.863281 56.644531 304.535156 56.644531 C 291.875 56.644531 279.941406 64.515625 274.609375 74.449219 C 270.308594 82.5 269.398438 92.492188 274.1875 99.941406 C 278.730469 106.902344 287.390625 110.660156 295.933594 113.140625 C 314.652344 118.652344 336.460938 118.289062 356.574219 117.015625 C 362.449219 116.652344 368.324219 116.167969 374.203125 115.382812 C 378.804688 114.777344 383.652344 112.597656 386.4375 109.082031 C 388.679688 106.359375 387.347656 103.453125 383.226562 103.9375 Z M 383.226562 103.9375 " fill-opacity="1" fill-rule="nonzero"/><path fill="#f1bd5b" d="M 377.777344 102.121094 C 368.6875 92.855469 360.390625 82.863281 352.816406 72.691406 C 346.699219 64.457031 341.003906 55.859375 336.765625 46.835938 C 333.492188 39.933594 330.34375 31.578125 332.097656 24.1875 C 332.460938 22.675781 333.070312 21.28125 333.917969 19.949219 C 334.097656 19.648438 334.339844 19.285156 334.582031 18.980469 C 333.976562 19.828125 334.765625 18.800781 334.886719 18.679688 C 335.25 18.253906 337.550781 16.5 336.15625 17.46875 C 336.644531 17.105469 339.367188 15.710938 337.1875 16.800781 C 337.671875 16.558594 338.15625 16.378906 338.640625 16.195312 C 336.277344 17.164062 337.976562 16.4375 338.519531 16.257812 C 340.398438 15.652344 336.097656 16.863281 338.035156 16.378906 C 339.914062 15.953125 335.492188 16.742188 337.371094 16.5 C 339.125 16.257812 335.066406 16.621094 336.824219 16.558594 C 338.21875 16.5 334.824219 16.4375 336.945312 16.621094 C 338.460938 16.742188 335.492188 16.316406 336.945312 16.621094 C 337.371094 16.679688 337.734375 16.800781 338.15625 16.921875 C 338.582031 17.042969 338.945312 17.164062 339.308594 17.285156 C 338.21875 16.863281 339.429688 17.347656 339.609375 17.46875 C 341.308594 18.253906 342.699219 19.40625 344.035156 20.617188 C 346.941406 23.28125 348.820312 26.792969 350.394531 30.183594 C 354.695312 39.386719 356.511719 49.441406 357.84375 59.25 C 359.238281 69.605469 359.785156 80.019531 359.84375 90.433594 C 359.90625 96.003906 359.785156 101.574219 359.421875 107.085938 C 359.238281 110.234375 378.078125 107.992188 378.382812 102.785156 C 379.472656 83.710938 378.867188 64.273438 375.230469 45.382812 C 373.535156 36.480469 371.113281 27.15625 365.597656 19.34375 C 360.085938 11.535156 352.152344 8.566406 341.488281 9.535156 C 330.949219 10.503906 318.347656 15.347656 314.167969 24.128906 C 310.835938 31.152344 313.078125 39.570312 315.742188 46.472656 C 322.589844 64.214844 335.671875 80.320312 348.578125 95.277344 C 352.210938 99.515625 355.96875 103.695312 359.90625 107.75 C 363.238281 111.203125 381.289062 105.753906 377.777344 102.121094 Z M 377.777344 102.121094 " fill-opacity="1" fill-rule="nonzero"/><path fill="#f1bd5b" d="M 378.683594 110.960938 C 389.105469 103.210938 400.371094 96.1875 411.941406 89.769531 C 421.453125 84.5 430.359375 80.078125 440.476562 76.628906 C 442.777344 75.839844 445.078125 75.113281 447.441406 74.507812 C 445.5625 74.992188 448.957031 74.207031 449.5 74.085938 C 450.226562 73.902344 454.46875 73.238281 451.621094 73.660156 C 452.652344 73.539062 453.742188 73.417969 454.832031 73.359375 C 456.832031 73.238281 452.347656 73.417969 454.347656 73.417969 C 454.832031 73.417969 455.378906 73.417969 455.863281 73.417969 C 450.835938 73.359375 459.253906 73.902344 454.773438 73.296875 C 455.257812 73.359375 455.679688 73.417969 456.164062 73.539062 C 457.558594 73.78125 454.285156 72.996094 456.347656 73.601562 C 456.769531 73.722656 457.195312 73.84375 457.617188 74.023438 C 459.074219 74.507812 456.285156 73.480469 457.679688 74.085938 C 458.46875 74.449219 459.253906 74.871094 459.980469 75.296875 C 460.101562 75.355469 460.527344 75.660156 461.375 76.386719 C 462.164062 77.113281 462.890625 77.839844 463.496094 78.6875 C 465.917969 81.652344 467.25 85.226562 467.007812 88.675781 C 466.765625 91.464844 464.28125 94.429688 462.40625 95.761719 C 458.40625 98.667969 455.921875 99.457031 450.957031 100.96875 C 450.347656 101.152344 449.742188 101.332031 449.136719 101.515625 C 448.894531 101.574219 446.835938 102.121094 448.53125 101.695312 C 447.199219 102 445.867188 102.300781 444.535156 102.605469 C 441.445312 103.269531 438.355469 103.816406 435.203125 104.300781 C 432.722656 104.664062 437.023438 104.058594 434.476562 104.421875 C 433.691406 104.542969 432.964844 104.601562 432.175781 104.722656 C 430.660156 104.90625 429.085938 105.085938 427.511719 105.269531 C 424.117188 105.632812 420.664062 105.933594 417.273438 106.175781 C 415.699219 106.296875 414.121094 106.359375 412.488281 106.480469 C 411.699219 106.539062 410.914062 106.539062 410.125 106.601562 C 412.609375 106.480469 409.941406 106.601562 409.519531 106.601562 C 406.1875 106.722656 402.855469 106.84375 399.464844 106.902344 C 393.648438 107.023438 387.769531 107.023438 381.957031 106.902344 C 379.957031 106.84375 377.957031 106.84375 375.957031 106.78125 C 375.59375 106.78125 375.230469 106.78125 374.867188 106.722656 C 372.808594 106.660156 377.351562 106.84375 375.351562 106.722656 C 374.382812 106.660156 373.414062 106.660156 372.445312 106.601562 C 369.113281 106.417969 362.753906 106.117188 360.691406 108.839844 C 358.691406 111.445312 366.449219 112.535156 367.839844 112.597656 C 393.34375 113.867188 419.152344 113.445312 443.929688 109.808594 C 458.589844 107.691406 493.179688 101.636719 485.242188 82.5 C 476.761719 62.035156 445.199219 66.394531 428.054688 71.90625 C 407.945312 78.324219 389.890625 89.101562 373.109375 100.121094 C 369.171875 102.726562 365.296875 105.328125 361.601562 108.113281 C 358.570312 110.355469 362.996094 111.871094 365.476562 112.292969 C 369.171875 112.777344 375.714844 113.140625 378.683594 110.960938 Z M 378.683594 110.960938 " fill-opacity="1" fill-rule="nonzero"/><path fill="#f1bd5b" d="M 386.621094 105.691406 C 386.679688 95.339844 387.46875 84.921875 388.621094 74.570312 C 390.617188 56.707031 393.40625 37.933594 401.824219 21.28125 C 403.460938 18.074219 405.703125 14.5625 407.640625 12.441406 C 408.730469 11.230469 409.882812 10.140625 411.214844 9.171875 C 412.304688 8.324219 410.0625 9.960938 411.214844 9.171875 C 411.519531 8.929688 411.882812 8.75 412.183594 8.566406 C 412.667969 8.265625 414.003906 7.660156 411.761719 8.75 C 412.183594 8.507812 412.667969 8.324219 413.152344 8.144531 C 410.429688 9.234375 411.699219 8.6875 412.425781 8.445312 C 409.214844 9.414062 410.609375 8.929688 411.398438 8.75 C 408.125 9.476562 409.519531 9.050781 410.367188 8.992188 C 407.398438 9.355469 408.851562 9.113281 409.578125 9.113281 C 411.09375 9.050781 407.582031 9.050781 409.09375 9.113281 C 409.519531 9.113281 409.941406 9.171875 410.304688 9.234375 C 411.820312 9.414062 408.851562 8.929688 410.304688 9.234375 C 411.035156 9.355469 411.761719 9.535156 412.425781 9.71875 C 415.273438 10.445312 418.425781 12.441406 420.058594 14.984375 C 424.300781 21.828125 421.332031 30.667969 418.667969 37.511719 C 414.546875 47.988281 408.308594 57.855469 401.765625 67.300781 C 391.890625 81.59375 380.683594 95.21875 368.507812 108.175781 C 365.839844 111.023438 370.808594 111.566406 373.171875 111.445312 C 377.046875 111.265625 383.226562 110.234375 385.832031 107.449219 C 401.039062 91.222656 415.09375 73.84375 426.601562 55.554688 C 432.296875 46.535156 437.628906 36.964844 440.050781 26.855469 C 441.746094 19.828125 441.988281 11.714844 435.324219 6.386719 C 427.449219 0.148438 414.0625 1.058594 404.855469 4.085938 C 395.769531 7.113281 389.589844 12.867188 385.167969 20.070312 C 375.472656 35.816406 372.6875 54.890625 370.445312 72.269531 C 368.871094 84.742188 367.78125 97.335938 367.71875 109.929688 C 367.597656 113.324219 386.558594 110.839844 386.621094 105.691406 Z M 386.621094 105.691406 " fill-opacity="1" fill-rule="nonzero"/><path fill="#f1bd5b" d="M 373.050781 111.808594 C 385.832031 113.6875 398.554688 116.59375 410.851562 120.164062 C 413.820312 121.011719 413.699219 121.011719 416.910156 122.042969 C 419.515625 122.890625 422.121094 123.796875 424.664062 124.765625 C 429.511719 126.582031 434.234375 128.640625 438.71875 131.003906 C 445.625 134.578125 453.4375 140.207031 456.589844 146.382812 C 460.34375 153.710938 458.101562 161.097656 452.894531 167.578125 C 452.53125 168 452.167969 168.425781 451.742188 168.847656 C 451.5625 169.03125 450.226562 170.300781 451.441406 169.210938 C 450.710938 169.878906 449.863281 170.484375 449.015625 171.027344 C 450.832031 169.816406 449.5625 170.664062 449.078125 170.90625 C 447.503906 171.695312 451.199219 170.121094 449.5 170.726562 C 448.773438 170.96875 447.078125 171.390625 450.226562 170.605469 C 447.804688 171.210938 452.226562 170.421875 450.53125 170.605469 C 449.863281 170.664062 448.167969 170.664062 451.078125 170.664062 C 450.589844 170.664062 450.167969 170.605469 449.683594 170.605469 C 447.925781 170.484375 451.621094 170.90625 449.925781 170.605469 C 449.441406 170.542969 448.957031 170.421875 448.472656 170.300781 C 447.988281 170.179688 447.503906 170.058594 447.015625 169.9375 C 448.835938 170.421875 447.136719 169.9375 446.773438 169.816406 C 445.5625 169.394531 444.414062 168.847656 443.320312 168.304688 C 438.898438 166.183594 435.445312 163.519531 431.449219 160.128906 C 426.964844 156.316406 422.90625 152.136719 419.03125 147.898438 C 411.035156 139.058594 404.007812 129.671875 397.464844 120.042969 C 394.191406 115.261719 391.222656 110.539062 388.253906 105.511719 C 386.378906 102.300781 380.988281 102.605469 377.535156 103.332031 C 375.472656 103.753906 367.417969 106.296875 369.234375 109.386719 C 379.957031 127.734375 392.679688 146.019531 408.730469 161.523438 C 416.183594 168.726562 424.84375 175.570312 435.75 178.660156 C 447.925781 182.109375 461.554688 177.75 469.371094 169.636719 C 475.730469 163.035156 479.304688 153.652344 476.699219 145.234375 C 474.277344 137.300781 466.886719 131.367188 459.375 126.582031 C 442.898438 116.167969 421.757812 110.660156 402.066406 106.359375 C 396.3125 105.085938 390.496094 103.996094 384.683594 103.148438 C 380.078125 102.484375 374.808594 103.269531 371.234375 105.875 C 368.445312 108.054688 368.929688 111.203125 373.050781 111.808594 Z M 373.050781 111.808594 " fill-opacity="1" fill-rule="nonzero"/><path fill="#f1bd5b" d="M 360.632812 101.816406 C 356.390625 109.75 351.546875 117.378906 346.515625 124.828125 C 337.734375 137.726562 328.039062 150.984375 314.835938 160.371094 C 312.289062 162.1875 309.140625 163.945312 306.777344 164.792969 C 305.503906 165.277344 304.113281 165.640625 302.71875 165.882812 C 301.507812 166.0625 303.929688 165.761719 302.777344 165.882812 C 302.476562 165.941406 302.113281 165.941406 301.808594 165.941406 C 301.324219 165.941406 300.054688 165.941406 302.234375 166.003906 C 301.808594 166.003906 301.386719 165.941406 300.902344 165.882812 C 303.445312 166.125 302.234375 166.0625 301.628906 165.941406 C 304.476562 166.488281 303.203125 166.304688 302.535156 166.125 C 305.324219 166.910156 304.113281 166.609375 303.445312 166.367188 C 305.867188 167.273438 304.65625 166.910156 304.113281 166.609375 C 302.898438 166.003906 305.625 167.457031 304.476562 166.789062 C 304.171875 166.609375 303.871094 166.425781 303.566406 166.183594 C 302.476562 165.457031 304.597656 166.972656 303.566406 166.183594 C 303.082031 165.820312 302.597656 165.398438 302.113281 164.972656 C 300.234375 163.277344 298.597656 160.433594 298.417969 157.890625 C 297.933594 150.925781 303.808594 145.355469 308.65625 141.175781 C 316.046875 134.820312 324.828125 129.792969 333.734375 125.128906 C 347.0625 118.167969 361.238281 112.234375 375.777344 107.207031 C 378.988281 106.117188 375.414062 103.695312 373.476562 102.785156 C 370.445312 101.332031 365.296875 99.636719 362.144531 100.726562 C 343.910156 107.023438 326.101562 114.65625 309.867188 124.039062 C 301.808594 128.640625 293.875 133.851562 287.9375 140.570312 C 283.816406 145.292969 280.304688 151.410156 283.273438 158.132812 C 286.785156 166.125 297.449219 170.847656 305.746094 172.238281 C 313.925781 173.632812 321.011719 171.632812 327.3125 167.941406 C 341.125 159.828125 351 146.324219 359.722656 133.851562 C 366.023438 124.949219 371.898438 115.683594 377.046875 106.117188 C 378.261719 103.632812 362.691406 97.882812 360.632812 101.816406 Z M 360.632812 101.816406 " fill-opacity="1" fill-rule="nonzero"/></svg>