<svg xmlns="http://www.w3.org/2000/svg" xmlns:xlink="http://www.w3.org/1999/xlink" width="1000" zoomAndPan="magnify" viewBox="0 0 750 749.999995" height="1000" preserveAspectRatio="xMidYMid meet" version="1.0"><defs><clipPath id="6ece71c830"><path d="M 47.046875 227 L 473 227 L 473 519 L 47.046875 519 Z M 47.046875 227 " clip-rule="nonzero"/></clipPath><clipPath id="3fd62d2c54"><path d="M 47.046875 227 L 473 227 L 473 519 L 47.046875 519 Z M 47.046875 227 " clip-rule="nonzero"/></clipPath></defs><path fill="#ff172e" d="M 49.246094 299.648438 C 49.144531 298.074219 50.101562 297.191406 51.796875 295.78125 C 52.785156 294.960938 53.683594 294.628906 54.835938 294.628906 C 55.617188 294.628906 56.515625 294.78125 57.699219 295.09375 C 62.117188 296.277344 66.554688 297.445312 70.972656 298.613281 C 81.207031 301.308594 91.785156 304.09375 102.121094 307.042969 C 110.019531 309.289062 118.078125 311.433594 125.886719 313.484375 L 132.539062 315.25 C 141.601562 317.660156 150.695312 319.996094 159.777344 322.332031 L 165.90625 323.90625 C 172.167969 325.507812 178.640625 327.171875 184.902344 329.085938 C 185.816406 329.371094 186.746094 329.609375 187.675781 329.867188 C 189.742188 330.40625 191.691406 330.914062 193.457031 331.84375 C 194.910156 332.605469 195.71875 333.757812 195.992188 335.464844 C 195.898438 338.519531 194.265625 340.332031 191.601562 340.332031 C 191.046875 340.332031 190.445312 340.257812 189.847656 340.09375 L 187.421875 339.464844 C 172.855469 335.707031 157.800781 331.8125 143.101562 327.621094 C 138.082031 326.183594 132.941406 324.925781 127.984375 323.710938 C 124.191406 322.78125 120.417969 321.855469 116.65625 320.835938 C 110.871094 319.277344 105.105469 317.660156 99.335938 316.042969 C 94.226562 314.605469 89.101562 313.167969 83.976562 311.792969 C 77.460938 310.023438 70.941406 308.332031 64.410156 306.640625 L 54.582031 304.078125 L 53.800781 303.882812 C 53.128906 303.71875 52.5 303.570312 52.035156 303.332031 C 50.160156 302.355469 49.351562 301.292969 49.246094 299.648438 Z M 114.4375 238.191406 C 117.105469 240.105469 119.742188 242.054688 122.378906 244 L 125.390625 246.214844 C 129.375 249.136719 133.363281 252.042969 137.363281 254.960938 C 146.5625 261.65625 156.074219 268.574219 165.273438 275.597656 C 169.035156 278.472656 172.855469 281.257812 176.675781 284.027344 C 182.699219 288.414062 188.933594 292.9375 194.804688 297.773438 C 197.324219 299.839844 200.261719 301.667969 203.511719 303.210938 C 204.304688 303.585938 205.023438 303.78125 205.652344 303.78125 C 206.328125 303.78125 207.347656 303.585938 208.574219 301.90625 C 209.835938 300.171875 209.488281 297.128906 207.886719 295.769531 C 200.546875 289.554688 192.558594 283.90625 185.652344 279.117188 C 179.148438 274.59375 172.796875 269.757812 166.863281 265.1875 C 163.148438 262.328125 159.238281 259.558594 155.460938 256.863281 C 150.050781 253.015625 144.464844 249.046875 139.234375 244.703125 C 136.71875 242.605469 133.960938 240.644531 131.292969 238.742188 C 128.148438 236.496094 124.882812 234.160156 121.871094 231.539062 C 119.699219 229.652344 118.707031 229.472656 118.515625 229.472656 C 116.371094 229.488281 112.671875 232.273438 112.296875 233.324219 C 111.742188 234.984375 111.90625 236.378906 114.4375 238.191406 Z M 699.730469 383.535156 C 698.980469 382.351562 697.570312 381.542969 695.742188 381.246094 L 693.738281 380.914062 L 693.8125 380.480469 C 694.558594 380.046875 695.324219 379.65625 696.089844 379.222656 C 696.207031 378.445312 696.476562 377.664062 696.433594 376.902344 C 696 367.871094 695.28125 358.855469 695.113281 349.828125 C 694.921875 338.851562 693.046875 328.023438 692.746094 317.078125 C 692.582031 311.371094 691.25 305.847656 691.039062 300.15625 C 690.84375 294.71875 690.648438 289.195312 689.585938 283.894531 C 688.3125 277.589844 687.714844 271.148438 687.21875 264.875 C 686.605469 257.238281 685.390625 249.707031 684.476562 242.144531 C 683.804688 236.558594 682.785156 230.925781 682.035156 225.355469 C 680.835938 216.3125 679.863281 207.175781 677.644531 198.402344 C 675.171875 188.609375 674.976562 178.546875 672.582031 168.738281 C 670.753906 161.265625 669.300781 153.582031 668.027344 145.929688 C 666.753906 138.246094 664.128906 130.789062 662.675781 123.183594 C 661.222656 115.589844 659.066406 108.191406 657.597656 100.617188 C 655.800781 91.332031 653.402344 82.167969 651.15625 72.988281 C 649.714844 67.070312 647.5 61.457031 643.738281 56.574219 C 637.863281 48.953125 629.476562 45.164062 620.890625 41.855469 C 610.6875 37.929688 600.363281 34.261719 589.859375 31.207031 C 586.535156 30.234375 583.207031 29.109375 579.804688 28.527344 C 575.058594 27.71875 570.324219 26.476562 565.933594 24.886719 C 560.507812 22.941406 554.859375 22.746094 549.421875 21.234375 C 543.367188 19.558594 537.03125 18.390625 530.632812 17.746094 C 521.65625 16.863281 513.042969 13.746094 504.007812 12.804688 C 496.757812 12.054688 489.578125 10.40625 482.371094 9.195312 C 470.3125 7.171875 458.160156 6.167969 446.070312 4.566406 C 439.433594 3.683594 432.765625 3.355469 426.128906 2.710938 C 421.976562 2.304688 417.707031 1.378906 413.707031 1.542969 C 406.484375 1.839844 399.324219 1.257812 392.191406 0.914062 C 378.375 0.253906 364.609375 0.253906 350.792969 0.734375 C 346.195312 0.898438 341.714844 1.765625 337.082031 1.75 C 331.253906 1.738281 325.425781 2.710938 319.644531 3.773438 C 315.34375 4.566406 310.96875 5.0625 306.609375 5.421875 C 300.886719 5.886719 295.175781 6.875 290.246094 9.703125 C 282.832031 13.972656 276.015625 19.300781 268.566406 23.523438 C 263.742188 26.265625 259.351562 29.621094 254.574219 32.421875 C 246.347656 37.242188 238.632812 42.917969 230.644531 48.144531 C 221.101562 54.386719 211.183594 60.0625 202.074219 66.953125 C 200.246094 68.332031 198.910156 69.949219 199.660156 72.195312 C 200.410156 74.441406 200.558594 76.714844 200.996094 78.976562 C 204.304688 96.078125 207.617188 113.179688 210.929688 130.28125 C 213.910156 145.675781 216.996094 161.054688 219.949219 176.464844 C 222.480469 189.730469 225.070312 202.984375 227.707031 216.222656 C 231.066406 233.039062 234.152344 249.898438 237.492188 266.71875 C 240.5625 282.171875 243.890625 297.550781 246.617188 313.078125 C 248.671875 324.757812 251.53125 336.273438 253.6875 347.941406 C 254.0625 349.933594 255.425781 352.3125 253.046875 354.621094 C 243.769531 363.527344 234.734375 372.695312 225.597656 381.753906 C 216.726562 390.542969 207.40625 398.871094 198.71875 407.855469 C 187.644531 419.296875 176.199219 430.378906 164.824219 441.546875 C 153.648438 452.523438 142.367188 463.398438 131.175781 474.359375 C 120.835938 484.480469 110.558594 494.679688 100.21875 504.800781 C 84.519531 520.152344 68.726562 535.410156 53.113281 550.863281 C 49.847656 554.097656 48.152344 558.066406 50.476562 562.890625 C 54.117188 570.464844 57.082031 578.328125 59.960938 586.21875 C 64.351562 598.320312 69.011719 610.328125 73.460938 622.414062 C 77.984375 634.695312 82.78125 646.867188 87.410156 659.117188 C 88.984375 663.265625 89.851562 668.074219 94.601562 670.09375 C 98.226562 671.636719 101.644531 673.671875 105.253906 675.171875 C 121.03125 681.730469 136.835938 688.230469 152.808594 694.292969 C 169.980469 700.808594 187.40625 706.589844 204.890625 712.203125 C 221.25 717.460938 237.746094 722.28125 254.394531 726.386719 C 274.335938 731.296875 294.488281 735.371094 314.804688 738.632812 C 330.972656 741.238281 347.183594 742.976562 363.542969 743.5625 C 367.199219 743.695312 370.898438 743.832031 374.554688 744.234375 C 379.753906 744.820312 384.878906 745.808594 390.183594 745.777344 C 397.074219 745.71875 403.984375 746.824219 410.890625 746.78125 C 417.0625 746.734375 423.25 746.015625 429.453125 746.210938 C 429.199219 745.539062 428.988281 744.832031 428.734375 744.160156 C 428.988281 744.160156 429.257812 744.160156 429.511719 744.175781 L 430.425781 744.203125 L 431.011719 744.894531 C 431.878906 745.910156 433.304688 747.140625 435.132812 747.140625 C 435.613281 747.140625 436.089844 747.050781 436.585938 746.886719 C 438.171875 746.332031 439.148438 744.789062 439.191406 742.753906 L 439.238281 742.304688 L 439.714844 740.941406 L 440.167969 740.582031 C 440.390625 740.402344 440.601562 740.207031 440.824219 740.027344 C 441.019531 740.714844 441.230469 741.40625 441.425781 742.09375 C 441.441406 742.09375 441.453125 742.09375 441.46875 742.09375 C 441.453125 742.125 441.453125 742.136719 441.441406 742.167969 C 451.597656 733.945312 460.601562 724.496094 470.027344 715.5 C 476.902344 708.925781 483.375 701.945312 490.089844 695.222656 C 497.714844 687.585938 505.445312 680.023438 513.085938 672.402344 C 523.695312 661.828125 534.078125 651.015625 544.910156 640.683594 C 559.085938 627.148438 572.703125 613.054688 586.683594 599.324219 C 605.1875 581.113281 623.601562 562.828125 642 544.515625 C 644.367188 542.164062 646.105469 539.648438 645.703125 535.695312 C 645.148438 530.304688 645.207031 524.824219 644.710938 519.386719 C 643.648438 507.738281 642.972656 496.042969 641.804688 484.40625 C 640.773438 474.074219 639.664062 463.742188 639.125 453.363281 C 638.449219 453.527344 637.773438 453.691406 637.101562 453.871094 C 637.101562 453.738281 637.085938 453.601562 637.070312 453.484375 L 636.996094 452.046875 L 638.316406 451.492188 C 652.96875 445.320312 664.789062 437.667969 674.484375 428.101562 C 687.488281 415.253906 695.863281 401.925781 700.117188 387.382812 C 700.507812 385.886719 700.390625 384.582031 699.730469 383.535156 Z M 190.222656 364.609375 C 189.652344 364.609375 189.039062 364.683594 188.394531 364.847656 C 184.078125 365.941406 179.777344 367.167969 175.777344 368.320312 C 166.640625 370.988281 157.515625 373.667969 148.390625 376.347656 L 123.636719 383.609375 C 114.691406 386.230469 105.75 388.835938 96.832031 391.503906 C 94.992188 392.054688 93.132812 392.519531 91.273438 393 C 86.945312 394.109375 82.855469 395.15625 79.035156 397.101562 C 76.410156 398.4375 74.839844 400.636719 75.214844 402.480469 C 75.527344 403.976562 77.609375 405.59375 80.457031 405.652344 L 81.386719 405.445312 C 82.34375 405.234375 83.484375 404.996094 84.59375 404.636719 C 93.65625 401.761719 102.917969 399.066406 111.875 396.445312 L 112.894531 396.144531 C 117.898438 394.691406 122.890625 393.195312 127.878906 391.710938 C 134.949219 389.601562 142.007812 387.503906 149.09375 385.480469 L 157.992188 382.964844 C 163.476562 381.425781 168.976562 379.867188 174.445312 378.28125 C 179.210938 376.902344 184.84375 375.238281 190.582031 373.351562 C 191.808594 372.949219 192.949219 371.960938 193.546875 370.746094 C 194.164062 369.503906 194.222656 368.125 193.710938 366.644531 C 193.261719 365.355469 191.988281 364.609375 190.222656 364.609375 Z M 440.976562 741.988281 C 441.035156 742.242188 441.109375 742.496094 441.171875 742.753906 C 441.246094 742.542969 441.320312 742.332031 441.394531 742.125 C 441.378906 742.09375 441.378906 742.0625 441.363281 742.035156 C 441.246094 742.019531 441.109375 742.003906 440.976562 741.988281 Z M 440.976562 741.988281 " fill-opacity="1" fill-rule="nonzero"/><path fill="#8b0b01" d="M 603.417969 393.042969 C 605.039062 398.539062 605.097656 404.289062 605.742188 409.90625 C 606.625 417.753906 608.632812 425.449219 609.023438 433.371094 C 609.21875 437.265625 607.914062 439.929688 604.769531 442.597656 C 598.027344 448.300781 591.835938 454.652344 585.515625 460.835938 C 577.679688 468.488281 569.960938 476.273438 562.140625 483.925781 C 553.976562 491.910156 545.734375 499.800781 537.539062 507.738281 C 526.585938 518.355469 515.648438 528.988281 504.742188 539.648438 C 490.164062 553.90625 475.675781 568.234375 461.082031 582.476562 C 444.914062 598.246094 428.660156 613.953125 412.476562 629.707031 C 410.484375 631.640625 408.402344 633.554688 406.769531 635.773438 C 404.941406 638.257812 402.617188 638.707031 399.980469 638.152344 C 390.09375 636.070312 380.21875 633.871094 370.332031 631.757812 C 359.421875 629.4375 348.484375 627.191406 337.578125 624.914062 C 337.128906 621.171875 335.691406 618.25 331.570312 617.441406 C 324.886719 616.109375 318.207031 614.761719 311.539062 613.382812 C 310.804688 613.234375 310.011719 613.144531 309.621094 613.773438 C 308.316406 615.871094 305.695312 616.15625 304.195312 617.953125 C 297.542969 616.53125 290.90625 615.105469 284.253906 613.683594 C 285.152344 608.578125 284.015625 606.722656 278.859375 605.433594 C 272.433594 603.816406 265.855469 602.691406 259.515625 600.761719 C 246.828125 596.867188 233.808594 594.320312 220.996094 590.90625 C 206.222656 586.96875 191.332031 583.539062 176.496094 579.855469 C 167.6875 577.667969 158.921875 575.347656 150.113281 573.207031 C 137.917969 570.226562 125.644531 567.5 113.480469 564.402344 C 100.519531 561.09375 87.605469 557.679688 74.539062 554.832031 C 79.214844 550.144531 83.859375 545.414062 88.578125 540.773438 C 98.660156 530.875 108.609375 520.824219 118.933594 511.226562 C 125.269531 505.324219 131.445312 499.1875 137.765625 493.257812 C 144.855469 486.609375 151.535156 479.449219 158.699219 472.859375 C 164.496094 467.515625 170.085938 461.929688 175.792969 456.507812 C 183.164062 449.484375 190.792969 442.65625 197.59375 435.035156 C 198.207031 434.34375 198.910156 433.714844 199.660156 433.175781 C 204.828125 429.417969 208.425781 423.996094 213.25 419.96875 C 218.328125 415.730469 221.894531 409.921875 227.859375 406.625 C 229.582031 405.667969 230.691406 403.601562 232.082031 402.042969 C 237.179688 396.324219 243.246094 391.636719 248.683594 386.292969 C 254.320312 380.765625 259.832031 375.121094 265.421875 369.550781 C 266.078125 368.890625 266.828125 368.351562 267.535156 367.753906 C 278.832031 371.015625 290.515625 372.289062 302.023438 374.402344 C 305.917969 375.105469 309.199219 372.125 309.90625 368.335938 C 310.382812 365.730469 308.0625 362.40625 304.902344 361.777344 C 294.546875 359.710938 284.148438 357.808594 273.78125 355.832031 C 272.328125 346.160156 269.78125 336.710938 267.847656 327.140625 C 263.773438 306.984375 259.96875 286.785156 255.414062 266.730469 C 251.816406 250.976562 249.238281 235.015625 245.570312 219.292969 C 243.214844 209.226562 241.734375 198.984375 239.277344 188.96875 C 238.09375 184.160156 236.398438 179.25 235.890625 174.488281 C 235.125 167.269531 233.101562 160.410156 231.738281 153.386719 C 229.027344 139.386719 225.730469 125.503906 223.078125 111.503906 C 221.519531 103.265625 219.601562 95.121094 217.925781 86.914062 C 216.5 79.980469 218.121094 76.191406 223.484375 73.332031 C 226.808594 71.550781 230.136719 73.332031 233.402344 73.617188 C 244.847656 74.605469 256.175781 76.746094 267.667969 77.703125 C 276.671875 78.4375 285.574219 80.28125 294.5625 81.179688 C 305.425781 82.257812 316.226562 83.84375 327.074219 85.148438 C 335.960938 86.226562 344.859375 87.183594 353.746094 88.261719 C 362.628906 89.339844 371.515625 90.492188 380.398438 91.585938 C 388.59375 92.605469 396.804688 93.609375 405 94.582031 C 418.394531 96.183594 431.789062 97.695312 445.183594 99.34375 C 459.164062 101.066406 473.097656 103.25 487.121094 104.585938 C 496.847656 105.511719 506.480469 107.054688 516.203125 107.953125 C 525.671875 108.835938 535.128906 110.257812 544.582031 111.53125 C 548.042969 111.996094 551.535156 112.265625 555.007812 112.625 C 554.90625 117.433594 556 119.183594 559.820312 120.636719 C 562.320312 121.59375 564.179688 119.769531 566.367188 119.320312 C 568.121094 125.023438 568.058594 131 568.945312 136.824219 C 570.953125 149.914062 572.570312 163.046875 574.1875 176.195312 C 574.683594 180.222656 575.699219 184.207031 575.386719 188.324219 C 574.292969 189.207031 573.289062 190.210938 572.105469 190.929688 C 569.421875 192.546875 568.734375 194.914062 569.078125 197.816406 C 569.78125 203.808594 570.621094 209.78125 571.3125 215.789062 C 573.109375 231.464844 575.445312 247.085938 577.527344 262.71875 C 579.867188 280.195312 582.160156 297.683594 584.464844 315.175781 C 586.546875 330.960938 588.617188 346.757812 590.714844 362.539062 C 591.644531 369.550781 592.929688 376.542969 593.5 383.582031 C 594.070312 391.066406 596.019531 393.238281 603.417969 393.042969 Z M 382.570312 396.445312 C 382.632812 395.769531 382.570312 395.050781 382.78125 394.421875 C 389.417969 374.671875 396.085938 354.933594 402.722656 335.183594 C 408.492188 318.019531 414.199219 300.84375 419.96875 283.683594 C 420.402344 282.378906 420.402344 281.511719 419.296875 280.328125 C 415.414062 276.164062 411.832031 271.734375 408.042969 267.496094 C 406.183594 265.429688 404.265625 263.75 400.941406 263.992188 C 394.035156 264.484375 387.082031 264.5 380.144531 264.648438 C 373.433594 264.785156 366.675781 264.53125 360.023438 264.980469 C 352.515625 265.488281 345.011719 265.292969 337.503906 265.894531 C 330.222656 266.492188 322.863281 266.296875 315.554688 266.148438 C 311.835938 266.074219 309.320312 267.707031 306.730469 270.042969 C 303.34375 273.109375 299.746094 276.03125 295.882812 278.457031 C 290.921875 281.558594 289.363281 285.105469 291.582031 290.40625 C 294.636719 297.730469 297.648438 305.082031 300.871094 312.34375 C 305.695312 323.1875 310.191406 334.195312 314.804688 345.109375 C 319.765625 356.835938 324.8125 368.546875 329.382812 380.449219 C 330.984375 384.597656 332.589844 388.746094 334.207031 392.894531 C 332.949219 393.898438 331.433594 393.929688 329.9375 394.199219 C 318.429688 396.234375 307.523438 399.964844 297.09375 405.277344 C 292.496094 407.613281 288.507812 410.804688 284.042969 413.289062 C 278.515625 416.359375 273.839844 420.71875 269.496094 425.105469 C 263.757812 430.902344 258.902344 437.609375 254.09375 444.242188 C 251.128906 448.332031 248.296875 452.765625 246.617188 457.464844 C 244.039062 464.746094 239.710938 471.394531 239.109375 479.464844 C 238.75 484.347656 240.503906 487.386719 245.433594 487.550781 C 248.566406 487.640625 251.472656 486.5625 254.09375 485.15625 C 269.0625 477.113281 283.699219 468.503906 297.335938 458.351562 C 300.585938 455.9375 304.332031 454.203125 307.148438 451.160156 C 310.398438 447.65625 313.769531 444.257812 317.679688 441.472656 C 326.789062 440.769531 335.527344 442.851562 344.019531 445.652344 C 359.976562 450.90625 374.480469 458.917969 387.050781 470.164062 C 394.050781 476.425781 400.175781 483.34375 403.636719 492.3125 C 404.671875 494.992188 406.199219 497.570312 409.167969 498.753906 C 412.207031 499.980469 414.425781 498.332031 416.65625 496.6875 C 418.785156 502.078125 420.867188 507.496094 423.070312 512.859375 C 425.4375 518.640625 433.242188 520.945312 437.46875 517.171875 C 448.300781 507.46875 459.148438 497.792969 469.9375 488.03125 C 472.542969 485.664062 473.339844 482.59375 472.632812 479.105469 C 471.886719 475.40625 470.011719 472.140625 468.484375 468.816406 C 465.59375 462.527344 462.222656 456.476562 458.371094 450.652344 C 454.714844 445.113281 450.9375 439.722656 446.429688 434.882812 C 434.742188 422.335938 421.199219 412.183594 405.71875 404.753906 C 398.304688 401.160156 390.707031 397.988281 382.570312 396.445312 Z M 405.179688 384.269531 C 401.523438 383.910156 398.949219 385.839844 398.4375 389.242188 C 397.988281 392.222656 400.523438 395.726562 403.652344 396.398438 C 417.183594 399.304688 430.742188 402.105469 444.257812 405.097656 C 461.621094 408.933594 478.941406 412.929688 496.292969 416.808594 C 510.914062 420.074219 525.570312 423.21875 540.191406 426.484375 C 555.742188 429.957031 571.28125 433.535156 586.832031 436.980469 C 589.425781 437.550781 592.257812 437.175781 593.933594 435.109375 C 597.546875 430.675781 596.992188 426.511719 591 425.253906 C 581.035156 423.175781 571.207031 420.523438 561.167969 418.816406 C 556.417969 418.007812 551.757812 416.601562 547.144531 415.191406 C 542.078125 413.664062 536.535156 414.277344 531.742188 412.390625 C 526.09375 410.160156 520.191406 409.234375 514.421875 407.988281 C 503.8125 405.683594 493.308594 402.851562 482.644531 400.875 C 472.917969 399.078125 463.433594 396.355469 453.726562 394.617188 C 448.570312 393.703125 443.628906 392.070312 438.5625 390.917969 C 433.484375 389.75 428.328125 388.882812 423.207031 387.863281 C 417.210938 386.636719 411.429688 384.3125 405.179688 384.269531 Z M 304.03125 226.957031 C 307.851562 226.988281 309.964844 225.386719 310.847656 221.449219 C 311.792969 217.226562 312.929688 213.105469 315.449219 209.511719 C 318.65625 204.960938 322.414062 201.230469 328.050781 199.597656 C 330.984375 198.746094 333.261719 196.394531 332.558594 193.027344 C 331.929688 190 329.578125 187.828125 326.386719 187.8125 C 320.738281 187.800781 317.785156 184.28125 315.300781 180.042969 C 313.171875 176.417969 311.746094 172.554688 311.253906 168.300781 C 310.730469 163.898438 307.972656 161.144531 304.632812 161.097656 C 300.226562 161.039062 297.828125 163.71875 297.066406 169.230469 C 296.269531 175.011719 293.664062 179.996094 289.976562 184.476562 C 287.640625 187.320312 284.359375 187.273438 281.136719 187.875 C 278.589844 188.351562 276.449219 190.164062 275.910156 192.90625 C 275.355469 195.617188 276.835938 197.609375 279.144531 198.925781 C 280.132812 199.496094 281.226562 199.914062 282.320312 200.304688 C 284.300781 201.023438 286.082031 201.980469 287.699219 203.417969 C 292.871094 207.984375 296.015625 213.601562 297.335938 220.355469 C 298.234375 225.070312 300.285156 226.929688 304.03125 226.957031 Z M 384.308594 238.039062 C 387.5625 238.023438 389.34375 236.316406 390.242188 232.363281 C 392.191406 223.828125 396.25 217.089844 405.078125 214.035156 C 407.625 213.152344 409.675781 211.144531 408.972656 208.179688 C 408.34375 205.574219 406.335938 203.777344 403.441406 203.703125 C 399.382812 203.597656 396.789062 201.425781 394.722656 198.175781 C 392.460938 194.582031 390.933594 190.78125 390.316406 186.542969 C 389.71875 182.4375 387.410156 180.371094 384.011719 180.445312 C 380.9375 180.507812 378.648438 182.738281 378.183594 186.660156 C 377.914062 188.90625 377.417969 191.125 376.472656 193.027344 C 374.136719 197.742188 372.277344 203.207031 365.640625 203.582031 C 362.496094 203.761719 360.066406 205.304688 359.542969 208.300781 C 358.914062 211.804688 361.597656 213.453125 364.519531 214.484375 C 366.511719 215.1875 368.339844 216.085938 369.941406 217.539062 C 374.421875 221.597656 377.164062 226.554688 378.316406 232.484375 C 379.050781 236.363281 381.042969 238.054688 384.308594 238.039062 Z M 351.585938 168.855469 C 355.316406 168.929688 356.515625 166.488281 357.222656 163.390625 C 358.867188 156.050781 362.523438 150.332031 370.03125 147.683594 C 372.382812 146.859375 374.242188 145.136719 373.6875 142.441406 C 373.179688 139.984375 371.261719 138.503906 368.652344 138.382812 C 365.148438 138.21875 362.871094 136.375 361.070312 133.53125 C 359.125 130.429688 357.746094 127.179688 357.234375 123.527344 C 356.710938 119.828125 354.71875 117.746094 351.902344 117.6875 C 348.84375 117.628906 346.914062 119.617188 346.238281 123.558594 C 346.164062 124.023438 346.238281 124.515625 346.089844 124.949219 C 343.917969 131.222656 342.386719 137.949219 333.773438 138.59375 C 331.734375 138.742188 329.9375 140.402344 329.773438 142.828125 C 329.609375 145.253906 331.136719 146.738281 333.171875 147.621094 C 335.195312 148.492188 337.265625 149.105469 338.988281 150.675781 C 342.925781 154.269531 345.414062 158.582031 346.386719 163.808594 C 346.929688 166.65625 348.246094 168.8125 351.585938 168.855469 Z M 351.585938 168.855469 " fill-opacity="1" fill-rule="nonzero"/><path fill="#3a1616" d="M 639.09375 453.304688 C 633.128906 454.695312 627.363281 456.882812 621.070312 456.941406 C 617.726562 456.972656 615.734375 455.296875 614.265625 452.914062 C 613.203125 451.191406 613.621094 449.304688 615.179688 447.539062 C 618.085938 444.273438 621.773438 443.390625 625.847656 442.746094 C 637.835938 440.828125 648.1875 435.617188 657.957031 428.234375 C 666.84375 421.527344 673.464844 413.171875 679.890625 404.457031 C 684.042969 398.824219 687.113281 392.550781 689.046875 385.828125 C 690.125 382.066406 693.183594 380.871094 696.042969 379.238281 C 700.808594 380.015625 703.296875 383.59375 702.035156 387.894531 C 697.257812 404.230469 687.847656 417.664062 675.875 429.492188 C 665.285156 439.976562 652.773438 447.539062 639.09375 453.304688 Z M 437.199219 748.773438 C 439.65625 747.917969 441.125 745.597656 441.183594 742.753906 C 441.125 742.496094 441.050781 742.242188 440.992188 741.988281 C 441.140625 742.003906 441.289062 742.019531 441.425781 742.035156 C 441.425781 742.035156 441.394531 742.109375 441.394531 742.109375 C 438.1875 731.160156 434.980469 720.214844 431.761719 709.269531 C 428.195312 697.167969 424.628906 685.085938 421.003906 673 C 419.386719 667.578125 417.738281 662.15625 415.878906 656.828125 C 414.90625 654.011719 412.671875 651.691406 409.601562 652.632812 C 404.957031 654.054688 402.617188 658.25 403.726562 661.949219 C 409.617188 681.535156 415.503906 701.105469 421.484375 720.648438 C 424.089844 729.171875 426.246094 737.8125 429.378906 746.167969 C 431.476562 748.636719 434.277344 749.789062 437.199219 748.773438 Z M 73.789062 554.847656 C 69.191406 554.90625 65.9375 557.09375 65.652344 560.34375 C 65.371094 563.625 67.992188 566.46875 72.277344 567.605469 C 82.914062 570.421875 93.65625 572.804688 104.296875 575.542969 C 123.054688 580.363281 141.886719 584.859375 160.660156 589.574219 C 173.125 592.703125 185.578125 595.863281 198.058594 598.902344 C 210.222656 601.867188 222.433594 604.609375 234.585938 607.589844 C 247.859375 610.839844 261.089844 614.296875 274.367188 617.578125 C 279.023438 618.730469 281.484375 617.636719 284.195312 613.652344 C 285.09375 608.546875 283.953125 606.691406 278.800781 605.402344 C 272.371094 603.785156 265.796875 602.664062 259.457031 600.730469 C 246.765625 596.835938 233.746094 594.292969 220.9375 590.878906 C 206.164062 586.9375 191.269531 583.511719 176.4375 579.824219 C 167.628906 577.640625 158.863281 575.320312 150.050781 573.175781 C 137.855469 570.195312 125.585938 567.472656 113.417969 564.371094 C 100.460938 561.0625 87.542969 557.648438 74.480469 554.804688 C 74.253906 554.804688 74.03125 554.847656 73.789062 554.847656 Z M 606.761719 383.492188 C 604.976562 370.433594 602.773438 357.417969 601.320312 344.316406 C 599.867188 331.125 597.980469 317.976562 596.289062 304.8125 C 595.238281 296.652344 593.933594 288.519531 592.871094 280.375 C 591.117188 266.941406 589.558594 253.480469 587.746094 240.046875 C 585.828125 225.789062 583.433594 211.578125 581.84375 197.277344 C 581.320312 192.546875 579.898438 189.566406 575.339844 188.277344 C 574.246094 189.160156 573.242188 190.164062 572.058594 190.882812 C 569.378906 192.5 568.6875 194.867188 569.035156 197.773438 C 569.738281 203.761719 570.578125 209.738281 571.265625 215.742188 C 573.0625 231.421875 575.402344 247.039062 577.484375 262.671875 C 579.820312 280.148438 582.113281 297.640625 584.421875 315.128906 C 586.503906 330.914062 588.570312 346.710938 590.667969 362.496094 C 591.597656 369.503906 592.886719 376.496094 593.457031 383.535156 C 594.070312 391.082031 596.019531 393.253906 603.417969 393.058594 C 607.148438 390.785156 607.253906 387.175781 606.761719 383.492188 Z M 569.214844 116.832031 C 574.757812 113.226562 580.269531 109.601562 585.738281 105.886719 C 598.609375 97.15625 611.480469 88.441406 624.277344 79.605469 C 628.140625 76.925781 632.621094 74.949219 635.378906 70.859375 C 637.28125 68.046875 636.230469 62.59375 633.296875 61.964844 C 630.734375 61.410156 627.828125 61.859375 625.414062 63.554688 C 622.957031 65.289062 620.457031 66.980469 617.96875 68.660156 C 601.5625 79.785156 585.082031 90.835938 568.765625 102.082031 C 564.015625 105.363281 558.816406 108.132812 554.949219 112.597656 C 554.84375 117.402344 555.9375 119.15625 559.757812 120.605469 C 562.261719 121.566406 564.121094 119.738281 566.308594 119.289062 C 567.085938 118.242188 568.121094 117.539062 569.214844 116.832031 Z M 265.179688 360.789062 C 264.460938 363.648438 266.019531 365.640625 267.488281 367.707031 C 278.785156 370.972656 290.472656 372.246094 301.980469 374.355469 C 305.875 375.058594 309.15625 372.078125 309.859375 368.292969 C 310.339844 365.6875 308.015625 362.359375 304.855469 361.730469 C 294.503906 359.664062 284.105469 357.765625 273.738281 355.789062 C 270.320312 356.476562 266.351562 356.148438 265.179688 360.789062 Z M 310.652344 627.085938 C 316.542969 628.316406 322.445312 629.511719 328.363281 630.546875 C 333.699219 631.472656 335.824219 630.066406 337.546875 624.929688 C 337.097656 621.1875 335.660156 618.265625 331.539062 617.457031 C 324.859375 616.125 318.175781 614.777344 311.507812 613.398438 C 310.773438 613.25 309.980469 613.160156 309.589844 613.789062 C 308.285156 615.886719 305.664062 616.171875 304.167969 617.96875 C 302.667969 623.746094 306.414062 626.1875 310.652344 627.085938 Z M 398.4375 389.242188 C 397.988281 392.222656 400.523438 395.726562 403.652344 396.398438 C 417.183594 399.304688 430.742188 402.105469 444.257812 405.097656 C 461.621094 408.933594 478.941406 412.929688 496.292969 416.808594 C 510.914062 420.074219 525.570312 423.21875 540.191406 426.484375 C 555.742188 429.957031 571.28125 433.535156 586.832031 436.980469 C 589.425781 437.550781 592.257812 437.175781 593.933594 435.109375 C 597.546875 430.675781 596.992188 426.511719 591 425.253906 C 581.035156 423.175781 571.207031 420.523438 561.167969 418.816406 C 556.417969 418.007812 551.757812 416.601562 547.144531 415.191406 C 542.078125 413.664062 536.535156 414.277344 531.742188 412.390625 C 526.09375 410.160156 520.191406 409.234375 514.421875 407.988281 C 503.8125 405.683594 493.308594 402.851562 482.644531 400.875 C 472.917969 399.078125 463.433594 396.355469 453.726562 394.617188 C 448.570312 393.703125 443.628906 392.070312 438.5625 390.917969 C 433.484375 389.75 428.328125 388.882812 423.207031 387.863281 C 417.199219 386.652344 411.398438 384.328125 405.152344 384.285156 C 401.523438 383.910156 398.949219 385.839844 398.4375 389.242188 Z M 344.007812 445.636719 C 359.960938 450.890625 374.464844 458.902344 387.035156 470.148438 C 394.035156 476.410156 400.160156 483.328125 403.621094 492.296875 C 404.65625 494.976562 406.183594 497.554688 409.152344 498.738281 C 412.191406 499.964844 414.410156 498.316406 416.644531 496.671875 C 418.097656 493.449219 417.976562 490.5625 416.296875 487.191406 C 411.832031 478.28125 406.246094 470.464844 398.542969 463.980469 C 391.277344 457.871094 384.789062 450.9375 376.007812 446.625 C 372.90625 445.097656 369.703125 443.480469 366.691406 441.609375 C 360.875 438 354.402344 435.722656 347.945312 433.746094 C 342.28125 432.023438 336.574219 430.390625 330.507812 429.734375 C 324.828125 429.117188 319.253906 428.535156 313.605469 429.148438 C 307.011719 429.867188 300.359375 429.824219 293.886719 432.039062 C 290.890625 433.074219 287.804688 434 284.914062 435.257812 C 281.40625 436.785156 278.1875 438.972656 274.769531 440.753906 C 269.511719 443.496094 265.285156 447.734375 260.101562 450.59375 C 259.652344 450.847656 259.382812 451.507812 259.128906 452.015625 C 257.929688 454.472656 258.050781 456.941406 260.117188 458.753906 C 262.109375 460.507812 264.34375 461.855469 267.367188 460.386719 C 272.222656 458.035156 276.117188 454.320312 280.644531 451.507812 C 292 444.421875 304.332031 441.203125 317.636719 441.457031 C 326.777344 440.753906 335.511719 442.835938 344.007812 445.636719 Z M 344.007812 445.636719 " fill-opacity="1" fill-rule="nonzero"/><path fill="#fff2dc" d="M 382.570312 396.445312 C 381.34375 399.4375 380.191406 402.449219 379.214844 405.546875 C 377.628906 410.582031 372.90625 413.15625 367.347656 412.527344 C 362.855469 412.019531 358.34375 411.210938 353.851562 411.3125 C 349.503906 411.417969 346.015625 409.683594 342.417969 407.824219 C 340.738281 406.957031 339.945312 405.429688 339.195312 403.855469 C 337.503906 400.21875 335.839844 396.5625 334.175781 392.925781 C 332.574219 388.777344 330.957031 384.628906 329.351562 380.480469 C 324.78125 368.589844 319.734375 356.867188 314.773438 345.140625 C 310.160156 334.222656 305.664062 323.21875 300.839844 312.375 C 297.617188 305.113281 294.621094 297.757812 291.550781 290.4375 C 289.332031 285.136719 290.890625 281.601562 295.851562 278.488281 C 299.714844 276.0625 303.3125 273.125 306.699219 270.070312 C 309.304688 267.71875 311.824219 266.089844 315.523438 266.179688 C 322.835938 266.328125 330.191406 266.523438 337.472656 265.921875 C 344.980469 265.308594 352.488281 265.503906 359.992188 265.007812 C 366.644531 264.558594 373.402344 264.816406 380.113281 264.679688 C 387.050781 264.546875 394.003906 264.515625 400.910156 264.019531 C 404.238281 263.78125 406.15625 265.445312 408.011719 267.527344 C 411.804688 271.761719 415.398438 276.195312 419.265625 280.359375 C 420.359375 281.542969 420.375 282.394531 419.9375 283.714844 C 414.171875 300.875 408.460938 318.050781 402.695312 335.210938 C 396.054688 354.964844 389.390625 374.699219 382.75 394.453125 C 382.570312 395.050781 382.632812 395.769531 382.570312 396.445312 Z M 332.679688 312.644531 C 334.867188 313.214844 336.378906 312.421875 337.996094 312.34375 C 352.410156 311.625 366.839844 310.996094 381.253906 310.203125 C 384.023438 310.054688 386.871094 310.5625 389.480469 308.453125 C 396.6875 302.613281 404.058594 296.964844 411.550781 291.484375 C 414.664062 289.210938 415.398438 286.394531 414.695312 282.996094 C 413.960938 279.460938 410.425781 278.082031 407.277344 279.835938 C 400.640625 283.519531 394.949219 288.476562 388.910156 292.984375 C 387.066406 294.359375 385.480469 296.578125 383.082031 296.589844 C 376.460938 296.652344 369.882812 297.308594 363.289062 297.699219 C 351.347656 298.402344 339.375 298.761719 327.421875 299.300781 C 325.800781 299.378906 324.511719 298.851562 323.269531 297.835938 C 318.773438 294.152344 314.25 290.480469 309.636719 286.949219 C 307.734375 285.480469 305.09375 283.339844 303.238281 284.164062 C 300.855469 285.210938 297.84375 286.871094 297.304688 290.121094 C 296.765625 293.296875 298.710938 295.242188 301.109375 297.011719 C 305.695312 300.367188 310.175781 303.871094 314.640625 307.386719 C 316.273438 308.691406 317.847656 310.144531 318.550781 312.226562 C 321.847656 321.882812 325.171875 331.542969 328.394531 341.230469 C 332.980469 354.980469 337.472656 368.753906 342.027344 382.515625 C 342.613281 384.285156 343.242188 386.019531 343.960938 387.742188 C 345.265625 390.875 348.472656 393.042969 351.347656 392.492188 C 354.449219 391.890625 355.769531 389.855469 356.261719 386.605469 C 356.667969 383.953125 355.917969 381.796875 355.183594 379.523438 C 351.46875 367.960938 347.121094 356.625 343.675781 344.976562 C 340.484375 334.3125 336.53125 323.90625 332.679688 312.644531 Z M 367.019531 369.742188 C 367.003906 374.820312 369.371094 377.921875 372.90625 378.113281 C 375.90625 378.28125 379.007812 375.164062 379.664062 371.421875 C 382.019531 358.136719 384.308594 344.839844 386.871094 331.601562 C 387.335938 329.238281 386.871094 327.171875 386.226562 325.132812 C 385.703125 323.515625 384.640625 321.691406 382.707031 321.390625 C 379.933594 320.941406 374.554688 325.375 374.0625 328.1875 C 372.894531 334.914062 371.695312 341.636719 370.554688 348.359375 C 369.3125 355.699219 368.128906 363.019531 367.019531 369.742188 Z M 310.847656 221.449219 C 311.792969 217.226562 312.929688 213.105469 315.449219 209.511719 C 318.65625 204.960938 322.414062 201.230469 328.050781 199.597656 C 330.984375 198.746094 333.261719 196.394531 332.558594 193.027344 C 331.929688 190 329.578125 187.828125 326.386719 187.8125 C 320.738281 187.800781 317.785156 184.28125 315.300781 180.042969 C 313.171875 176.417969 311.746094 172.554688 311.253906 168.300781 C 310.730469 163.898438 307.972656 161.144531 304.632812 161.097656 C 300.226562 161.039062 297.828125 163.71875 297.066406 169.230469 C 296.269531 175.011719 293.664062 179.996094 289.976562 184.476562 C 287.640625 187.320312 284.359375 187.273438 281.136719 187.875 C 278.589844 188.351562 276.449219 190.164062 275.910156 192.90625 C 275.355469 195.617188 276.835938 197.609375 279.144531 198.925781 C 280.132812 199.496094 281.226562 199.914062 282.320312 200.304688 C 284.300781 201.023438 286.082031 201.980469 287.699219 203.417969 C 292.871094 207.984375 296.015625 213.601562 297.335938 220.355469 C 298.25 225.058594 300.316406 226.898438 304.046875 226.929688 C 307.835938 226.972656 309.964844 225.386719 310.847656 221.449219 Z M 390.242188 232.363281 C 392.191406 223.828125 396.25 217.089844 405.078125 214.035156 C 407.625 213.152344 409.675781 211.144531 408.972656 208.179688 C 408.34375 205.574219 406.335938 203.777344 403.441406 203.703125 C 399.382812 203.597656 396.789062 201.425781 394.722656 198.175781 C 392.460938 194.582031 390.933594 190.78125 390.316406 186.542969 C 389.71875 182.4375 387.410156 180.371094 384.011719 180.445312 C 380.9375 180.507812 378.648438 182.738281 378.183594 186.660156 C 377.914062 188.90625 377.417969 191.125 376.472656 193.027344 C 374.136719 197.742188 372.277344 203.207031 365.640625 203.582031 C 362.496094 203.761719 360.066406 205.304688 359.542969 208.300781 C 358.914062 211.804688 361.597656 213.453125 364.519531 214.484375 C 366.511719 215.1875 368.339844 216.085938 369.941406 217.539062 C 374.421875 221.597656 377.164062 226.554688 378.316406 232.484375 C 379.066406 236.347656 381.058594 238.054688 384.324219 238.039062 C 387.546875 238.011719 389.34375 236.316406 390.242188 232.363281 Z M 357.222656 163.390625 C 358.867188 156.050781 362.523438 150.332031 370.03125 147.683594 C 372.382812 146.859375 374.242188 145.136719 373.6875 142.441406 C 373.179688 139.984375 371.261719 138.503906 368.652344 138.382812 C 365.148438 138.21875 362.871094 136.375 361.070312 133.53125 C 359.125 130.429688 357.746094 127.179688 357.234375 123.527344 C 356.710938 119.828125 354.71875 117.746094 351.902344 117.6875 C 348.84375 117.628906 346.914062 119.617188 346.238281 123.558594 C 346.164062 124.023438 346.238281 124.515625 346.089844 124.949219 C 343.917969 131.222656 342.386719 137.949219 333.773438 138.59375 C 331.734375 138.742188 329.9375 140.402344 329.773438 142.828125 C 329.609375 145.253906 331.136719 146.738281 333.171875 147.621094 C 335.195312 148.492188 337.265625 149.105469 338.988281 150.675781 C 342.925781 154.269531 345.414062 158.582031 346.386719 163.808594 C 346.929688 166.683594 348.246094 168.828125 351.585938 168.871094 C 355.316406 168.917969 356.515625 166.488281 357.222656 163.390625 Z M 439.132812 441.503906 C 438.097656 438.6875 436.449219 435.917969 434.144531 434.089844 C 430.246094 431.007812 426.710938 427.546875 422.875 424.402344 C 415.488281 418.351562 407.636719 413.1875 398.964844 409.324219 C 396.941406 408.421875 394.574219 407.660156 392.3125 409.425781 C 390.527344 410.820312 389.464844 412.511719 389.570312 414.757812 C 389.71875 418.21875 391.890625 420 394.917969 421.300781 C 406.515625 426.320312 415.820312 434.523438 424.929688 443 C 427.117188 445.039062 428.644531 448.316406 432.136719 447.925781 C 436.929688 447.925781 440.332031 444.796875 439.132812 441.503906 Z M 450.25 455.878906 C 447.792969 453.769531 445.410156 453.917969 443.058594 455.847656 C 440.496094 457.945312 439.761719 461.40625 441.574219 463.890625 C 443.148438 466.03125 444.976562 468.054688 447 469.761719 C 449.246094 471.648438 452.0625 471.363281 454.519531 470.179688 C 456.152344 469.386719 456.542969 467.46875 456.722656 466.046875 C 456.542969 461.105469 453.351562 458.542969 450.25 455.878906 Z M 450.25 455.878906 " fill-opacity="1" fill-rule="nonzero"/><g clip-path="url(#6ece71c830)"><path fill="#fcae00" d="M 198.042969 335.332031 C 197.984375 340.527344 194.253906 343.328125 189.335938 342.070312 C 173.710938 338.027344 158.070312 334.015625 142.53125 329.582031 C 133.796875 327.082031 124.898438 325.164062 116.101562 322.8125 C 105.179688 319.890625 94.332031 316.71875 83.425781 313.769531 C 73.65625 311.117188 63.839844 308.617188 54.042969 306.054688 C 53.039062 305.785156 51.976562 305.621094 51.074219 305.15625 C 48.917969 304.035156 47.375 302.460938 47.195312 299.78125 C 47.015625 297.039062 48.84375 295.574219 50.597656 294.121094 C 52.875 292.21875 55.332031 292.339844 58.222656 293.117188 C 73.054688 297.085938 87.917969 300.859375 102.691406 305.066406 C 112.773438 307.941406 122.933594 310.5625 133.0625 313.257812 C 142.964844 315.894531 152.929688 318.441406 162.847656 321 C 170.398438 322.949219 178.027344 324.820312 185.503906 327.125 C 188.484375 328.039062 191.585938 328.546875 194.402344 330.015625 C 196.695312 331.214844 197.742188 333.128906 198.042969 335.332031 Z M 85.207031 406.582031 C 94.585938 403.601562 104.023438 400.863281 113.464844 398.121094 C 125.539062 394.601562 137.558594 390.902344 149.664062 387.460938 C 158.113281 385.0625 166.59375 382.695312 175.027344 380.257812 C 180.453125 378.683594 185.863281 377.066406 191.242188 375.3125 C 194.3125 374.3125 197.277344 370.6875 195.660156 366 C 194.730469 363.289062 191.734375 361.898438 187.914062 362.855469 C 183.660156 363.917969 179.433594 365.132812 175.222656 366.359375 C 161.890625 370.253906 148.554688 374.191406 135.21875 378.101562 C 122.230469 381.917969 109.222656 385.675781 96.265625 389.554688 C 90.195312 391.367188 83.859375 392.386719 78.121094 395.289062 C 74.703125 397.027344 72.652344 400.082031 73.234375 402.898438 C 73.773438 405.546875 76.9375 407.734375 80.695312 407.703125 C 81.835938 407.421875 83.558594 407.105469 85.207031 406.582031 Z M 110.347656 232.695312 C 109.285156 235.882812 110.738281 238.054688 113.226562 239.851562 C 116.894531 242.503906 120.519531 245.183594 124.164062 247.863281 C 137.46875 257.628906 150.90625 267.210938 164.015625 277.214844 C 173.785156 284.671875 183.988281 291.546875 193.503906 299.363281 C 196.230469 301.59375 199.332031 303.511719 202.628906 305.066406 C 205.925781 306.625 208.320312 305.726562 210.222656 303.121094 C 212.113281 300.53125 211.664062 296.308594 209.191406 294.210938 C 202.074219 288.175781 194.460938 282.753906 186.804688 277.4375 C 180.421875 273.007812 174.234375 268.289062 168.09375 263.570312 C 159.027344 256.59375 149.347656 250.46875 140.523438 243.132812 C 134.964844 238.503906 128.671875 234.777344 123.1875 230 C 121.644531 228.652344 119.90625 227.46875 118.46875 227.421875 C 115.621094 227.46875 111.007812 230.746094 110.347656 232.695312 Z M 280.671875 451.507812 C 276.148438 454.320312 272.253906 458.035156 267.398438 460.386719 C 264.371094 461.855469 262.140625 460.507812 260.148438 458.753906 C 258.078125 456.941406 257.972656 454.472656 259.15625 452.015625 C 259.414062 451.492188 259.667969 450.832031 260.132812 450.59375 C 265.300781 447.746094 269.542969 443.496094 274.800781 440.753906 C 278.214844 438.972656 281.4375 436.785156 284.945312 435.257812 C 287.835938 434 290.921875 433.074219 293.917969 432.039062 C 300.390625 429.824219 307.042969 429.867188 313.636719 429.148438 C 319.285156 428.535156 324.859375 429.117188 330.535156 429.734375 C 336.605469 430.390625 342.3125 432.023438 347.976562 433.746094 C 354.433594 435.722656 360.921875 438 366.71875 441.609375 C 369.730469 443.480469 372.9375 445.097656 376.039062 446.625 C 384.804688 450.9375 391.292969 457.871094 398.574219 463.980469 C 406.273438 470.449219 411.863281 478.28125 416.328125 487.191406 C 418.007812 490.546875 418.125 493.449219 416.671875 496.671875 C 418.800781 502.0625 420.882812 507.480469 423.085938 512.84375 C 425.453125 518.625 433.257812 520.929688 437.484375 517.15625 C 448.316406 507.453125 459.164062 497.777344 469.953125 488.015625 C 472.558594 485.648438 473.351562 482.578125 472.648438 479.089844 C 471.898438 475.390625 470.027344 472.125 468.5 468.800781 C 465.605469 462.511719 462.234375 456.464844 458.386719 450.636719 C 454.730469 445.097656 450.953125 439.707031 446.445312 434.871094 C 434.757812 422.320312 421.210938 412.167969 405.734375 404.738281 C 398.335938 401.191406 390.753906 398 382.601562 396.472656 C 381.375 399.46875 380.21875 402.480469 379.246094 405.578125 C 377.65625 410.609375 372.9375 413.1875 367.378906 412.558594 C 362.882812 412.046875 358.375 411.238281 353.878906 411.34375 C 349.535156 411.449219 346.042969 409.710938 342.449219 407.855469 C 340.769531 406.984375 339.976562 405.457031 339.226562 403.886719 C 337.535156 400.246094 335.871094 396.59375 334.207031 392.953125 C 332.949219 393.957031 331.433594 393.988281 329.9375 394.257812 C 318.429688 396.292969 307.523438 400.023438 297.09375 405.339844 C 292.496094 407.675781 288.507812 410.863281 284.042969 413.351562 C 278.515625 416.421875 273.839844 420.777344 269.496094 425.164062 C 263.757812 430.960938 258.902344 437.667969 254.09375 444.304688 C 251.128906 448.390625 248.296875 452.824219 246.617188 457.527344 C 244.039062 464.804688 239.710938 471.453125 239.109375 479.523438 C 238.75 484.40625 240.503906 487.445312 245.433594 487.609375 C 248.566406 487.699219 251.472656 486.621094 254.09375 485.214844 C 269.0625 477.171875 283.699219 468.5625 297.335938 458.410156 C 300.585938 456 304.332031 454.261719 307.148438 451.222656 C 310.398438 447.71875 313.769531 444.320312 317.679688 441.535156 C 304.347656 441.203125 292.03125 444.421875 280.671875 451.507812 Z M 424.914062 443 C 415.804688 434.523438 406.5 426.304688 394.902344 421.300781 C 391.875 420 389.71875 418.21875 389.554688 414.757812 C 389.449219 412.511719 390.511719 410.820312 392.296875 409.425781 C 394.542969 407.660156 396.925781 408.425781 398.949219 409.324219 C 407.636719 413.1875 415.472656 418.351562 422.859375 424.402344 C 426.695312 427.546875 430.234375 431.007812 434.128906 434.089844 C 436.433594 435.917969 438.082031 438.671875 439.117188 441.503906 C 440.316406 444.796875 436.929688 447.925781 432.105469 447.925781 C 428.628906 448.300781 427.117188 445.039062 424.914062 443 Z M 454.519531 470.164062 C 452.0625 471.347656 449.246094 471.648438 447 469.746094 C 444.976562 468.039062 443.148438 466.015625 441.574219 463.875 C 439.761719 461.390625 440.496094 457.929688 443.058594 455.835938 C 445.410156 453.902344 447.792969 453.753906 450.25 455.863281 C 453.351562 458.53125 456.542969 461.089844 456.722656 466.03125 C 456.542969 467.453125 456.152344 469.386719 454.519531 470.164062 Z M 337.996094 312.34375 C 352.410156 311.625 366.839844 310.996094 381.253906 310.203125 C 384.023438 310.054688 386.871094 310.5625 389.480469 308.453125 C 396.6875 302.613281 404.058594 296.964844 411.550781 291.484375 C 414.664062 289.210938 415.398438 286.394531 414.695312 282.996094 C 413.960938 279.460938 410.425781 278.082031 407.277344 279.835938 C 400.640625 283.519531 394.949219 288.476562 388.910156 292.984375 C 387.066406 294.359375 385.480469 296.578125 383.082031 296.589844 C 376.460938 296.652344 369.882812 297.308594 363.289062 297.699219 C 351.347656 298.402344 339.375 298.761719 327.421875 299.300781 C 325.800781 299.378906 324.511719 298.851562 323.269531 297.835938 C 318.773438 294.152344 314.25 290.480469 309.636719 286.949219 C 307.734375 285.480469 305.09375 283.339844 303.238281 284.164062 C 300.855469 285.210938 297.84375 286.871094 297.304688 290.121094 C 296.765625 293.296875 298.710938 295.242188 301.109375 297.011719 C 305.695312 300.367188 310.175781 303.871094 314.640625 307.386719 C 316.273438 308.691406 317.847656 310.144531 318.550781 312.226562 C 321.847656 321.882812 325.171875 331.542969 328.394531 341.230469 C 332.980469 354.980469 337.472656 368.753906 342.027344 382.515625 C 342.613281 384.285156 343.242188 386.019531 343.960938 387.742188 C 345.265625 390.875 348.472656 393.042969 351.347656 392.492188 C 354.449219 391.890625 355.769531 389.855469 356.261719 386.605469 C 356.667969 383.953125 355.917969 381.796875 355.183594 379.523438 C 351.46875 367.960938 347.121094 356.625 343.675781 344.976562 C 340.53125 334.328125 336.574219 323.921875 332.722656 312.675781 C 334.867188 313.214844 336.394531 312.421875 337.996094 312.34375 Z M 372.90625 378.113281 C 375.90625 378.28125 379.007812 375.164062 379.664062 371.421875 C 382.019531 358.136719 384.308594 344.839844 386.871094 331.601562 C 387.335938 329.238281 386.871094 327.171875 386.226562 325.132812 C 385.703125 323.515625 384.640625 321.691406 382.707031 321.390625 C 379.933594 320.941406 374.554688 325.375 374.0625 328.1875 C 372.894531 334.914062 371.695312 341.636719 370.554688 348.359375 C 369.3125 355.683594 368.144531 363.019531 367.035156 369.730469 C 367.019531 374.804688 369.371094 377.921875 372.90625 378.113281 Z M 372.90625 378.113281 " fill-opacity="1" fill-rule="nonzero"/></g><path fill="#ff172e" d="M 49.246094 299.648438 C 49.144531 298.074219 50.101562 297.191406 51.796875 295.78125 C 52.785156 294.960938 53.683594 294.628906 54.835938 294.628906 C 55.617188 294.628906 56.515625 294.78125 57.699219 295.09375 C 62.117188 296.277344 66.554688 297.445312 70.972656 298.613281 C 81.207031 301.308594 91.785156 304.09375 102.121094 307.042969 C 110.019531 309.289062 118.078125 311.433594 125.886719 313.484375 L 132.539062 315.25 C 141.601562 317.660156 150.695312 319.996094 159.777344 322.332031 L 165.90625 323.90625 C 172.167969 325.507812 178.640625 327.171875 184.902344 329.085938 C 185.816406 329.371094 186.746094 329.609375 187.675781 329.867188 C 189.742188 330.40625 191.691406 330.914062 193.457031 331.84375 C 194.910156 332.605469 195.71875 333.757812 195.992188 335.464844 C 195.898438 338.519531 194.265625 340.332031 191.601562 340.332031 C 191.046875 340.332031 190.445312 340.257812 189.847656 340.09375 L 187.421875 339.464844 C 172.855469 335.707031 157.800781 331.8125 143.101562 327.621094 C 138.082031 326.183594 132.941406 324.925781 127.984375 323.710938 C 124.191406 322.78125 120.417969 321.855469 116.65625 320.835938 C 110.871094 319.277344 105.105469 317.660156 99.335938 316.042969 C 94.226562 314.605469 89.101562 313.167969 83.976562 311.792969 C 77.460938 310.023438 70.941406 308.332031 64.410156 306.640625 L 54.582031 304.078125 L 53.800781 303.882812 C 53.128906 303.71875 52.5 303.570312 52.035156 303.332031 C 50.160156 302.355469 49.351562 301.292969 49.246094 299.648438 Z M 114.4375 238.191406 C 117.105469 240.105469 119.742188 242.054688 122.378906 244 L 125.390625 246.214844 C 129.375 249.136719 133.363281 252.042969 137.363281 254.960938 C 146.5625 261.65625 156.074219 268.574219 165.273438 275.597656 C 169.035156 278.472656 172.855469 281.257812 176.675781 284.027344 C 182.699219 288.414062 188.933594 292.9375 194.804688 297.773438 C 197.324219 299.839844 200.261719 301.667969 203.511719 303.210938 C 204.304688 303.585938 205.023438 303.78125 205.652344 303.78125 C 206.328125 303.78125 207.347656 303.585938 208.574219 301.90625 C 209.835938 300.171875 209.488281 297.128906 207.886719 295.769531 C 200.546875 289.554688 192.558594 283.90625 185.652344 279.117188 C 179.148438 274.59375 172.796875 269.757812 166.863281 265.1875 C 163.148438 262.328125 159.238281 259.558594 155.460938 256.863281 C 150.050781 253.015625 144.464844 249.046875 139.234375 244.703125 C 136.71875 242.605469 133.960938 240.644531 131.292969 238.742188 C 128.148438 236.496094 124.882812 234.160156 121.871094 231.539062 C 119.699219 229.652344 118.707031 229.472656 118.515625 229.472656 C 116.371094 229.488281 112.671875 232.273438 112.296875 233.324219 C 111.742188 234.984375 111.90625 236.378906 114.4375 238.191406 Z M 699.730469 383.535156 C 698.980469 382.351562 697.570312 381.542969 695.742188 381.246094 L 693.738281 380.914062 L 693.8125 380.480469 C 694.558594 380.046875 695.324219 379.65625 696.089844 379.222656 C 696.207031 378.445312 696.476562 377.664062 696.433594 376.902344 C 696 367.871094 695.28125 358.855469 695.113281 349.828125 C 694.921875 338.851562 693.046875 328.023438 692.746094 317.078125 C 692.582031 311.371094 691.25 305.847656 691.039062 300.15625 C 690.84375 294.71875 690.648438 289.195312 689.585938 283.894531 C 688.3125 277.589844 687.714844 271.148438 687.21875 264.875 C 686.605469 257.238281 685.390625 249.707031 684.476562 242.144531 C 683.804688 236.558594 682.785156 230.925781 682.035156 225.355469 C 680.835938 216.3125 679.863281 207.175781 677.644531 198.402344 C 675.171875 188.609375 674.976562 178.546875 672.582031 168.738281 C 670.753906 161.265625 669.300781 153.582031 668.027344 145.929688 C 666.753906 138.246094 664.128906 130.789062 662.675781 123.183594 C 661.222656 115.589844 659.066406 108.191406 657.597656 100.617188 C 655.800781 91.332031 653.402344 82.167969 651.15625 72.988281 C 649.714844 67.070312 647.5 61.457031 643.738281 56.574219 C 637.863281 48.953125 629.476562 45.164062 620.890625 41.855469 C 610.6875 37.929688 600.363281 34.261719 589.859375 31.207031 C 586.535156 30.234375 583.207031 29.109375 579.804688 28.527344 C 575.058594 27.71875 570.324219 26.476562 565.933594 24.886719 C 560.507812 22.941406 554.859375 22.746094 549.421875 21.234375 C 543.367188 19.558594 537.03125 18.390625 530.632812 17.746094 C 521.65625 16.863281 513.042969 13.746094 504.007812 12.804688 C 496.757812 12.054688 489.578125 10.40625 482.371094 9.195312 C 470.3125 7.171875 458.160156 6.167969 446.070312 4.566406 C 439.433594 3.683594 432.765625 3.355469 426.128906 2.710938 C 421.976562 2.304688 417.707031 1.378906 413.707031 1.542969 C 406.484375 1.839844 399.324219 1.257812 392.191406 0.914062 C 378.375 0.253906 364.609375 0.253906 350.792969 0.734375 C 346.195312 0.898438 341.714844 1.765625 337.082031 1.75 C 331.253906 1.738281 325.425781 2.710938 319.644531 3.773438 C 315.34375 4.566406 310.96875 5.0625 306.609375 5.421875 C 300.886719 5.886719 295.175781 6.875 290.246094 9.703125 C 282.832031 13.972656 276.015625 19.300781 268.566406 23.523438 C 263.742188 26.265625 259.351562 29.621094 254.574219 32.421875 C 246.347656 37.242188 238.632812 42.917969 230.644531 48.144531 C 221.101562 54.386719 211.183594 60.0625 202.074219 66.953125 C 200.246094 68.332031 198.910156 69.949219 199.660156 72.195312 C 200.410156 74.441406 200.558594 76.714844 200.996094 78.976562 C 204.304688 96.078125 207.617188 113.179688 210.929688 130.28125 C 213.910156 145.675781 216.996094 161.054688 219.949219 176.464844 C 222.480469 189.730469 225.070312 202.984375 227.707031 216.222656 C 231.066406 233.039062 234.152344 249.898438 237.492188 266.71875 C 240.5625 282.171875 243.890625 297.550781 246.617188 313.078125 C 248.671875 324.757812 251.53125 336.273438 253.6875 347.941406 C 254.0625 349.933594 255.425781 352.3125 253.046875 354.621094 C 243.769531 363.527344 234.734375 372.695312 225.597656 381.753906 C 216.726562 390.542969 207.40625 398.871094 198.71875 407.855469 C 187.644531 419.296875 176.199219 430.378906 164.824219 441.546875 C 153.648438 452.523438 142.367188 463.398438 131.175781 474.359375 C 120.835938 484.480469 110.558594 494.679688 100.21875 504.800781 C 84.519531 520.152344 68.726562 535.410156 53.113281 550.863281 C 49.847656 554.097656 48.152344 558.066406 50.476562 562.890625 C 54.117188 570.464844 57.082031 578.328125 59.960938 586.21875 C 64.351562 598.320312 69.011719 610.328125 73.460938 622.414062 C 77.984375 634.695312 82.78125 646.867188 87.410156 659.117188 C 88.984375 663.265625 89.851562 668.074219 94.601562 670.09375 C 98.226562 671.636719 101.644531 673.671875 105.253906 675.171875 C 121.03125 681.730469 136.835938 688.230469 152.808594 694.292969 C 169.980469 700.808594 187.40625 706.589844 204.890625 712.203125 C 221.25 717.460938 237.746094 722.28125 254.394531 726.386719 C 274.335938 731.296875 294.488281 735.371094 314.804688 738.632812 C 330.972656 741.238281 347.183594 742.976562 363.542969 743.5625 C 367.199219 743.695312 370.898438 743.832031 374.554688 744.234375 C 379.753906 744.820312 384.878906 745.808594 390.183594 745.777344 C 397.074219 745.71875 403.984375 746.824219 410.890625 746.78125 C 417.0625 746.734375 423.25 746.015625 429.453125 746.210938 C 429.199219 745.539062 428.988281 744.832031 428.734375 744.160156 C 428.988281 744.160156 429.257812 744.160156 429.511719 744.175781 L 430.425781 744.203125 L 431.011719 744.894531 C 431.878906 745.910156 433.304688 747.140625 435.132812 747.140625 C 435.613281 747.140625 436.089844 747.050781 436.585938 746.886719 C 438.171875 746.332031 439.148438 744.789062 439.191406 742.753906 L 439.238281 742.304688 L 439.714844 740.941406 L 440.167969 740.582031 C 440.390625 740.402344 440.601562 740.207031 440.824219 740.027344 C 441.019531 740.714844 441.230469 741.40625 441.425781 742.09375 C 441.441406 742.09375 441.453125 742.09375 441.46875 742.09375 C 441.453125 742.125 441.453125 742.136719 441.441406 742.167969 C 451.597656 733.945312 460.601562 724.496094 470.027344 715.5 C 476.902344 708.925781 483.375 701.945312 490.089844 695.222656 C 497.714844 687.585938 505.445312 680.023438 513.085938 672.402344 C 523.695312 661.828125 534.078125 651.015625 544.910156 640.683594 C 559.085938 627.148438 572.703125 613.054688 586.683594 599.324219 C 605.1875 581.113281 623.601562 562.828125 642 544.515625 C 644.367188 542.164062 646.105469 539.648438 645.703125 535.695312 C 645.148438 530.304688 645.207031 524.824219 644.710938 519.386719 C 643.648438 507.738281 642.972656 496.042969 641.804688 484.40625 C 640.773438 474.074219 639.664062 463.742188 639.125 453.363281 C 638.449219 453.527344 637.773438 453.691406 637.101562 453.871094 C 637.101562 453.738281 637.085938 453.601562 637.070312 453.484375 L 636.996094 452.046875 L 638.316406 451.492188 C 652.96875 445.320312 664.789062 437.667969 674.484375 428.101562 C 687.488281 415.253906 695.863281 401.925781 700.117188 387.382812 C 700.507812 385.886719 700.390625 384.582031 699.730469 383.535156 Z M 190.222656 364.609375 C 189.652344 364.609375 189.039062 364.683594 188.394531 364.847656 C 184.078125 365.941406 179.777344 367.167969 175.777344 368.320312 C 166.640625 370.988281 157.515625 373.667969 148.390625 376.347656 L 123.636719 383.609375 C 114.691406 386.230469 105.75 388.835938 96.832031 391.503906 C 94.992188 392.054688 93.132812 392.519531 91.273438 393 C 86.945312 394.109375 82.855469 395.15625 79.035156 397.101562 C 76.410156 398.4375 74.839844 400.636719 75.214844 402.480469 C 75.527344 403.976562 77.609375 405.59375 80.457031 405.652344 L 81.386719 405.445312 C 82.34375 405.234375 83.484375 404.996094 84.59375 404.636719 C 93.65625 401.761719 102.917969 399.066406 111.875 396.445312 L 112.894531 396.144531 C 117.898438 394.691406 122.890625 393.195312 127.878906 391.710938 C 134.949219 389.601562 142.007812 387.503906 149.09375 385.480469 L 157.992188 382.964844 C 163.476562 381.425781 168.976562 379.867188 174.445312 378.28125 C 179.210938 376.902344 184.84375 375.238281 190.582031 373.351562 C 191.808594 372.949219 192.949219 371.960938 193.546875 370.746094 C 194.164062 369.503906 194.222656 368.125 193.710938 366.644531 C 193.261719 365.355469 191.988281 364.609375 190.222656 364.609375 Z M 440.976562 741.988281 C 441.035156 742.242188 441.109375 742.496094 441.171875 742.753906 C 441.246094 742.542969 441.320312 742.332031 441.394531 742.125 C 441.378906 742.09375 441.378906 742.0625 441.363281 742.035156 C 441.246094 742.019531 441.109375 742.003906 440.976562 741.988281 Z M 440.976562 741.988281 " fill-opacity="1" fill-rule="nonzero"/><path fill="#8b0b01" d="M 603.417969 393.042969 C 605.039062 398.539062 605.097656 404.289062 605.742188 409.90625 C 606.625 417.753906 608.632812 425.449219 609.023438 433.371094 C 609.21875 437.265625 607.914062 439.929688 604.769531 442.597656 C 598.027344 448.300781 591.835938 454.652344 585.515625 460.835938 C 577.679688 468.488281 569.960938 476.273438 562.140625 483.925781 C 553.976562 491.910156 545.734375 499.800781 537.539062 507.738281 C 526.585938 518.355469 515.648438 528.988281 504.742188 539.648438 C 490.164062 553.90625 475.675781 568.234375 461.082031 582.476562 C 444.914062 598.246094 428.660156 613.953125 412.476562 629.707031 C 410.484375 631.640625 408.402344 633.554688 406.769531 635.773438 C 404.941406 638.257812 402.617188 638.707031 399.980469 638.152344 C 390.09375 636.070312 380.21875 633.871094 370.332031 631.757812 C 359.421875 629.4375 348.484375 627.191406 337.578125 624.914062 C 337.128906 621.171875 335.691406 618.25 331.570312 617.441406 C 324.886719 616.109375 318.207031 614.761719 311.539062 613.382812 C 310.804688 613.234375 310.011719 613.144531 309.621094 613.773438 C 308.316406 615.871094 305.695312 616.15625 304.195312 617.953125 C 297.542969 616.53125 290.90625 615.105469 284.253906 613.683594 C 285.152344 608.578125 284.015625 606.722656 278.859375 605.433594 C 272.433594 603.816406 265.855469 602.691406 259.515625 600.761719 C 246.828125 596.867188 233.808594 594.320312 220.996094 590.90625 C 206.222656 586.96875 191.332031 583.539062 176.496094 579.855469 C 167.6875 577.667969 158.921875 575.347656 150.113281 573.207031 C 137.917969 570.226562 125.644531 567.5 113.480469 564.402344 C 100.519531 561.09375 87.605469 557.679688 74.539062 554.832031 C 79.214844 550.144531 83.859375 545.414062 88.578125 540.773438 C 98.660156 530.875 108.609375 520.824219 118.933594 511.226562 C 125.269531 505.324219 131.445312 499.1875 137.765625 493.257812 C 144.855469 486.609375 151.535156 479.449219 158.699219 472.859375 C 164.496094 467.515625 170.085938 461.929688 175.792969 456.507812 C 183.164062 449.484375 190.792969 442.65625 197.59375 435.035156 C 198.207031 434.34375 198.910156 433.714844 199.660156 433.175781 C 204.828125 429.417969 208.425781 423.996094 213.25 419.96875 C 218.328125 415.730469 221.894531 409.921875 227.859375 406.625 C 229.582031 405.667969 230.691406 403.601562 232.082031 402.042969 C 237.179688 396.324219 243.246094 391.636719 248.683594 386.292969 C 254.320312 380.765625 259.832031 375.121094 265.421875 369.550781 C 266.078125 368.890625 266.828125 368.351562 267.535156 367.753906 C 278.832031 371.015625 290.515625 372.289062 302.023438 374.402344 C 305.917969 375.105469 309.199219 372.125 309.90625 368.335938 C 310.382812 365.730469 308.0625 362.40625 304.902344 361.777344 C 294.546875 359.710938 284.148438 357.808594 273.78125 355.832031 C 272.328125 346.160156 269.78125 336.710938 267.847656 327.140625 C 263.773438 306.984375 259.96875 286.785156 255.414062 266.730469 C 251.816406 250.976562 249.238281 235.015625 245.570312 219.292969 C 243.214844 209.226562 241.734375 198.984375 239.277344 188.96875 C 238.09375 184.160156 236.398438 179.25 235.890625 174.488281 C 235.125 167.269531 233.101562 160.410156 231.738281 153.386719 C 229.027344 139.386719 225.730469 125.503906 223.078125 111.503906 C 221.519531 103.265625 219.601562 95.121094 217.925781 86.914062 C 216.5 79.980469 218.121094 76.191406 223.484375 73.332031 C 226.808594 71.550781 230.136719 73.332031 233.402344 73.617188 C 244.847656 74.605469 256.175781 76.746094 267.667969 77.703125 C 276.671875 78.4375 285.574219 80.28125 294.5625 81.179688 C 305.425781 82.257812 316.226562 83.84375 327.074219 85.148438 C 335.960938 86.226562 344.859375 87.183594 353.746094 88.261719 C 362.628906 89.339844 371.515625 90.492188 380.398438 91.585938 C 388.59375 92.605469 396.804688 93.609375 405 94.582031 C 418.394531 96.183594 431.789062 97.695312 445.183594 99.34375 C 459.164062 101.066406 473.097656 103.25 487.121094 104.585938 C 496.847656 105.511719 506.480469 107.054688 516.203125 107.953125 C 525.671875 108.835938 535.128906 110.257812 544.582031 111.53125 C 548.042969 111.996094 551.535156 112.265625 555.007812 112.625 C 554.90625 117.433594 556 119.183594 559.820312 120.636719 C 562.320312 121.59375 564.179688 119.769531 566.367188 119.320312 C 568.121094 125.023438 568.058594 131 568.945312 136.824219 C 570.953125 149.914062 572.570312 163.046875 574.1875 176.195312 C 574.683594 180.222656 575.699219 184.207031 575.386719 188.324219 C 574.292969 189.207031 573.289062 190.210938 572.105469 190.929688 C 569.421875 192.546875 568.734375 194.914062 569.078125 197.816406 C 569.78125 203.808594 570.621094 209.78125 571.3125 215.789062 C 573.109375 231.464844 575.445312 247.085938 577.527344 262.71875 C 579.867188 280.195312 582.160156 297.683594 584.464844 315.175781 C 586.546875 330.960938 588.617188 346.757812 590.714844 362.539062 C 591.644531 369.550781 592.929688 376.542969 593.5 383.582031 C 594.070312 391.066406 596.019531 393.238281 603.417969 393.042969 Z M 382.570312 396.445312 C 382.632812 395.769531 382.570312 395.050781 382.78125 394.421875 C 389.417969 374.671875 396.085938 354.933594 402.722656 335.183594 C 408.492188 318.019531 414.199219 300.84375 419.96875 283.683594 C 420.402344 282.378906 420.402344 281.511719 419.296875 280.328125 C 415.414062 276.164062 411.832031 271.734375 408.042969 267.496094 C 406.183594 265.429688 404.265625 263.75 400.941406 263.992188 C 394.035156 264.484375 387.082031 264.5 380.144531 264.648438 C 373.433594 264.785156 366.675781 264.53125 360.023438 264.980469 C 352.515625 265.488281 345.011719 265.292969 337.503906 265.894531 C 330.222656 266.492188 322.863281 266.296875 315.554688 266.148438 C 311.835938 266.074219 309.320312 267.707031 306.730469 270.042969 C 303.34375 273.109375 299.746094 276.03125 295.882812 278.457031 C 290.921875 281.558594 289.363281 285.105469 291.582031 290.40625 C 294.636719 297.730469 297.648438 305.082031 300.871094 312.34375 C 305.695312 323.1875 310.191406 334.195312 314.804688 345.109375 C 319.765625 356.835938 324.8125 368.546875 329.382812 380.449219 C 330.984375 384.597656 332.589844 388.746094 334.207031 392.894531 C 332.949219 393.898438 331.433594 393.929688 329.9375 394.199219 C 318.429688 396.234375 307.523438 399.964844 297.09375 405.277344 C 292.496094 407.613281 288.507812 410.804688 284.042969 413.289062 C 278.515625 416.359375 273.839844 420.71875 269.496094 425.105469 C 263.757812 430.902344 258.902344 437.609375 254.09375 444.242188 C 251.128906 448.332031 248.296875 452.765625 246.617188 457.464844 C 244.039062 464.746094 239.710938 471.394531 239.109375 479.464844 C 238.75 484.347656 240.503906 487.386719 245.433594 487.550781 C 248.566406 487.640625 251.472656 486.5625 254.09375 485.15625 C 269.0625 477.113281 283.699219 468.503906 297.335938 458.351562 C 300.585938 455.9375 304.332031 454.203125 307.148438 451.160156 C 310.398438 447.65625 313.769531 444.257812 317.679688 441.472656 C 326.789062 440.769531 335.527344 442.851562 344.019531 445.652344 C 359.976562 450.90625 374.480469 458.917969 387.050781 470.164062 C 394.050781 476.425781 400.175781 483.34375 403.636719 492.3125 C 404.671875 494.992188 406.199219 497.570312 409.167969 498.753906 C 412.207031 499.980469 414.425781 498.332031 416.65625 496.6875 C 418.785156 502.078125 420.867188 507.496094 423.070312 512.859375 C 425.4375 518.640625 433.242188 520.945312 437.46875 517.171875 C 448.300781 507.46875 459.148438 497.792969 469.9375 488.03125 C 472.542969 485.664062 473.339844 482.59375 472.632812 479.105469 C 471.886719 475.40625 470.011719 472.140625 468.484375 468.816406 C 465.59375 462.527344 462.222656 456.476562 458.371094 450.652344 C 454.714844 445.113281 450.9375 439.722656 446.429688 434.882812 C 434.742188 422.335938 421.199219 412.183594 405.71875 404.753906 C 398.304688 401.160156 390.707031 397.988281 382.570312 396.445312 Z M 405.179688 384.269531 C 401.523438 383.910156 398.949219 385.839844 398.4375 389.242188 C 397.988281 392.222656 400.523438 395.726562 403.652344 396.398438 C 417.183594 399.304688 430.742188 402.105469 444.257812 405.097656 C 461.621094 408.933594 478.941406 412.929688 496.292969 416.808594 C 510.914062 420.074219 525.570312 423.21875 540.191406 426.484375 C 555.742188 429.957031 571.28125 433.535156 586.832031 436.980469 C 589.425781 437.550781 592.257812 437.175781 593.933594 435.109375 C 597.546875 430.675781 596.992188 426.511719 591 425.253906 C 581.035156 423.175781 571.207031 420.523438 561.167969 418.816406 C 556.417969 418.007812 551.757812 416.601562 547.144531 415.191406 C 542.078125 413.664062 536.535156 414.277344 531.742188 412.390625 C 526.09375 410.160156 520.191406 409.234375 514.421875 407.988281 C 503.8125 405.683594 493.308594 402.851562 482.644531 400.875 C 472.917969 399.078125 463.433594 396.355469 453.726562 394.617188 C 448.570312 393.703125 443.628906 392.070312 438.5625 390.917969 C 433.484375 389.75 428.328125 388.882812 423.207031 387.863281 C 417.210938 386.636719 411.429688 384.3125 405.179688 384.269531 Z M 304.03125 226.957031 C 307.851562 226.988281 309.964844 225.386719 310.847656 221.449219 C 311.792969 217.226562 312.929688 213.105469 315.449219 209.511719 C 318.65625 204.960938 322.414062 201.230469 328.050781 199.597656 C 330.984375 198.746094 333.261719 196.394531 332.558594 193.027344 C 331.929688 190 329.578125 187.828125 326.386719 187.8125 C 320.738281 187.800781 317.785156 184.28125 315.300781 180.042969 C 313.171875 176.417969 311.746094 172.554688 311.253906 168.300781 C 310.730469 163.898438 307.972656 161.144531 304.632812 161.097656 C 300.226562 161.039062 297.828125 163.71875 297.066406 169.230469 C 296.269531 175.011719 293.664062 179.996094 289.976562 184.476562 C 287.640625 187.320312 284.359375 187.273438 281.136719 187.875 C 278.589844 188.351562 276.449219 190.164062 275.910156 192.90625 C 275.355469 195.617188 276.835938 197.609375 279.144531 198.925781 C 280.132812 199.496094 281.226562 199.914062 282.320312 200.304688 C 284.300781 201.023438 286.082031 201.980469 287.699219 203.417969 C 292.871094 207.984375 296.015625 213.601562 297.335938 220.355469 C 298.234375 225.070312 300.285156 226.929688 304.03125 226.957031 Z M 384.308594 238.039062 C 387.5625 238.023438 389.34375 236.316406 390.242188 232.363281 C 392.191406 223.828125 396.25 217.089844 405.078125 214.035156 C 407.625 213.152344 409.675781 211.144531 408.972656 208.179688 C 408.34375 205.574219 406.335938 203.777344 403.441406 203.703125 C 399.382812 203.597656 396.789062 201.425781 394.722656 198.175781 C 392.460938 194.582031 390.933594 190.78125 390.316406 186.542969 C 389.71875 182.4375 387.410156 180.371094 384.011719 180.445312 C 380.9375 180.507812 378.648438 182.738281 378.183594 186.660156 C 377.914062 188.90625 377.417969 191.125 376.472656 193.027344 C 374.136719 197.742188 372.277344 203.207031 365.640625 203.582031 C 362.496094 203.761719 360.066406 205.304688 359.542969 208.300781 C 358.914062 211.804688 361.597656 213.453125 364.519531 214.484375 C 366.511719 215.1875 368.339844 216.085938 369.941406 217.539062 C 374.421875 221.597656 377.164062 226.554688 378.316406 232.484375 C 379.050781 236.363281 381.042969 238.054688 384.308594 238.039062 Z M 351.585938 168.855469 C 355.316406 168.929688 356.515625 166.488281 357.222656 163.390625 C 358.867188 156.050781 362.523438 150.332031 370.03125 147.683594 C 372.382812 146.859375 374.242188 145.136719 373.6875 142.441406 C 373.179688 139.984375 371.261719 138.503906 368.652344 138.382812 C 365.148438 138.21875 362.871094 136.375 361.070312 133.53125 C 359.125 130.429688 357.746094 127.179688 357.234375 123.527344 C 356.710938 119.828125 354.71875 117.746094 351.902344 117.6875 C 348.84375 117.628906 346.914062 119.617188 346.238281 123.558594 C 346.164062 124.023438 346.238281 124.515625 346.089844 124.949219 C 343.917969 131.222656 342.386719 137.949219 333.773438 138.59375 C 331.734375 138.742188 329.9375 140.402344 329.773438 142.828125 C 329.609375 145.253906 331.136719 146.738281 333.171875 147.621094 C 335.195312 148.492188 337.265625 149.105469 338.988281 150.675781 C 342.925781 154.269531 345.414062 158.582031 346.386719 163.808594 C 346.929688 166.65625 348.246094 168.8125 351.585938 168.855469 Z M 351.585938 168.855469 " fill-opacity="1" fill-rule="nonzero"/><path fill="#3a1616" d="M 639.09375 453.304688 C 633.128906 454.695312 627.363281 456.882812 621.070312 456.941406 C 617.726562 456.972656 615.734375 455.296875 614.265625 452.914062 C 613.203125 451.191406 613.621094 449.304688 615.179688 447.539062 C 618.085938 444.273438 621.773438 443.390625 625.847656 442.746094 C 637.835938 440.828125 648.1875 435.617188 657.957031 428.234375 C 666.84375 421.527344 673.464844 413.171875 679.890625 404.457031 C 684.042969 398.824219 687.113281 392.550781 689.046875 385.828125 C 690.125 382.066406 693.183594 380.871094 696.042969 379.238281 C 700.808594 380.015625 703.296875 383.59375 702.035156 387.894531 C 697.257812 404.230469 687.847656 417.664062 675.875 429.492188 C 665.285156 439.976562 652.773438 447.539062 639.09375 453.304688 Z M 437.199219 748.773438 C 439.65625 747.917969 441.125 745.597656 441.183594 742.753906 C 441.125 742.496094 441.050781 742.242188 440.992188 741.988281 C 441.140625 742.003906 441.289062 742.019531 441.425781 742.035156 C 441.425781 742.035156 441.394531 742.109375 441.394531 742.109375 C 438.1875 731.160156 434.980469 720.214844 431.761719 709.269531 C 428.195312 697.167969 424.628906 685.085938 421.003906 673 C 419.386719 667.578125 417.738281 662.15625 415.878906 656.828125 C 414.90625 654.011719 412.671875 651.691406 409.601562 652.632812 C 404.957031 654.054688 402.617188 658.25 403.726562 661.949219 C 409.617188 681.535156 415.503906 701.105469 421.484375 720.648438 C 424.089844 729.171875 426.246094 737.8125 429.378906 746.167969 C 431.476562 748.636719 434.277344 749.789062 437.199219 748.773438 Z M 73.789062 554.847656 C 69.191406 554.90625 65.9375 557.09375 65.652344 560.34375 C 65.371094 563.625 67.992188 566.46875 72.277344 567.605469 C 82.914062 570.421875 93.65625 572.804688 104.296875 575.542969 C 123.054688 580.363281 141.886719 584.859375 160.660156 589.574219 C 173.125 592.703125 185.578125 595.863281 198.058594 598.902344 C 210.222656 601.867188 222.433594 604.609375 234.585938 607.589844 C 247.859375 610.839844 261.089844 614.296875 274.367188 617.578125 C 279.023438 618.730469 281.484375 617.636719 284.195312 613.652344 C 285.09375 608.546875 283.953125 606.691406 278.800781 605.402344 C 272.371094 603.785156 265.796875 602.664062 259.457031 600.730469 C 246.765625 596.835938 233.746094 594.292969 220.9375 590.878906 C 206.164062 586.9375 191.269531 583.511719 176.4375 579.824219 C 167.628906 577.640625 158.863281 575.320312 150.050781 573.175781 C 137.855469 570.195312 125.585938 567.472656 113.417969 564.371094 C 100.460938 561.0625 87.542969 557.648438 74.480469 554.804688 C 74.253906 554.804688 74.03125 554.847656 73.789062 554.847656 Z M 606.761719 383.492188 C 604.976562 370.433594 602.773438 357.417969 601.320312 344.316406 C 599.867188 331.125 597.980469 317.976562 596.289062 304.8125 C 595.238281 296.652344 593.933594 288.519531 592.871094 280.375 C 591.117188 266.941406 589.558594 253.480469 587.746094 240.046875 C 585.828125 225.789062 583.433594 211.578125 581.84375 197.277344 C 581.320312 192.546875 579.898438 189.566406 575.339844 188.277344 C 574.246094 189.160156 573.242188 190.164062 572.058594 190.882812 C 569.378906 192.5 568.6875 194.867188 569.035156 197.773438 C 569.738281 203.761719 570.578125 209.738281 571.265625 215.742188 C 573.0625 231.421875 575.402344 247.039062 577.484375 262.671875 C 579.820312 280.148438 582.113281 297.640625 584.421875 315.128906 C 586.503906 330.914062 588.570312 346.710938 590.667969 362.496094 C 591.597656 369.503906 592.886719 376.496094 593.457031 383.535156 C 594.070312 391.082031 596.019531 393.253906 603.417969 393.058594 C 607.148438 390.785156 607.253906 387.175781 606.761719 383.492188 Z M 569.214844 116.832031 C 574.757812 113.226562 580.269531 109.601562 585.738281 105.886719 C 598.609375 97.15625 611.480469 88.441406 624.277344 79.605469 C 628.140625 76.925781 632.621094 74.949219 635.378906 70.859375 C 637.28125 68.046875 636.230469 62.59375 633.296875 61.964844 C 630.734375 61.410156 627.828125 61.859375 625.414062 63.554688 C 622.957031 65.289062 620.457031 66.980469 617.96875 68.660156 C 601.5625 79.785156 585.082031 90.835938 568.765625 102.082031 C 564.015625 105.363281 558.816406 108.132812 554.949219 112.597656 C 554.84375 117.402344 555.9375 119.15625 559.757812 120.605469 C 562.261719 121.566406 564.121094 119.738281 566.308594 119.289062 C 567.085938 118.242188 568.121094 117.539062 569.214844 116.832031 Z M 265.179688 360.789062 C 264.460938 363.648438 266.019531 365.640625 267.488281 367.707031 C 278.785156 370.972656 290.472656 372.246094 301.980469 374.355469 C 305.875 375.058594 309.15625 372.078125 309.859375 368.292969 C 310.339844 365.6875 308.015625 362.359375 304.855469 361.730469 C 294.503906 359.664062 284.105469 357.765625 273.738281 355.789062 C 270.320312 356.476562 266.351562 356.148438 265.179688 360.789062 Z M 310.652344 627.085938 C 316.542969 628.316406 322.445312 629.511719 328.363281 630.546875 C 333.699219 631.472656 335.824219 630.066406 337.546875 624.929688 C 337.097656 621.1875 335.660156 618.265625 331.539062 617.457031 C 324.859375 616.125 318.175781 614.777344 311.507812 613.398438 C 310.773438 613.25 309.980469 613.160156 309.589844 613.789062 C 308.285156 615.886719 305.664062 616.171875 304.167969 617.96875 C 302.667969 623.746094 306.414062 626.1875 310.652344 627.085938 Z M 398.4375 389.242188 C 397.988281 392.222656 400.523438 395.726562 403.652344 396.398438 C 417.183594 399.304688 430.742188 402.105469 444.257812 405.097656 C 461.621094 408.933594 478.941406 412.929688 496.292969 416.808594 C 510.914062 420.074219 525.570312 423.21875 540.191406 426.484375 C 555.742188 429.957031 571.28125 433.535156 586.832031 436.980469 C 589.425781 437.550781 592.257812 437.175781 593.933594 435.109375 C 597.546875 430.675781 596.992188 426.511719 591 425.253906 C 581.035156 423.175781 571.207031 420.523438 561.167969 418.816406 C 556.417969 418.007812 551.757812 416.601562 547.144531 415.191406 C 542.078125 413.664062 536.535156 414.277344 531.742188 412.390625 C 526.09375 410.160156 520.191406 409.234375 514.421875 407.988281 C 503.8125 405.683594 493.308594 402.851562 482.644531 400.875 C 472.917969 399.078125 463.433594 396.355469 453.726562 394.617188 C 448.570312 393.703125 443.628906 392.070312 438.5625 390.917969 C 433.484375 389.75 428.328125 388.882812 423.207031 387.863281 C 417.199219 386.652344 411.398438 384.328125 405.152344 384.285156 C 401.523438 383.910156 398.949219 385.839844 398.4375 389.242188 Z M 344.007812 445.636719 C 359.960938 450.890625 374.464844 458.902344 387.035156 470.148438 C 394.035156 476.410156 400.160156 483.328125 403.621094 492.296875 C 404.65625 494.976562 406.183594 497.554688 409.152344 498.738281 C 412.191406 499.964844 414.410156 498.316406 416.644531 496.671875 C 418.097656 493.449219 417.976562 490.5625 416.296875 487.191406 C 411.832031 478.28125 406.246094 470.464844 398.542969 463.980469 C 391.277344 457.871094 384.789062 450.9375 376.007812 446.625 C 372.90625 445.097656 369.703125 443.480469 366.691406 441.609375 C 360.875 438 354.402344 435.722656 347.945312 433.746094 C 342.28125 432.023438 336.574219 430.390625 330.507812 429.734375 C 324.828125 429.117188 319.253906 428.535156 313.605469 429.148438 C 307.011719 429.867188 300.359375 429.824219 293.886719 432.039062 C 290.890625 433.074219 287.804688 434 284.914062 435.257812 C 281.40625 436.785156 278.1875 438.972656 274.769531 440.753906 C 269.511719 443.496094 265.285156 447.734375 260.101562 450.59375 C 259.652344 450.847656 259.382812 451.507812 259.128906 452.015625 C 257.929688 454.472656 258.050781 456.941406 260.117188 458.753906 C 262.109375 460.507812 264.34375 461.855469 267.367188 460.386719 C 272.222656 458.035156 276.117188 454.320312 280.644531 451.507812 C 292 444.421875 304.332031 441.203125 317.636719 441.457031 C 326.777344 440.753906 335.511719 442.835938 344.007812 445.636719 Z M 344.007812 445.636719 " fill-opacity="1" fill-rule="nonzero"/><path fill="#fff2dc" d="M 382.570312 396.445312 C 381.34375 399.4375 380.191406 402.449219 379.214844 405.546875 C 377.628906 410.582031 372.90625 413.15625 367.347656 412.527344 C 362.855469 412.019531 358.34375 411.210938 353.851562 411.3125 C 349.503906 411.417969 346.015625 409.683594 342.417969 407.824219 C 340.738281 406.957031 339.945312 405.429688 339.195312 403.855469 C 337.503906 400.21875 335.839844 396.5625 334.175781 392.925781 C 332.574219 388.777344 330.957031 384.628906 329.351562 380.480469 C 324.78125 368.589844 319.734375 356.867188 314.773438 345.140625 C 310.160156 334.222656 305.664062 323.21875 300.839844 312.375 C 297.617188 305.113281 294.621094 297.757812 291.550781 290.4375 C 289.332031 285.136719 290.890625 281.601562 295.851562 278.488281 C 299.714844 276.0625 303.3125 273.125 306.699219 270.070312 C 309.304688 267.71875 311.824219 266.089844 315.523438 266.179688 C 322.835938 266.328125 330.191406 266.523438 337.472656 265.921875 C 344.980469 265.308594 352.488281 265.503906 359.992188 265.007812 C 366.644531 264.558594 373.402344 264.816406 380.113281 264.679688 C 387.050781 264.546875 394.003906 264.515625 400.910156 264.019531 C 404.238281 263.78125 406.15625 265.445312 408.011719 267.527344 C 411.804688 271.761719 415.398438 276.195312 419.265625 280.359375 C 420.359375 281.542969 420.375 282.394531 419.9375 283.714844 C 414.171875 300.875 408.460938 318.050781 402.695312 335.210938 C 396.054688 354.964844 389.390625 374.699219 382.75 394.453125 C 382.570312 395.050781 382.632812 395.769531 382.570312 396.445312 Z M 332.679688 312.644531 C 334.867188 313.214844 336.378906 312.421875 337.996094 312.34375 C 352.410156 311.625 366.839844 310.996094 381.253906 310.203125 C 384.023438 310.054688 386.871094 310.5625 389.480469 308.453125 C 396.6875 302.613281 404.058594 296.964844 411.550781 291.484375 C 414.664062 289.210938 415.398438 286.394531 414.695312 282.996094 C 413.960938 279.460938 410.425781 278.082031 407.277344 279.835938 C 400.640625 283.519531 394.949219 288.476562 388.910156 292.984375 C 387.066406 294.359375 385.480469 296.578125 383.082031 296.589844 C 376.460938 296.652344 369.882812 297.308594 363.289062 297.699219 C 351.347656 298.402344 339.375 298.761719 327.421875 299.300781 C 325.800781 299.378906 324.511719 298.851562 323.269531 297.835938 C 318.773438 294.152344 314.25 290.480469 309.636719 286.949219 C 307.734375 285.480469 305.09375 283.339844 303.238281 284.164062 C 300.855469 285.210938 297.84375 286.871094 297.304688 290.121094 C 296.765625 293.296875 298.710938 295.242188 301.109375 297.011719 C 305.695312 300.367188 310.175781 303.871094 314.640625 307.386719 C 316.273438 308.691406 317.847656 310.144531 318.550781 312.226562 C 321.847656 321.882812 325.171875 331.542969 328.394531 341.230469 C 332.980469 354.980469 337.472656 368.753906 342.027344 382.515625 C 342.613281 384.285156 343.242188 386.019531 343.960938 387.742188 C 345.265625 390.875 348.472656 393.042969 351.347656 392.492188 C 354.449219 391.890625 355.769531 389.855469 356.261719 386.605469 C 356.667969 383.953125 355.917969 381.796875 355.183594 379.523438 C 351.46875 367.960938 347.121094 356.625 343.675781 344.976562 C 340.484375 334.3125 336.53125 323.90625 332.679688 312.644531 Z M 367.019531 369.742188 C 367.003906 374.820312 369.371094 377.921875 372.90625 378.113281 C 375.90625 378.28125 379.007812 375.164062 379.664062 371.421875 C 382.019531 358.136719 384.308594 344.839844 386.871094 331.601562 C 387.335938 329.238281 386.871094 327.171875 386.226562 325.132812 C 385.703125 323.515625 384.640625 321.691406 382.707031 321.390625 C 379.933594 320.941406 374.554688 325.375 374.0625 328.1875 C 372.894531 334.914062 371.695312 341.636719 370.554688 348.359375 C 369.3125 355.699219 368.128906 363.019531 367.019531 369.742188 Z M 310.847656 221.449219 C 311.792969 217.226562 312.929688 213.105469 315.449219 209.511719 C 318.65625 204.960938 322.414062 201.230469 328.050781 199.597656 C 330.984375 198.746094 333.261719 196.394531 332.558594 193.027344 C 331.929688 190 329.578125 187.828125 326.386719 187.8125 C 320.738281 187.800781 317.785156 184.28125 315.300781 180.042969 C 313.171875 176.417969 311.746094 172.554688 311.253906 168.300781 C 310.730469 163.898438 307.972656 161.144531 304.632812 161.097656 C 300.226562 161.039062 297.828125 163.71875 297.066406 169.230469 C 296.269531 175.011719 293.664062 179.996094 289.976562 184.476562 C 287.640625 187.320312 284.359375 187.273438 281.136719 187.875 C 278.589844 188.351562 276.449219 190.164062 275.910156 192.90625 C 275.355469 195.617188 276.835938 197.609375 279.144531 198.925781 C 280.132812 199.496094 281.226562 199.914062 282.320312 200.304688 C 284.300781 201.023438 286.082031 201.980469 287.699219 203.417969 C 292.871094 207.984375 296.015625 213.601562 297.335938 220.355469 C 298.25 225.058594 300.316406 226.898438 304.046875 226.929688 C 307.835938 226.972656 309.964844 225.386719 310.847656 221.449219 Z M 390.242188 232.363281 C 392.191406 223.828125 396.25 217.089844 405.078125 214.035156 C 407.625 213.152344 409.675781 211.144531 408.972656 208.179688 C 408.34375 205.574219 406.335938 203.777344 403.441406 203.703125 C 399.382812 203.597656 396.789062 201.425781 394.722656 198.175781 C 392.460938 194.582031 390.933594 190.78125 390.316406 186.542969 C 389.71875 182.4375 387.410156 180.371094 384.011719 180.445312 C 380.9375 180.507812 378.648438 182.738281 378.183594 186.660156 C 377.914062 188.90625 377.417969 191.125 376.472656 193.027344 C 374.136719 197.742188 372.277344 203.207031 365.640625 203.582031 C 362.496094 203.761719 360.066406 205.304688 359.542969 208.300781 C 358.914062 211.804688 361.597656 213.453125 364.519531 214.484375 C 366.511719 215.1875 368.339844 216.085938 369.941406 217.539062 C 374.421875 221.597656 377.164062 226.554688 378.316406 232.484375 C 379.066406 236.347656 381.058594 238.054688 384.324219 238.039062 C 387.546875 238.011719 389.34375 236.316406 390.242188 232.363281 Z M 357.222656 163.390625 C 358.867188 156.050781 362.523438 150.332031 370.03125 147.683594 C 372.382812 146.859375 374.242188 145.136719 373.6875 142.441406 C 373.179688 139.984375 371.261719 138.503906 368.652344 138.382812 C 365.148438 138.21875 362.871094 136.375 361.070312 133.53125 C 359.125 130.429688 357.746094 127.179688 357.234375 123.527344 C 356.710938 119.828125 354.71875 117.746094 351.902344 117.6875 C 348.84375 117.628906 346.914062 119.617188 346.238281 123.558594 C 346.164062 124.023438 346.238281 124.515625 346.089844 124.949219 C 343.917969 131.222656 342.386719 137.949219 333.773438 138.59375 C 331.734375 138.742188 329.9375 140.402344 329.773438 142.828125 C 329.609375 145.253906 331.136719 146.738281 333.171875 147.621094 C 335.195312 148.492188 337.265625 149.105469 338.988281 150.675781 C 342.925781 154.269531 345.414062 158.582031 346.386719 163.808594 C 346.929688 166.683594 348.246094 168.828125 351.585938 168.871094 C 355.316406 168.917969 356.515625 166.488281 357.222656 163.390625 Z M 439.132812 441.503906 C 438.097656 438.6875 436.449219 435.917969 434.144531 434.089844 C 430.246094 431.007812 426.710938 427.546875 422.875 424.402344 C 415.488281 418.351562 407.636719 413.1875 398.964844 409.324219 C 396.941406 408.421875 394.574219 407.660156 392.3125 409.425781 C 390.527344 410.820312 389.464844 412.511719 389.570312 414.757812 C 389.71875 418.21875 391.890625 420 394.917969 421.300781 C 406.515625 426.320312 415.820312 434.523438 424.929688 443 C 427.117188 445.039062 428.644531 448.316406 432.136719 447.925781 C 436.929688 447.925781 440.332031 444.796875 439.132812 441.503906 Z M 450.25 455.878906 C 447.792969 453.769531 445.410156 453.917969 443.058594 455.847656 C 440.496094 457.945312 439.761719 461.40625 441.574219 463.890625 C 443.148438 466.03125 444.976562 468.054688 447 469.761719 C 449.246094 471.648438 452.0625 471.363281 454.519531 470.179688 C 456.152344 469.386719 456.542969 467.46875 456.722656 466.046875 C 456.542969 461.105469 453.351562 458.542969 450.25 455.878906 Z M 450.25 455.878906 " fill-opacity="1" fill-rule="nonzero"/><g clip-path="url(#3fd62d2c54)"><path fill="#fcae00" d="M 198.042969 335.332031 C 197.984375 340.527344 194.253906 343.328125 189.335938 342.070312 C 173.710938 338.027344 158.070312 334.015625 142.53125 329.582031 C 133.796875 327.082031 124.898438 325.164062 116.101562 322.8125 C 105.179688 319.890625 94.332031 316.71875 83.425781 313.769531 C 73.65625 311.117188 63.839844 308.617188 54.042969 306.054688 C 53.039062 305.785156 51.976562 305.621094 51.074219 305.15625 C 48.917969 304.035156 47.375 302.460938 47.195312 299.78125 C 47.015625 297.039062 48.84375 295.574219 50.597656 294.121094 C 52.875 292.21875 55.332031 292.339844 58.222656 293.117188 C 73.054688 297.085938 87.917969 300.859375 102.691406 305.066406 C 112.773438 307.941406 122.933594 310.5625 133.0625 313.257812 C 142.964844 315.894531 152.929688 318.441406 162.847656 321 C 170.398438 322.949219 178.027344 324.820312 185.503906 327.125 C 188.484375 328.039062 191.585938 328.546875 194.402344 330.015625 C 196.695312 331.214844 197.742188 333.128906 198.042969 335.332031 Z M 85.207031 406.582031 C 94.585938 403.601562 104.023438 400.863281 113.464844 398.121094 C 125.539062 394.601562 137.558594 390.902344 149.664062 387.460938 C 158.113281 385.0625 166.59375 382.695312 175.027344 380.257812 C 180.453125 378.683594 185.863281 377.066406 191.242188 375.3125 C 194.3125 374.3125 197.277344 370.6875 195.660156 366 C 194.730469 363.289062 191.734375 361.898438 187.914062 362.855469 C 183.660156 363.917969 179.433594 365.132812 175.222656 366.359375 C 161.890625 370.253906 148.554688 374.191406 135.21875 378.101562 C 122.230469 381.917969 109.222656 385.675781 96.265625 389.554688 C 90.195312 391.367188 83.859375 392.386719 78.121094 395.289062 C 74.703125 397.027344 72.652344 400.082031 73.234375 402.898438 C 73.773438 405.546875 76.9375 407.734375 80.695312 407.703125 C 81.835938 407.421875 83.558594 407.105469 85.207031 406.582031 Z M 110.347656 232.695312 C 109.285156 235.882812 110.738281 238.054688 113.226562 239.851562 C 116.894531 242.503906 120.519531 245.183594 124.164062 247.863281 C 137.46875 257.628906 150.90625 267.210938 164.015625 277.214844 C 173.785156 284.671875 183.988281 291.546875 193.503906 299.363281 C 196.230469 301.59375 199.332031 303.511719 202.628906 305.066406 C 205.925781 306.625 208.320312 305.726562 210.222656 303.121094 C 212.113281 300.53125 211.664062 296.308594 209.191406 294.210938 C 202.074219 288.175781 194.460938 282.753906 186.804688 277.4375 C 180.421875 273.007812 174.234375 268.289062 168.09375 263.570312 C 159.027344 256.59375 149.347656 250.46875 140.523438 243.132812 C 134.964844 238.503906 128.671875 234.777344 123.1875 230 C 121.644531 228.652344 119.90625 227.46875 118.46875 227.421875 C 115.621094 227.46875 111.007812 230.746094 110.347656 232.695312 Z M 280.671875 451.507812 C 276.148438 454.320312 272.253906 458.035156 267.398438 460.386719 C 264.371094 461.855469 262.140625 460.507812 260.148438 458.753906 C 258.078125 456.941406 257.972656 454.472656 259.15625 452.015625 C 259.414062 451.492188 259.667969 450.832031 260.132812 450.59375 C 265.300781 447.746094 269.542969 443.496094 274.800781 440.753906 C 278.214844 438.972656 281.4375 436.785156 284.945312 435.257812 C 287.835938 434 290.921875 433.074219 293.917969 432.039062 C 300.390625 429.824219 307.042969 429.867188 313.636719 429.148438 C 319.285156 428.535156 324.859375 429.117188 330.535156 429.734375 C 336.605469 430.390625 342.3125 432.023438 347.976562 433.746094 C 354.433594 435.722656 360.921875 438 366.71875 441.609375 C 369.730469 443.480469 372.9375 445.097656 376.039062 446.625 C 384.804688 450.9375 391.292969 457.871094 398.574219 463.980469 C 406.273438 470.449219 411.863281 478.28125 416.328125 487.191406 C 418.007812 490.546875 418.125 493.449219 416.671875 496.671875 C 418.800781 502.0625 420.882812 507.480469 423.085938 512.84375 C 425.453125 518.625 433.257812 520.929688 437.484375 517.15625 C 448.316406 507.453125 459.164062 497.777344 469.953125 488.015625 C 472.558594 485.648438 473.351562 482.578125 472.648438 479.089844 C 471.898438 475.390625 470.027344 472.125 468.5 468.800781 C 465.605469 462.511719 462.234375 456.464844 458.386719 450.636719 C 454.730469 445.097656 450.953125 439.707031 446.445312 434.871094 C 434.757812 422.320312 421.210938 412.167969 405.734375 404.738281 C 398.335938 401.191406 390.753906 398 382.601562 396.472656 C 381.375 399.46875 380.21875 402.480469 379.246094 405.578125 C 377.65625 410.609375 372.9375 413.1875 367.378906 412.558594 C 362.882812 412.046875 358.375 411.238281 353.878906 411.34375 C 349.535156 411.449219 346.042969 409.710938 342.449219 407.855469 C 340.769531 406.984375 339.976562 405.457031 339.226562 403.886719 C 337.535156 400.246094 335.871094 396.59375 334.207031 392.953125 C 332.949219 393.957031 331.433594 393.988281 329.9375 394.257812 C 318.429688 396.292969 307.523438 400.023438 297.09375 405.339844 C 292.496094 407.675781 288.507812 410.863281 284.042969 413.351562 C 278.515625 416.421875 273.839844 420.777344 269.496094 425.164062 C 263.757812 430.960938 258.902344 437.667969 254.09375 444.304688 C 251.128906 448.390625 248.296875 452.824219 246.617188 457.527344 C 244.039062 464.804688 239.710938 471.453125 239.109375 479.523438 C 238.75 484.40625 240.503906 487.445312 245.433594 487.609375 C 248.566406 487.699219 251.472656 486.621094 254.09375 485.214844 C 269.0625 477.171875 283.699219 468.5625 297.335938 458.410156 C 300.585938 456 304.332031 454.261719 307.148438 451.222656 C 310.398438 447.71875 313.769531 444.320312 317.679688 441.535156 C 304.347656 441.203125 292.03125 444.421875 280.671875 451.507812 Z M 424.914062 443 C 415.804688 434.523438 406.5 426.304688 394.902344 421.300781 C 391.875 420 389.71875 418.21875 389.554688 414.757812 C 389.449219 412.511719 390.511719 410.820312 392.296875 409.425781 C 394.542969 407.660156 396.925781 408.425781 398.949219 409.324219 C 407.636719 413.1875 415.472656 418.351562 422.859375 424.402344 C 426.695312 427.546875 430.234375 431.007812 434.128906 434.089844 C 436.433594 435.917969 438.082031 438.671875 439.117188 441.503906 C 440.316406 444.796875 436.929688 447.925781 432.105469 447.925781 C 428.628906 448.300781 427.117188 445.039062 424.914062 443 Z M 454.519531 470.164062 C 452.0625 471.347656 449.246094 471.648438 447 469.746094 C 444.976562 468.039062 443.148438 466.015625 441.574219 463.875 C 439.761719 461.390625 440.496094 457.929688 443.058594 455.835938 C 445.410156 453.902344 447.792969 453.753906 450.25 455.863281 C 453.351562 458.53125 456.542969 461.089844 456.722656 466.03125 C 456.542969 467.453125 456.152344 469.386719 454.519531 470.164062 Z M 337.996094 312.34375 C 352.410156 311.625 366.839844 310.996094 381.253906 310.203125 C 384.023438 310.054688 386.871094 310.5625 389.480469 308.453125 C 396.6875 302.613281 404.058594 296.964844 411.550781 291.484375 C 414.664062 289.210938 415.398438 286.394531 414.695312 282.996094 C 413.960938 279.460938 410.425781 278.082031 407.277344 279.835938 C 400.640625 283.519531 394.949219 288.476562 388.910156 292.984375 C 387.066406 294.359375 385.480469 296.578125 383.082031 296.589844 C 376.460938 296.652344 369.882812 297.308594 363.289062 297.699219 C 351.347656 298.402344 339.375 298.761719 327.421875 299.300781 C 325.800781 299.378906 324.511719 298.851562 323.269531 297.835938 C 318.773438 294.152344 314.25 290.480469 309.636719 286.949219 C 307.734375 285.480469 305.09375 283.339844 303.238281 284.164062 C 300.855469 285.210938 297.84375 286.871094 297.304688 290.121094 C 296.765625 293.296875 298.710938 295.242188 301.109375 297.011719 C 305.695312 300.367188 310.175781 303.871094 314.640625 307.386719 C 316.273438 308.691406 317.847656 310.144531 318.550781 312.226562 C 321.847656 321.882812 325.171875 331.542969 328.394531 341.230469 C 332.980469 354.980469 337.472656 368.753906 342.027344 382.515625 C 342.613281 384.285156 343.242188 386.019531 343.960938 387.742188 C 345.265625 390.875 348.472656 393.042969 351.347656 392.492188 C 354.449219 391.890625 355.769531 389.855469 356.261719 386.605469 C 356.667969 383.953125 355.917969 381.796875 355.183594 379.523438 C 351.46875 367.960938 347.121094 356.625 343.675781 344.976562 C 340.53125 334.328125 336.574219 323.921875 332.722656 312.675781 C 334.867188 313.214844 336.394531 312.421875 337.996094 312.34375 Z M 372.90625 378.113281 C 375.90625 378.28125 379.007812 375.164062 379.664062 371.421875 C 382.019531 358.136719 384.308594 344.839844 386.871094 331.601562 C 387.335938 329.238281 386.871094 327.171875 386.226562 325.132812 C 385.703125 323.515625 384.640625 321.691406 382.707031 321.390625 C 379.933594 320.941406 374.554688 325.375 374.0625 328.1875 C 372.894531 334.914062 371.695312 341.636719 370.554688 348.359375 C 369.3125 355.683594 368.144531 363.019531 367.035156 369.730469 C 367.019531 374.804688 369.371094 377.921875 372.90625 378.113281 Z M 372.90625 378.113281 " fill-opacity="1" fill-rule="nonzero"/></g></svg>