<svg xmlns="http://www.w3.org/2000/svg" xmlns:xlink="http://www.w3.org/1999/xlink" width="1920" zoomAndPan="magnify" viewBox="0 0 1440 1439.999935" height="1920" preserveAspectRatio="xMidYMid meet" version="1.0"><defs><clipPath id="0ac6a3bde9"><path d="M 335 131 L 627 131 L 627 690 L 335 690 Z M 335 131 " clip-rule="nonzero"/></clipPath><clipPath id="704b7b0c84"><path d="M 78.667969 276.378906 L 441.464844 40.066406 L 747.121094 509.320312 L 384.324219 745.632812 Z M 78.667969 276.378906 " clip-rule="nonzero"/></clipPath><clipPath id="4fa0b86b0e"><path d="M 78.667969 276.378906 L 441.464844 40.066406 L 747.121094 509.320312 L 384.324219 745.632812 Z M 78.667969 276.378906 " clip-rule="nonzero"/></clipPath><clipPath id="2bf0bc70f3"><path d="M 78.667969 276.378906 L 441.464844 40.066406 L 747.121094 509.320312 L 384.324219 745.632812 Z M 78.667969 276.378906 " clip-rule="nonzero"/></clipPath><clipPath id="5a91dcedae"><path d="M 367 224 L 667 224 L 667 439 L 367 439 Z M 367 224 " clip-rule="nonzero"/></clipPath><clipPath id="c25d09a9a5"><path d="M 78.667969 276.378906 L 441.464844 40.066406 L 747.121094 509.320312 L 384.324219 745.632812 Z M 78.667969 276.378906 " clip-rule="nonzero"/></clipPath><clipPath id="217784a4df"><path d="M 78.667969 276.378906 L 441.464844 40.066406 L 747.121094 509.320312 L 384.324219 745.632812 Z M 78.667969 276.378906 " clip-rule="nonzero"/></clipPath><clipPath id="76a473c9dc"><path d="M 78.667969 276.378906 L 441.464844 40.066406 L 747.121094 509.320312 L 384.324219 745.632812 Z M 78.667969 276.378906 " clip-rule="nonzero"/></clipPath><clipPath id="fc1ea819c7"><path d="M 321 109 L 612 109 L 612 667 L 321 667 Z M 321 109 " clip-rule="nonzero"/></clipPath><clipPath id="0843ac3748"><path d="M 78.667969 276.378906 L 441.464844 40.066406 L 747.121094 509.320312 L 384.324219 745.632812 Z M 78.667969 276.378906 " clip-rule="nonzero"/></clipPath><clipPath id="fcfdfcdff9"><path d="M 78.667969 276.378906 L 441.464844 40.066406 L 747.121094 509.320312 L 384.324219 745.632812 Z M 78.667969 276.378906 " clip-rule="nonzero"/></clipPath><clipPath id="938bf6f58a"><path d="M 78.667969 276.378906 L 441.464844 40.066406 L 747.121094 509.320312 L 384.324219 745.632812 Z M 78.667969 276.378906 " clip-rule="nonzero"/></clipPath><clipPath id="da0fb6c2bd"><path d="M 353 201 L 652 201 L 652 417 L 353 417 Z M 353 201 " clip-rule="nonzero"/></clipPath><clipPath id="45ce9b41b0"><path d="M 78.667969 276.378906 L 441.464844 40.066406 L 747.121094 509.320312 L 384.324219 745.632812 Z M 78.667969 276.378906 " clip-rule="nonzero"/></clipPath><clipPath id="fd75a8a7fe"><path d="M 78.667969 276.378906 L 441.464844 40.066406 L 747.121094 509.320312 L 384.324219 745.632812 Z M 78.667969 276.378906 " clip-rule="nonzero"/></clipPath><clipPath id="1fc3e6390b"><path d="M 78.667969 276.378906 L 441.464844 40.066406 L 747.121094 509.320312 L 384.324219 745.632812 Z M 78.667969 276.378906 " clip-rule="nonzero"/></clipPath><clipPath id="241b5ee569"><path d="M 512 370 L 584 370 L 584 447 L 512 447 Z M 512 370 " clip-rule="nonzero"/></clipPath><clipPath id="32c782bb1c"><path d="M 78.667969 276.378906 L 441.464844 40.066406 L 747.121094 509.320312 L 384.324219 745.632812 Z M 78.667969 276.378906 " clip-rule="nonzero"/></clipPath><clipPath id="8a810442dc"><path d="M 78.667969 276.378906 L 441.464844 40.066406 L 747.121094 509.320312 L 384.324219 745.632812 Z M 78.667969 276.378906 " clip-rule="nonzero"/></clipPath><clipPath id="0bf117b765"><path d="M 78.667969 276.378906 L 441.464844 40.066406 L 747.121094 509.320312 L 384.324219 745.632812 Z M 78.667969 276.378906 " clip-rule="nonzero"/></clipPath><clipPath id="bd988110c2"><path d="M 532 471 L 591 471 L 591 530 L 532 530 Z M 532 471 " clip-rule="nonzero"/></clipPath><clipPath id="3b0309e11b"><path d="M 78.667969 276.378906 L 441.464844 40.066406 L 747.121094 509.320312 L 384.324219 745.632812 Z M 78.667969 276.378906 " clip-rule="nonzero"/></clipPath><clipPath id="8552ff8599"><path d="M 78.667969 276.378906 L 441.464844 40.066406 L 747.121094 509.320312 L 384.324219 745.632812 Z M 78.667969 276.378906 " clip-rule="nonzero"/></clipPath><clipPath id="841f1d5027"><path d="M 78.667969 276.378906 L 441.464844 40.066406 L 747.121094 509.320312 L 384.324219 745.632812 Z M 78.667969 276.378906 " clip-rule="nonzero"/></clipPath><clipPath id="6137613f41"><path d="M 301 726.472656 L 534 726.472656 L 534 1147 L 301 1147 Z M 301 726.472656 " clip-rule="nonzero"/></clipPath><clipPath id="6922b46282"><path d="M 488 726.472656 L 794 726.472656 L 794 882 L 488 882 Z M 488 726.472656 " clip-rule="nonzero"/></clipPath><clipPath id="a5e41faa47"><path d="M 697 181 L 1120 181 L 1120 659 L 697 659 Z M 697 181 " clip-rule="nonzero"/></clipPath><clipPath id="e05cfff269"><path d="M 738.410156 96.269531 L 1167.832031 173.535156 L 1070.4375 714.832031 L 641.015625 637.570312 Z M 738.410156 96.269531 " clip-rule="nonzero"/></clipPath><clipPath id="e6e82185f2"><path d="M 738.410156 96.269531 L 1167.832031 173.535156 L 1070.4375 714.832031 L 641.015625 637.570312 Z M 738.410156 96.269531 " clip-rule="nonzero"/></clipPath><clipPath id="e979f43b61"><path d="M 690 146 L 1113 146 L 1113 624 L 690 624 Z M 690 146 " clip-rule="nonzero"/></clipPath><clipPath id="7a55297841"><path d="M 738.410156 96.269531 L 1167.832031 173.535156 L 1070.4375 714.832031 L 641.015625 637.570312 Z M 738.410156 96.269531 " clip-rule="nonzero"/></clipPath><clipPath id="ce72f17138"><path d="M 738.410156 96.269531 L 1167.832031 173.535156 L 1070.4375 714.832031 L 641.015625 637.570312 Z M 738.410156 96.269531 " clip-rule="nonzero"/></clipPath><clipPath id="1699870cf2"><path d="M 834 289 L 909 289 L 909 363 L 834 363 Z M 834 289 " clip-rule="nonzero"/></clipPath><clipPath id="cbee926d54"><path d="M 738.410156 96.269531 L 1167.832031 173.535156 L 1070.4375 714.832031 L 641.015625 637.570312 Z M 738.410156 96.269531 " clip-rule="nonzero"/></clipPath><clipPath id="c80e698ff6"><path d="M 738.410156 96.269531 L 1167.832031 173.535156 L 1070.4375 714.832031 L 641.015625 637.570312 Z M 738.410156 96.269531 " clip-rule="nonzero"/></clipPath><clipPath id="a0c487e542"><path d="M 951 717 L 1261 717 L 1261 1383 L 951 1383 Z M 951 717 " clip-rule="nonzero"/></clipPath><clipPath id="2f2e64f9dc"><path d="M 809.984375 727.863281 L 1146.097656 626.523438 L 1360.835938 1338.765625 L 1024.722656 1440.105469 Z M 809.984375 727.863281 " clip-rule="nonzero"/></clipPath><clipPath id="cbbf3c8c0f"><path d="M 809.984375 727.863281 L 1146.097656 626.523438 L 1360.835938 1338.765625 L 1024.722656 1440.105469 Z M 809.984375 727.863281 " clip-rule="nonzero"/></clipPath><clipPath id="ae8353bb09"><path d="M 957 679 L 1260 679 L 1260 1261 L 957 1261 Z M 957 679 " clip-rule="nonzero"/></clipPath><clipPath id="85e48357ba"><path d="M 809.984375 727.863281 L 1146.097656 626.523438 L 1360.835938 1338.765625 L 1024.722656 1440.105469 Z M 809.984375 727.863281 " clip-rule="nonzero"/></clipPath><clipPath id="0c27cc202a"><path d="M 809.984375 727.863281 L 1146.097656 626.523438 L 1360.835938 1338.765625 L 1024.722656 1440.105469 Z M 809.984375 727.863281 " clip-rule="nonzero"/></clipPath><clipPath id="eea3ace37c"><path d="M 886 889 L 966 889 L 966 978 L 886 978 Z M 886 889 " clip-rule="nonzero"/></clipPath><clipPath id="4eb56f8366"><path d="M 809.984375 727.863281 L 1146.097656 626.523438 L 1360.835938 1338.765625 L 1024.722656 1440.105469 Z M 809.984375 727.863281 " clip-rule="nonzero"/></clipPath><clipPath id="a873dbb0a0"><path d="M 809.984375 727.863281 L 1146.097656 626.523438 L 1360.835938 1338.765625 L 1024.722656 1440.105469 Z M 809.984375 727.863281 " clip-rule="nonzero"/></clipPath><clipPath id="4626066c9c"><path d="M 973 710 L 1283 710 L 1283 1377 L 973 1377 Z M 973 710 " clip-rule="nonzero"/></clipPath><clipPath id="ff9e553e29"><path d="M 809.984375 727.863281 L 1146.097656 626.523438 L 1360.835938 1338.765625 L 1024.722656 1440.105469 Z M 809.984375 727.863281 " clip-rule="nonzero"/></clipPath><clipPath id="3b3a54fd3f"><path d="M 809.984375 727.863281 L 1146.097656 626.523438 L 1360.835938 1338.765625 L 1024.722656 1440.105469 Z M 809.984375 727.863281 " clip-rule="nonzero"/></clipPath><clipPath id="6b158478af"><path d="M 979 672 L 1281 672 L 1281 1254 L 979 1254 Z M 979 672 " clip-rule="nonzero"/></clipPath><clipPath id="3b2cec3cb8"><path d="M 809.984375 727.863281 L 1146.097656 626.523438 L 1360.835938 1338.765625 L 1024.722656 1440.105469 Z M 809.984375 727.863281 " clip-rule="nonzero"/></clipPath><clipPath id="5362b9f3f5"><path d="M 809.984375 727.863281 L 1146.097656 626.523438 L 1360.835938 1338.765625 L 1024.722656 1440.105469 Z M 809.984375 727.863281 " clip-rule="nonzero"/></clipPath><clipPath id="3c0ffd169c"><path d="M 736 136 L 847 136 L 847 234 L 736 234 Z M 736 136 " clip-rule="nonzero"/></clipPath><clipPath id="d62f426e1e"><path d="M 831.921875 0 L 854.351562 224.5625 L 613.152344 248.652344 L 590.726562 24.089844 Z M 831.921875 0 " clip-rule="nonzero"/></clipPath><clipPath id="d3c056c73f"><path d="M 831.921875 0 L 854.351562 224.5625 L 613.152344 248.652344 L 590.726562 24.089844 Z M 831.921875 0 " clip-rule="nonzero"/></clipPath><clipPath id="c3b252fb37"><path d="M 601 21 L 637 21 L 637 138 L 601 138 Z M 601 21 " clip-rule="nonzero"/></clipPath><clipPath id="226e5c1969"><path d="M 831.921875 0 L 854.351562 224.5625 L 613.152344 248.652344 L 590.726562 24.089844 Z M 831.921875 0 " clip-rule="nonzero"/></clipPath><clipPath id="6a7bf39c24"><path d="M 831.921875 0 L 854.351562 224.5625 L 613.152344 248.652344 L 590.726562 24.089844 Z M 831.921875 0 " clip-rule="nonzero"/></clipPath><clipPath id="ebf25bd5ba"><path d="M 680 110 L 728 110 L 728 177 L 680 177 Z M 680 110 " clip-rule="nonzero"/></clipPath><clipPath id="7961a233b5"><path d="M 831.921875 0 L 854.351562 224.5625 L 613.152344 248.652344 L 590.726562 24.089844 Z M 831.921875 0 " clip-rule="nonzero"/></clipPath><clipPath id="6a1193f9f5"><path d="M 831.921875 0 L 854.351562 224.5625 L 613.152344 248.652344 L 590.726562 24.089844 Z M 831.921875 0 " clip-rule="nonzero"/></clipPath><clipPath id="d6ba80001f"><path d="M 739 1189 L 985 1189 L 985 1424 L 739 1424 Z M 739 1189 " clip-rule="nonzero"/></clipPath><clipPath id="c33816cde8"><path d="M 932.109375 1439.976562 L 722.992188 1387.289062 L 775.679688 1178.171875 L 984.796875 1230.863281 Z M 932.109375 1439.976562 " clip-rule="nonzero"/></clipPath><clipPath id="d3acfbbcd8"><path d="M 973.613281 1450.433594 L 723.972656 1387.535156 L 787.28125 1136.273438 L 1036.921875 1199.171875 Z M 973.613281 1450.433594 " clip-rule="nonzero"/></clipPath></defs><g clip-path="url(#0ac6a3bde9)"><g clip-path="url(#704b7b0c84)"><g clip-path="url(#4fa0b86b0e)"><g clip-path="url(#2bf0bc70f3)"><path fill="#f5c321" d="M 463.320312 513.453125 C 463.320312 513.453125 367.761719 499.167969 349.714844 581.878906 C 331.636719 664.742188 408.648438 713.914062 478.257812 676.136719 C 547.863281 638.355469 536.457031 567.269531 536.457031 567.269531 L 410.660156 207.699219 C 410.660156 207.699219 462.035156 196.117188 546.96875 268.25 C 586.042969 301.550781 588.925781 311.476562 593.953125 320.007812 C 598.917969 328.445312 616.097656 367.652344 622.796875 369.789062 C 627.929688 371.351562 632.625 333.542969 596.695312 280.820312 C 499.246094 137.53125 377.886719 131.304688 377.886719 131.304688 L 335.652344 141.4375 Z M 463.320312 513.453125 " fill-opacity="1" fill-rule="nonzero"/></g></g></g></g><g clip-path="url(#5a91dcedae)"><g clip-path="url(#c25d09a9a5)"><g clip-path="url(#217784a4df)"><g clip-path="url(#76a473c9dc)"><path fill="#f5c321" d="M 628.488281 373.636719 C 531.164062 230.535156 409.925781 224.09375 409.925781 224.09375 L 367.695312 234.226562 L 393.125 308.511719 C 405.496094 308.148438 417.769531 307.84375 430.152344 308.925781 C 435.605469 309.355469 440.875 309.902344 446.167969 310.699219 L 442.644531 300.394531 C 442.644531 300.394531 494.296875 288.632812 578.953125 360.945312 C 622.578125 398.179688 634.023438 409.027344 634.023438 409.027344 C 634.023438 409.027344 710.457031 494.386719 628.488281 373.636719 Z M 628.488281 373.636719 " fill-opacity="1" fill-rule="nonzero"/></g></g></g></g><g clip-path="url(#fc1ea819c7)"><g clip-path="url(#0843ac3748)"><g clip-path="url(#fcfdfcdff9)"><g clip-path="url(#938bf6f58a)"><path fill="#221f1f" d="M 448.882812 491.289062 C 448.882812 491.289062 353.328125 477.007812 335.28125 559.714844 C 317.234375 642.425781 394.214844 691.753906 463.761719 653.878906 C 533.304688 616.007812 521.960938 545.015625 521.960938 545.015625 L 396.164062 185.445312 C 396.164062 185.445312 447.539062 173.863281 532.472656 245.992188 C 571.546875 279.296875 574.429688 289.222656 579.457031 297.75 C 584.421875 306.1875 601.601562 345.398438 608.300781 347.53125 C 613.429688 349.097656 618.128906 311.289062 582.199219 258.566406 C 484.75 115.277344 363.390625 109.046875 363.390625 109.046875 L 321.15625 119.183594 Z M 448.882812 491.289062 " fill-opacity="1" fill-rule="nonzero"/></g></g></g></g><g clip-path="url(#da0fb6c2bd)"><g clip-path="url(#45ce9b41b0)"><g clip-path="url(#fd75a8a7fe)"><g clip-path="url(#1fc3e6390b)"><path fill="#221f1f" d="M 614.054688 351.476562 C 516.726562 208.371094 395.492188 201.929688 395.492188 201.929688 L 353.261719 212.0625 L 378.691406 286.347656 C 391.058594 285.984375 403.335938 285.679688 415.71875 286.765625 C 421.171875 287.191406 426.4375 287.742188 431.734375 288.535156 L 428.207031 278.234375 C 428.207031 278.234375 479.863281 266.46875 564.515625 338.78125 C 608.140625 376.015625 619.585938 386.863281 619.585938 386.863281 C 619.585938 386.863281 696.019531 472.222656 614.054688 351.476562 Z M 614.054688 351.476562 " fill-opacity="1" fill-rule="nonzero"/></g></g></g></g><g clip-path="url(#241b5ee569)"><g clip-path="url(#32c782bb1c)"><g clip-path="url(#8a810442dc)"><g clip-path="url(#0bf117b765)"><path fill="#221f1f" d="M 541.613281 408.742188 C 541.613281 408.742188 516.828125 394.117188 513.121094 405.945312 C 509.414062 417.777344 532.203125 414.871094 532.203125 414.871094 C 532.203125 414.871094 510.042969 436.464844 520.269531 437.496094 C 530.433594 438.4375 541.605469 423.601562 541.605469 423.601562 C 541.605469 423.601562 551.1875 444.015625 556.402344 446.320312 C 561.621094 448.625 550.921875 423.234375 550.921875 423.234375 C 550.921875 423.234375 584.867188 440.515625 583.445312 429.371094 C 581.933594 418.285156 554.414062 413.929688 554.414062 413.929688 C 554.414062 413.929688 584.921875 384.777344 574.933594 387.167969 C 564.949219 389.5625 552.203125 401.976562 552.203125 401.976562 C 552.203125 401.976562 547.027344 361.84375 538.316406 371.898438 C 529.789062 381.828125 541.613281 408.742188 541.613281 408.742188 Z M 541.613281 408.742188 " fill-opacity="1" fill-rule="nonzero"/></g></g></g></g><g clip-path="url(#bd988110c2)"><g clip-path="url(#3b0309e11b)"><g clip-path="url(#8552ff8599)"><g clip-path="url(#841f1d5027)"><path fill="#221f1f" d="M 558.609375 498.597656 C 558.609375 498.597656 547.070312 479.457031 540.335938 486.230469 C 533.507812 493.066406 550.027344 499.28125 550.027344 499.28125 C 550.027344 499.28125 526.953125 505.820312 533.597656 510.113281 C 540.210938 514.5625 553.289062 508.5625 553.289062 508.5625 C 553.289062 508.5625 552.234375 526.09375 555.003906 529.328125 C 557.710938 532.871094 559.699219 511.679688 559.699219 511.679688 C 559.699219 511.679688 576.425781 535.933594 579.503906 527.828125 C 582.582031 519.71875 565.335938 506.683594 565.335938 506.683594 C 565.335938 506.683594 596.820312 497.980469 589.132812 495.957031 C 581.570312 493.71875 568.363281 497.683594 568.363281 497.683594 C 568.363281 497.683594 579.597656 468.480469 569.90625 472.140625 C 560.429688 475.929688 558.609375 498.597656 558.609375 498.597656 Z M 558.609375 498.597656 " fill-opacity="1" fill-rule="nonzero"/></g></g></g></g><path fill="#41baeb" d="M 533.15625 834.789062 C 533.15625 834.789062 537.132812 837.476562 542.828125 843.0625 C 545.726562 822.109375 549.488281 801.261719 554.109375 780.523438 C 546.265625 773.324219 541.105469 769.882812 541.105469 769.882812 L 508.332031 760 L 447.1875 1063.886719 C 447.1875 1063.886719 387.871094 1016.175781 342.847656 1065.390625 C 297.824219 1114.605469 330.597656 1178.652344 392.921875 1180.480469 C 455.25 1182.304688 475.664062 1129.652344 475.664062 1129.652344 Z M 533.15625 834.789062 " fill-opacity="1" fill-rule="nonzero"/><path fill="#41baeb" d="M 793.09375 914.84375 C 793.09375 914.84375 797.070312 917.53125 802.765625 923.117188 C 805.667969 902.164062 809.429688 881.316406 814.046875 860.578125 C 806.203125 853.378906 801.046875 849.941406 801.046875 849.941406 L 768.273438 840.054688 L 707.128906 1143.941406 C 707.128906 1143.941406 647.8125 1096.230469 602.789062 1145.449219 C 557.761719 1194.664062 590.539062 1258.492188 652.863281 1260.425781 C 715.1875 1262.253906 735.605469 1209.597656 735.605469 1209.597656 Z M 793.09375 914.84375 " fill-opacity="1" fill-rule="nonzero"/><path fill="#41baeb" d="M 542.609375 842.957031 C 542.609375 842.957031 672.632812 867.027344 697.136719 874.226562 C 721.636719 881.425781 793.09375 914.738281 793.09375 914.738281 C 793.09375 914.738281 833.820312 859.609375 801.046875 849.726562 C 768.273438 839.839844 711.535156 815.339844 692.40625 807.496094 C 673.28125 799.648438 508.441406 759.785156 508.441406 759.785156 Z M 542.609375 842.957031 " fill-opacity="1" fill-rule="nonzero"/><path fill="#211f1f" d="M 420.539062 849.296875 C 420.539062 849.296875 427.203125 831.78125 419.035156 831.027344 C 411.082031 830.058594 415.488281 844.136719 415.488281 844.136719 C 415.488281 844.136719 399.261719 832.640625 399.90625 839.195312 C 400.554688 845.855469 411.191406 851.121094 411.191406 851.121094 C 411.191406 851.121094 399.261719 859.609375 398.402344 863.050781 C 397.542969 866.703125 412.375 856.925781 412.375 856.925781 C 412.375 856.925781 405.386719 880.566406 412.15625 878.308594 C 418.929688 876.050781 418.5 858.214844 418.5 858.214844 C 418.5 858.214844 440.527344 874.332031 437.839844 868.101562 C 435.367188 862.082031 425.914062 855.3125 425.914062 855.3125 C 425.914062 855.3125 450.84375 847.46875 443.429688 842.957031 C 436.230469 838.65625 420.539062 849.296875 420.539062 849.296875 Z M 420.539062 849.296875 " fill-opacity="1" fill-rule="nonzero"/><path fill="#211f1f" d="M 374.011719 939.882812 C 374.011719 939.882812 358.214844 907.753906 346.285156 917.636719 C 334.359375 927.523438 360.042969 939.882812 360.042969 939.882812 C 360.042969 939.882812 322.324219 947.296875 332.316406 955.355469 C 342.203125 963.199219 364.015625 955.355469 364.015625 955.355469 C 364.015625 955.355469 360.042969 983.078125 364.015625 989.097656 C 367.992188 995.113281 373.902344 961.375 373.902344 961.375 C 373.902344 961.375 397.542969 1002.3125 403.5625 989.742188 C 409.578125 977.167969 384.003906 953.957031 384.003906 953.957031 C 384.003906 953.957031 435.367188 944.289062 423.546875 939.988281 C 411.726562 935.691406 389.808594 939.988281 389.808594 939.988281 C 389.808594 939.988281 411.621094 894.75 395.824219 899.261719 C 380.027344 903.667969 374.011719 939.882812 374.011719 939.882812 Z M 374.011719 939.882812 " fill-opacity="1" fill-rule="nonzero"/><g clip-path="url(#6137613f41)"><path fill="#211f1f" d="M 512.84375 801.371094 C 512.84375 801.371094 516.820312 804.054688 522.515625 809.644531 C 525.417969 788.6875 529.179688 767.84375 533.800781 747.101562 C 525.957031 739.902344 520.796875 736.464844 520.796875 736.464844 L 488.023438 726.578125 L 426.878906 1030.359375 C 426.878906 1030.359375 367.5625 982.648438 322.539062 1031.863281 C 277.515625 1081.082031 310.289062 1144.910156 372.613281 1146.738281 C 434.9375 1148.5625 455.355469 1095.910156 455.355469 1095.910156 Z M 512.84375 801.371094 " fill-opacity="1" fill-rule="nonzero"/></g><path fill="#211f1f" d="M 772.675781 881.53125 C 772.675781 881.53125 776.652344 884.21875 782.347656 889.804688 C 785.25 868.851562 789.011719 848.003906 793.632812 827.265625 C 785.789062 820.066406 780.628906 816.628906 780.628906 816.628906 L 747.855469 806.742188 L 686.820312 1110.523438 C 686.820312 1110.523438 627.503906 1062.8125 582.476562 1112.027344 C 537.453125 1161.242188 570.121094 1225.179688 632.554688 1227.113281 C 694.878906 1229.15625 715.511719 1176.394531 715.511719 1176.394531 Z M 772.675781 881.53125 " fill-opacity="1" fill-rule="nonzero"/><g clip-path="url(#6922b46282)"><path fill="#211f1f" d="M 522.410156 809.644531 C 522.410156 809.644531 652.433594 833.714844 676.933594 840.914062 C 701.648438 848.328125 772.675781 881.425781 772.675781 881.425781 C 772.675781 881.425781 813.402344 826.300781 780.628906 816.414062 C 747.855469 806.527344 691.117188 782.027344 671.988281 774.183594 C 652.863281 766.339844 488.023438 726.472656 488.023438 726.472656 Z M 522.410156 809.644531 " fill-opacity="1" fill-rule="nonzero"/></g><g clip-path="url(#a5e41faa47)"><g clip-path="url(#e05cfff269)"><g clip-path="url(#e6e82185f2)"><path fill="#cc66aa" d="M 864.734375 529.644531 C 864.734375 529.644531 806.707031 455.953125 738.773438 502.410156 C 670.84375 548.867188 692.480469 635.089844 767.03125 654.75 C 841.515625 674.175781 880.671875 616.515625 880.671875 616.515625 L 1031.335938 278.273438 C 1031.335938 278.273438 1083.449219 335.839844 1069.078125 429.976562 C 1060.625 485.015625 1025.484375 583 1001.324219 587.6875 C 977.054688 592.359375 1091.769531 594.035156 1114.1875 453.933594 C 1140.625 287.785156 1059.136719 202.503906 1059.136719 202.503906 L 1022.527344 181.527344 Z M 864.734375 529.644531 " fill-opacity="1" fill-rule="nonzero"/></g></g></g><g clip-path="url(#e979f43b61)"><g clip-path="url(#7a55297841)"><g clip-path="url(#ce72f17138)"><path fill="#211f1f" d="M 857.714844 494.246094 C 857.714844 494.246094 799.6875 420.550781 731.757812 467.007812 C 663.828125 513.464844 685.480469 599.582031 760.035156 619.242188 C 834.585938 638.902344 873.675781 581.007812 873.675781 581.007812 L 1024.121094 242.726562 C 1024.121094 242.726562 1076.238281 300.296875 1061.863281 394.429688 C 1053.414062 449.46875 1018.269531 547.453125 994.109375 552.144531 C 969.839844 556.8125 1084.554688 558.488281 1106.976562 418.386719 C 1133.371094 252.453125 1051.792969 167.046875 1051.792969 167.046875 L 1015.183594 146.070312 Z M 857.714844 494.246094 " fill-opacity="1" fill-rule="nonzero"/></g></g></g><g clip-path="url(#1699870cf2)"><g clip-path="url(#cbee926d54)"><g clip-path="url(#c80e698ff6)"><path fill="#211f1f" d="M 869.273438 318.390625 C 869.273438 318.390625 861.515625 291.449219 850.949219 297.46875 C 840.386719 303.488281 858.46875 316.445312 858.46875 316.445312 C 858.46875 316.445312 828.476562 316.960938 834.933594 324.484375 C 841.410156 331.894531 859.355469 328.878906 859.355469 328.878906 C 859.355469 328.878906 852.480469 349.730469 854.691406 354.8125 C 856.878906 360.003906 866.105469 334.777344 866.105469 334.777344 C 866.105469 334.777344 878.6875 369.617188 884.976562 360.707031 C 891.355469 351.925781 874.699219 330.410156 874.699219 330.410156 C 874.699219 330.410156 915.589844 330.070312 907.007812 325.066406 C 898.425781 320.066406 881.074219 320.402344 881.074219 320.402344 C 881.074219 320.402344 904.082031 288.621094 891.359375 289.898438 C 878.789062 291.542969 869.273438 318.390625 869.273438 318.390625 Z M 869.273438 318.390625 " fill-opacity="1" fill-rule="nonzero"/></g></g></g><g clip-path="url(#a0c487e542)"><g clip-path="url(#2f2e64f9dc)"><g clip-path="url(#cbbf3c8c0f)"><path fill="#a1d683" d="M 1193.90625 1341.21875 C 1193.90625 1341.21875 1210.542969 1307.589844 1195.207031 1296.300781 C 1179.867188 1285.011719 1135.679688 1264.824219 1117.707031 1307.730469 C 1099.59375 1350.679688 1164.882812 1397.710938 1203.90625 1378.445312 C 1242.929688 1359.183594 1263.136719 1336.871094 1260.382812 1315.054688 C 1257.628906 1293.238281 1217.667969 1221.589844 1217.667969 1221.589844 L 1127.265625 1075.023438 L 1056.609375 958.917969 C 1056.609375 958.917969 993.484375 850.03125 989.257812 837.535156 C 985.566406 827.324219 995.21875 775.601562 999.878906 754 C 1000.9375 749.398438 1001.773438 746.085938 1002.039062 744.933594 C 1004.277344 738.140625 973.265625 717.5 973.265625 717.5 C 973.265625 717.5 936.695312 789.574219 958.988281 847.273438 C 981.28125 904.96875 1169.523438 1211.621094 1169.523438 1211.621094 C 1169.523438 1211.621094 1216.363281 1273.089844 1220.773438 1298.382812 C 1225.230469 1323.816406 1218.257812 1334.183594 1209.945312 1341.125 C 1201.492188 1348.113281 1193.90625 1341.21875 1193.90625 1341.21875 Z M 1193.90625 1341.21875 " fill-opacity="1" fill-rule="nonzero"/></g></g></g><g clip-path="url(#ae8353bb09)"><g clip-path="url(#85e48357ba)"><g clip-path="url(#0c27cc202a)"><path fill="#a1d683" d="M 1011.214844 743.390625 C 1019.179688 748.488281 1038.1875 767.390625 1043.078125 781.066406 C 1047.964844 794.742188 1040.644531 858.765625 1031.382812 879.308594 C 1022.359375 899.625 1001.308594 949.578125 1001.308594 949.578125 C 1001.308594 949.578125 937.101562 1084.769531 964.65625 1141.644531 C 992.390625 1198.621094 1035.960938 1259.390625 1091.320312 1260.296875 C 1146.816406 1261.160156 1230.125 1218.753906 1242.277344 1200.703125 C 1254.433594 1182.65625 1268.167969 1108.433594 1251.085938 1074.109375 C 1234.003906 1039.78125 1214.339844 1025.816406 1198.191406 1018.445312 C 1181.988281 1011.394531 1151.707031 999.257812 1132.746094 999.3125 C 1113.847656 999.042969 1089.507812 1013.726562 1089.507812 1013.726562 C 1089.507812 1013.726562 1055.824219 1030.917969 1049.34375 1051.539062 C 1042.816406 1072.023438 1032.902344 1107.144531 1038.703125 1119.78125 C 1044.316406 1132.316406 1087 1180.5 1098.714844 1168.09375 C 1110.425781 1155.6875 1067.730469 1157.695312 1090.296875 1117.84375 C 1112.539062 1077.933594 1149.730469 1064.269531 1149.730469 1064.269531 C 1149.730469 1064.269531 1189.648438 1062.179688 1199.066406 1082.753906 C 1208.480469 1103.324219 1224.605469 1135.492188 1216.859375 1153.4375 C 1208.925781 1171.28125 1184.503906 1196.855469 1155.195312 1210.28125 C 1125.886719 1223.707031 1042.757812 1213.425781 1033.996094 1187.914062 C 1025.234375 1162.398438 995.855469 1126.882812 1011.652344 1082.335938 C 1027.347656 1037.972656 1054.785156 967.578125 1064.484375 941.394531 C 1074.1875 915.210938 1109.011719 829.738281 1079.890625 766.140625 C 1050.769531 702.546875 1003.523438 669.664062 994.910156 682.207031 C 986.382812 695.027344 969.136719 725.628906 969.136719 725.628906 L 976.15625 748.914062 Z M 1011.214844 743.390625 " fill-opacity="1" fill-rule="nonzero"/></g></g></g><g clip-path="url(#eea3ace37c)"><g clip-path="url(#4eb56f8366)"><g clip-path="url(#a873dbb0a0)"><path fill="#211f1f" d="M 920.617188 932.136719 C 920.617188 932.136719 898.273438 908.269531 890.558594 920.234375 C 882.800781 932.0625 908.554688 935.773438 908.554688 935.773438 C 908.554688 935.773438 877.816406 952.078125 888.304688 956.414062 C 899.074219 960.664062 916.078125 948.039062 916.078125 948.039062 C 916.078125 948.039062 920.027344 973.320312 924.875 977.214844 C 929.804688 981.390625 926.253906 950.328125 926.253906 950.328125 C 926.253906 950.328125 957.753906 979.695312 959.644531 967.191406 C 961.535156 954.6875 933.003906 941.253906 933.003906 941.253906 C 933.003906 941.253906 975.210938 919.347656 963.691406 918.691406 C 952.210938 918.171875 934.515625 927.484375 934.515625 927.484375 C 934.515625 927.484375 941.707031 882.320312 929.046875 890.574219 C 916.332031 899.152344 920.617188 932.136719 920.617188 932.136719 Z M 920.617188 932.136719 " fill-opacity="1" fill-rule="nonzero"/></g></g></g><g clip-path="url(#4626066c9c)"><g clip-path="url(#ff9e553e29)"><g clip-path="url(#3b3a54fd3f)"><path fill="#211f1f" d="M 1215.507812 1334.707031 C 1215.507812 1334.707031 1232.144531 1301.074219 1216.804688 1289.789062 C 1201.511719 1278.640625 1157.28125 1258.3125 1139.308594 1301.21875 C 1121.195312 1344.167969 1186.480469 1391.195312 1225.507812 1371.933594 C 1264.53125 1352.671875 1284.734375 1330.359375 1281.984375 1308.542969 C 1279.089844 1286.769531 1239.265625 1215.078125 1239.265625 1215.078125 L 1148.867188 1068.507812 L 1078.210938 952.40625 C 1078.210938 952.40625 1015.085938 843.519531 1010.859375 831.023438 C 1007.167969 820.8125 1016.820312 769.089844 1021.476562 747.488281 C 1022.539062 742.886719 1023.375 739.570312 1023.640625 738.421875 C 1025.875 731.625 994.863281 710.984375 994.863281 710.984375 C 994.863281 710.984375 958.296875 783.0625 980.589844 840.761719 C 1002.882812 898.457031 1191.125 1205.109375 1191.125 1205.109375 C 1191.125 1205.109375 1237.964844 1266.578125 1242.375 1291.871094 C 1246.832031 1317.304688 1239.855469 1327.671875 1231.546875 1334.613281 C 1223.09375 1341.597656 1215.507812 1334.707031 1215.507812 1334.707031 Z M 1215.507812 1334.707031 " fill-opacity="1" fill-rule="nonzero"/></g></g></g><g clip-path="url(#6b158478af)"><g clip-path="url(#3b2cec3cb8)"><g clip-path="url(#5362b9f3f5)"><path fill="#211f1f" d="M 1032.816406 736.878906 C 1040.777344 741.976562 1059.789062 760.878906 1064.679688 774.554688 C 1069.566406 788.226562 1062.046875 852.617188 1052.984375 872.792969 C 1043.917969 892.972656 1022.769531 943.109375 1022.769531 943.109375 C 1022.769531 943.109375 958.5625 1078.296875 986.257812 1135.132812 C 1013.992188 1192.109375 1057.5625 1252.875 1112.917969 1253.78125 C 1168.417969 1254.648438 1251.722656 1212.238281 1263.878906 1194.191406 C 1276.035156 1176.144531 1289.769531 1101.921875 1272.6875 1067.59375 C 1255.605469 1033.269531 1235.941406 1019.304688 1219.792969 1011.933594 C 1203.589844 1004.882812 1173.304688 992.746094 1154.347656 992.796875 C 1135.445312 992.53125 1111.105469 1007.210938 1111.105469 1007.210938 C 1111.105469 1007.210938 1077.425781 1024.40625 1070.941406 1045.027344 C 1064.460938 1065.652344 1054.503906 1100.632812 1060.300781 1113.265625 C 1065.917969 1125.804688 1108.601562 1173.988281 1120.3125 1161.582031 C 1132.027344 1149.175781 1089.332031 1151.183594 1111.894531 1111.332031 C 1134.136719 1071.421875 1171.332031 1057.757812 1171.332031 1057.757812 C 1171.332031 1057.757812 1211.25 1055.667969 1220.667969 1076.242188 C 1230.082031 1096.8125 1246.207031 1128.980469 1238.457031 1146.925781 C 1230.527344 1164.769531 1206.105469 1190.34375 1176.792969 1203.769531 C 1147.484375 1217.195312 1064.359375 1206.914062 1055.597656 1181.398438 C 1046.832031 1155.886719 1017.457031 1120.371094 1033.253906 1075.824219 C 1048.949219 1031.460938 1076.382812 961.066406 1086.085938 934.882812 C 1095.789062 908.699219 1130.613281 823.226562 1101.492188 759.628906 C 1072.371094 696.03125 1025.21875 662.96875 1016.609375 675.511719 C 1007.800781 688.417969 990.835938 718.933594 990.835938 718.933594 L 997.855469 742.21875 Z M 1032.816406 736.878906 " fill-opacity="1" fill-rule="nonzero"/></g></g></g><g clip-path="url(#3c0ffd169c)"><g clip-path="url(#d62f426e1e)"><g clip-path="url(#d3c056c73f)"><path fill="#231f20" d="M 846.421875 145.183594 C 846.027344 146.578125 845.648438 149.578125 844.347656 152.085938 C 842.804688 155.101562 840.710938 157.929688 838.390625 160.441406 C 831.078125 168.351562 823.984375 176.535156 816.019531 183.734375 C 798.632812 199.589844 779.8125 213.742188 759.867188 226.3125 C 755.761719 228.90625 751.386719 231.28125 746.84375 232.902344 C 740.800781 235.058594 734.628906 229.125 736.429688 222.878906 C 737.46875 219.183594 739.242188 215.5625 741.445312 212.382812 C 746.445312 205.09375 752.703125 198.789062 759.730469 193.382812 C 765.949219 188.589844 772.175781 183.890625 778.558594 179.324219 C 792.910156 169.011719 806.769531 158.167969 819.90625 146.375 C 822.796875 143.757812 825.726562 141.039062 829.019531 139.011719 C 831.394531 137.511719 834.363281 136.632812 837.175781 136.160156 C 841.753906 135.363281 845.808594 139.03125 846.421875 145.183594 Z M 846.421875 145.183594 " fill-opacity="1" fill-rule="nonzero"/></g></g></g><g clip-path="url(#c3b252fb37)"><g clip-path="url(#226e5c1969)"><g clip-path="url(#6a7bf39c24)"><path fill="#231f20" d="M 636.167969 48.71875 C 636.496094 70.472656 633.921875 91.832031 630.476562 113.1875 C 629.9375 116.539062 629.160156 119.914062 628.023438 123.132812 C 627.089844 125.894531 625.804688 128.597656 624.152344 130.992188 C 621.183594 135.269531 617.148438 138.097656 611.632812 136.804688 C 606.316406 135.539062 603.578125 131.445312 602.257812 126.484375 C 601.09375 122.136719 601.582031 117.769531 602.308594 113.378906 C 604.496094 99.332031 606.777344 85.277344 608.378906 71.191406 C 609.640625 60.003906 609.96875 48.714844 610.738281 37.480469 C 610.882812 35.039062 610.972656 32.554688 611.515625 30.222656 C 612.683594 24.914062 616.957031 21.527344 621.953125 21.515625 C 626.269531 21.519531 630.539062 24.441406 632.214844 28.589844 C 632.738281 29.945312 633.269531 31.347656 633.554688 32.773438 C 634.472656 38.070312 635.292969 43.371094 636.167969 48.71875 Z M 636.167969 48.71875 " fill-opacity="1" fill-rule="nonzero"/></g></g></g><g clip-path="url(#ebf25bd5ba)"><g clip-path="url(#7961a233b5)"><g clip-path="url(#6a1193f9f5)"><path fill="#231f20" d="M 688.917969 176.097656 C 683.449219 176.257812 680.039062 172.230469 681.003906 168.300781 C 681.691406 165.46875 682.476562 162.625 683.566406 159.941406 C 689.636719 144.925781 697.96875 131.1875 708.109375 118.582031 C 709.921875 116.3125 712.152344 114.34375 714.453125 112.609375 C 717.472656 110.320312 720.789062 110.472656 724.03125 112.332031 C 726.859375 113.941406 727.910156 116.699219 727.96875 119.703125 C 728.011719 122.074219 727.882812 124.660156 727.035156 126.878906 C 721.664062 141.097656 714.902344 154.53125 704.539062 165.902344 C 701.214844 169.535156 697.769531 172.933594 693.105469 174.808594 C 691.328125 175.46875 689.484375 175.945312 688.917969 176.097656 Z M 688.917969 176.097656 " fill-opacity="1" fill-rule="nonzero"/></g></g></g><g clip-path="url(#d6ba80001f)"><g clip-path="url(#c33816cde8)"><g clip-path="url(#d3acfbbcd8)"><path fill="#211f1f" d="M 743.695312 1361.460938 C 747.71875 1357.582031 750.742188 1353.171875 754.535156 1348.527344 L 741.835938 1338.453125 C 738.191406 1335.195312 738.316406 1329.914062 741.640625 1326.285156 C 744.898438 1322.640625 750.183594 1322.765625 753.808594 1326.089844 C 757.453125 1329.347656 761.585938 1331.523438 765.210938 1334.847656 C 765.765625 1333.78125 767.152344 1332.5 767.402344 1330.648438 C 769.878906 1327.304688 772.070312 1323.105469 774.542969 1319.761719 C 776.734375 1315.5625 781.554688 1314.15625 785.683594 1316.332031 C 789.8125 1318.503906 791.585938 1324.125 789.113281 1327.472656 C 785.535156 1332.949219 782.191406 1339.195312 777.847656 1344.902344 C 783.324219 1348.480469 788.199219 1353.039062 793.675781 1356.617188 C 797.320312 1359.875 797.195312 1365.160156 793.871094 1368.789062 C 790.613281 1372.433594 785.332031 1372.304688 781.703125 1368.980469 L 767.9375 1358.355469 C 764.144531 1363 760.335938 1367.707031 756.476562 1372.335938 C 753.21875 1375.980469 747.933594 1375.855469 744.308594 1372.53125 C 741.078125 1370.15625 741.203125 1364.871094 743.695312 1361.460938 Z M 889.203125 1423.355469 C 899.578125 1420.15625 894.65625 1404.246094 884.296875 1407.375 C 873.921875 1410.574219 878.828125 1426.550781 889.203125 1423.355469 Z M 859 1222.25 C 869.375 1219.054688 864.453125 1203.140625 854.097656 1206.273438 C 843.722656 1209.472656 848.628906 1225.449219 859 1222.25 Z M 978.230469 1226.421875 C 983 1224.929688 987.820312 1223.523438 992.820312 1222.796875 C 994.3125 1227.566406 995.183594 1233.386719 996.660156 1238.222656 C 997.851562 1242.210938 1003.113281 1244.953125 1007.101562 1243.761719 C 1011.871094 1242.269531 1014.113281 1238.15625 1012.636719 1233.320312 C 1011.164062 1228.484375 1010.738281 1224.265625 1009.3125 1219.511719 C 1014.363281 1218.871094 1019.367188 1218.144531 1024.652344 1218.273438 C 1028.867188 1217.847656 1032.960938 1213.988281 1032.535156 1209.769531 C 1032.109375 1205.550781 1028.25 1201.460938 1024.03125 1201.886719 C 1017.980469 1201.992188 1011.308594 1203.144531 1005.257812 1203.25 C 1004.511719 1200.867188 1003.765625 1198.480469 1003.871094 1195.8125 C 1002.679688 1191.828125 997.417969 1189.085938 993.429688 1190.277344 C 988.660156 1191.769531 986.417969 1195.882812 987.894531 1200.71875 C 988.40625 1202.335938 988.855469 1203.9375 989.386719 1205.488281 C 984.617188 1206.980469 978.796875 1207.851562 973.960938 1209.328125 C 969.972656 1210.519531 967.230469 1215.78125 968.421875 1219.769531 C 969.046875 1224.886719 973.476562 1227.847656 978.230469 1226.421875 Z M 932.808594 1305.699219 C 943.183594 1302.503906 938.261719 1286.589844 927.902344 1289.722656 C 918.363281 1292.703125 923.203125 1308.667969 932.808594 1305.699219 Z M 932.808594 1305.699219 " fill-opacity="1" fill-rule="nonzero"/></g></g></g></svg>