<svg xmlns="http://www.w3.org/2000/svg" xmlns:xlink="http://www.w3.org/1999/xlink" width="1000" zoomAndPan="magnify" viewBox="0 0 750 749.999995" height="1000" preserveAspectRatio="xMidYMid meet" version="1.0"><path fill="#e91e63" d="M 387.585938 161.398438 L 495.46875 269.28125 C 500.390625 274.203125 508.367188 274.203125 513.289062 269.28125 C 515.742188 266.820312 516.980469 263.597656 516.980469 260.375 C 516.980469 257.148438 515.742188 253.921875 513.289062 251.464844 L 383.894531 122.074219 C 383.867188 122.042969 383.835938 122.023438 383.808594 121.996094 C 383.542969 121.734375 383.265625 121.476562 382.976562 121.242188 C 382.816406 121.109375 382.652344 121 382.488281 120.878906 C 382.320312 120.753906 382.160156 120.621094 381.988281 120.507812 C 381.800781 120.378906 381.601562 120.273438 381.410156 120.160156 C 381.25 120.0625 381.09375 119.960938 380.929688 119.875 C 380.734375 119.769531 380.535156 119.683594 380.332031 119.589844 C 380.160156 119.503906 379.988281 119.414062 379.8125 119.347656 C 379.621094 119.261719 379.417969 119.199219 379.226562 119.128906 C 379.035156 119.0625 378.839844 118.988281 378.648438 118.929688 C 378.449219 118.871094 378.246094 118.824219 378.042969 118.769531 C 377.847656 118.722656 377.65625 118.667969 377.453125 118.628906 C 377.21875 118.578125 376.980469 118.554688 376.746094 118.519531 C 376.574219 118.496094 376.40625 118.464844 376.234375 118.445312 C 375.40625 118.363281 374.570312 118.363281 373.742188 118.445312 C 373.566406 118.464844 373.398438 118.496094 373.226562 118.519531 C 372.988281 118.554688 372.753906 118.578125 372.523438 118.628906 C 372.320312 118.667969 372.125 118.722656 371.925781 118.777344 C 371.726562 118.824219 371.523438 118.871094 371.328125 118.929688 C 371.128906 118.988281 370.9375 119.0625 370.746094 119.128906 C 370.550781 119.199219 370.355469 119.261719 370.164062 119.34375 C 369.984375 119.421875 369.8125 119.507812 369.632812 119.59375 C 369.4375 119.683594 369.238281 119.769531 369.046875 119.875 C 368.875 119.960938 368.714844 120.070312 368.550781 120.164062 C 368.363281 120.277344 368.171875 120.386719 367.988281 120.507812 C 367.808594 120.632812 367.636719 120.765625 367.457031 120.898438 C 367.304688 121.011719 367.148438 121.117188 367 121.242188 C 366.679688 121.503906 366.371094 121.78125 366.074219 122.074219 L 236.6875 251.464844 C 231.765625 256.382812 231.765625 264.359375 236.6875 269.28125 C 241.609375 274.203125 249.585938 274.203125 254.503906 269.28125 L 362.390625 161.398438 L 362.390625 619.042969 C 362.390625 626 368.03125 631.640625 374.988281 631.640625 C 381.945312 631.640625 387.585938 626 387.585938 619.042969 L 387.585938 161.398438 " fill-opacity="1" fill-rule="nonzero"/><path fill="#e91e63" d="M 374.988281 724.796875 C 327.753906 724.796875 281.949219 715.554688 238.84375 697.320312 C 197.195312 679.707031 159.78125 654.480469 127.648438 622.351562 C 95.519531 590.21875 70.292969 552.804688 52.679688 511.15625 C 34.445312 468.050781 25.203125 422.246094 25.203125 375.011719 C 25.203125 327.78125 34.445312 281.972656 52.679688 238.867188 C 70.292969 197.21875 95.519531 159.808594 127.648438 127.675781 C 159.78125 95.542969 197.195312 70.320312 238.84375 52.703125 C 281.949219 34.46875 327.753906 25.226562 374.988281 25.226562 C 422.21875 25.226562 468.027344 34.46875 511.132812 52.703125 C 552.78125 70.320312 590.191406 95.542969 622.324219 127.675781 C 654.457031 159.808594 679.679688 197.21875 697.296875 238.867188 C 715.53125 281.972656 724.773438 327.78125 724.773438 375.011719 C 724.773438 422.246094 715.53125 468.050781 697.296875 511.15625 C 679.679688 552.804688 654.457031 590.21875 622.324219 622.351562 C 590.191406 654.480469 552.78125 679.707031 511.132812 697.320312 C 468.027344 715.554688 422.21875 724.796875 374.988281 724.796875 Z M 749.972656 375.011719 C 749.972656 167.914062 582.085938 0.0273438 374.988281 0.0273438 C 167.886719 0.0273438 0.00390625 167.914062 0.00390625 375.011719 C 0.00390625 582.113281 167.886719 749.996094 374.988281 749.996094 C 582.085938 749.996094 749.972656 582.113281 749.972656 375.011719 " fill-opacity="1" fill-rule="nonzero"/><path fill="#e91e63" d="M 387.585938 161.398438 L 495.46875 269.28125 C 500.390625 274.203125 508.367188 274.203125 513.289062 269.28125 C 515.742188 266.820312 516.980469 263.597656 516.980469 260.375 C 516.980469 257.148438 515.742188 253.921875 513.289062 251.464844 L 383.894531 122.074219 C 383.867188 122.042969 383.835938 122.023438 383.808594 121.996094 C 383.542969 121.734375 383.265625 121.476562 382.976562 121.242188 C 382.816406 121.109375 382.652344 121 382.488281 120.878906 C 382.320312 120.753906 382.160156 120.621094 381.988281 120.507812 C 381.800781 120.378906 381.601562 120.273438 381.410156 120.160156 C 381.25 120.0625 381.09375 119.960938 380.929688 119.875 C 380.734375 119.769531 380.535156 119.683594 380.332031 119.589844 C 380.160156 119.503906 379.988281 119.414062 379.8125 119.347656 C 379.621094 119.261719 379.417969 119.199219 379.226562 119.128906 C 379.035156 119.0625 378.839844 118.988281 378.648438 118.929688 C 378.449219 118.871094 378.246094 118.824219 378.042969 118.769531 C 377.847656 118.722656 377.65625 118.667969 377.453125 118.628906 C 377.21875 118.578125 376.980469 118.554688 376.746094 118.519531 C 376.574219 118.496094 376.40625 118.464844 376.234375 118.445312 C 375.40625 118.363281 374.570312 118.363281 373.742188 118.445312 C 373.566406 118.464844 373.398438 118.496094 373.226562 118.519531 C 372.988281 118.554688 372.753906 118.578125 372.523438 118.628906 C 372.320312 118.667969 372.125 118.722656 371.925781 118.777344 C 371.726562 118.824219 371.523438 118.871094 371.328125 118.929688 C 371.128906 118.988281 370.9375 119.0625 370.746094 119.128906 C 370.550781 119.199219 370.355469 119.261719 370.164062 119.34375 C 369.984375 119.421875 369.8125 119.507812 369.632812 119.59375 C 369.4375 119.683594 369.238281 119.769531 369.046875 119.875 C 368.875 119.960938 368.714844 120.070312 368.550781 120.164062 C 368.363281 120.277344 368.171875 120.386719 367.988281 120.507812 C 367.808594 120.632812 367.636719 120.765625 367.457031 120.898438 C 367.304688 121.011719 367.148438 121.117188 367 121.242188 C 366.679688 121.503906 366.371094 121.78125 366.074219 122.074219 L 236.6875 251.464844 C 231.765625 256.382812 231.765625 264.359375 236.6875 269.28125 C 241.609375 274.203125 249.585938 274.203125 254.503906 269.28125 L 362.390625 161.398438 L 362.390625 619.042969 C 362.390625 626 368.03125 631.640625 374.988281 631.640625 C 381.945312 631.640625 387.585938 626 387.585938 619.042969 L 387.585938 161.398438 " fill-opacity="1" fill-rule="nonzero"/><path fill="#e91e63" d="M 374.988281 724.796875 C 327.753906 724.796875 281.949219 715.554688 238.84375 697.320312 C 197.195312 679.707031 159.78125 654.480469 127.648438 622.351562 C 95.519531 590.21875 70.292969 552.804688 52.679688 511.15625 C 34.445312 468.050781 25.203125 422.246094 25.203125 375.011719 C 25.203125 327.78125 34.445312 281.972656 52.679688 238.867188 C 70.292969 197.21875 95.519531 159.808594 127.648438 127.675781 C 159.78125 95.542969 197.195312 70.320312 238.84375 52.703125 C 281.949219 34.46875 327.753906 25.226562 374.988281 25.226562 C 422.21875 25.226562 468.027344 34.46875 511.132812 52.703125 C 552.78125 70.320312 590.191406 95.542969 622.324219 127.675781 C 654.457031 159.808594 679.679688 197.21875 697.296875 238.867188 C 715.53125 281.972656 724.773438 327.78125 724.773438 375.011719 C 724.773438 422.246094 715.53125 468.050781 697.296875 511.15625 C 679.679688 552.804688 654.457031 590.21875 622.324219 622.351562 C 590.191406 654.480469 552.78125 679.707031 511.132812 697.320312 C 468.027344 715.554688 422.21875 724.796875 374.988281 724.796875 Z M 749.972656 375.011719 C 749.972656 167.914062 582.085938 0.0273438 374.988281 0.0273438 C 167.886719 0.0273438 0.00390625 167.914062 0.00390625 375.011719 C 0.00390625 582.113281 167.886719 749.996094 374.988281 749.996094 C 582.085938 749.996094 749.972656 582.113281 749.972656 375.011719 " fill-opacity="1" fill-rule="nonzero"/></svg>